<svg preserveAspectRatio="none" width="100%" height="100%" overflow="visible" style="display: block;" viewBox="0 0 70.0345 71.3383" fill="none" xmlns="http://www.w3.org/2000/svg">
<path id="eye-right" d="M22.8886 3.0774C30.5537 -0.295948 42.6814 -1.19777 50.5149 1.89912C61.3687 6.18821 66.6543 13.604 69.4655 24.6615C70.1586 26.7923 70.1703 33.0267 69.7598 35.168C69.5236 36.9828 69.2255 39.9314 68.8111 41.6239C68.3194 43.0933 67.4868 45.8363 66.8053 47.0904C66.3019 48.1092 65.7095 49.5422 64.9428 50.3097C63.8005 53.6865 62.2283 55.362 59.9128 58.0314C54.5923 63.9409 48.7685 68.9483 40.5014 70.1254C26.1239 74.1411 12.1224 67.9214 4.37677 55.3794C-3.92138 41.9433 -0.214908 17.9407 13.7552 9.71645C15.715 6.79536 19.8211 4.63784 22.8886 3.0774Z" fill="var(--fill-0, white)"/>
</svg>
