<svg preserveAspectRatio="none" width="100%" height="100%" overflow="visible" style="display: block;" viewBox="0 0 71.5877 73.8855" fill="none" xmlns="http://www.w3.org/2000/svg">
<path id="eye-left" d="M1.22622 24.3901C3.29631 17.1618 7.0477 10.2687 13.6181 6.18483C20.4854 1.91626 30.3623 -1.31072 38.4296 0.527353C41.0651 1.23323 45.7137 2.35187 47.9169 3.83526C50.4327 5.1204 53.1986 6.64793 55.3764 8.46471C57.1196 9.35644 60.461 10.8859 61.5583 12.305L61.8344 13.7265C66.9066 17.7871 68.7614 23.16 70.1957 29.3832C70.6166 31.6209 71.6075 36.2135 71.5599 38.2432C71.5738 41.4516 71.7883 45.043 70.7614 48.0752C70.648 50.5243 68.713 55.8592 67.1378 57.6807C65.9355 60.0999 64.8869 61.2968 63.2238 63.3803L60.689 65.6052C57.405 68.4659 53.587 70.6997 49.3861 71.9097C48.0501 72.393 46.5284 72.987 45.1952 73.414L43.7082 73.5534C42.7317 74.2531 34.1524 73.6913 32.8428 73.289C30.6504 72.6671 28.1373 72.0406 26.0796 71.1218L25.481 70.9564C22.8444 69.8967 21.7017 69.4541 19.2641 67.882L18.4018 67.2249C14.4731 64.5644 12.6446 63.323 9.57277 59.667C8.3356 58.5627 7.79543 57.5355 6.92263 56.1338C5.32999 54.5536 3.23745 49.3278 2.32361 47.1451C1.93407 46.4702 1.42022 44.8025 1.13871 43.9886C-0.183648 37.9099 -0.187521 34.9756 0.289922 28.8976C0.401829 27.8363 0.975693 25.5312 1.22622 24.3901Z" fill="var(--fill-0, white)"/>
</svg>
