<svg  viewBox="0 0 471.897 359.947" fill="none" xmlns="http://www.w3.org/2000/svg">
<g id="Vector">
<path d="M198.38 6.959C198.971 4.8966 200.041 2.92987 201.916 1.76466C203.875 0.546748 206.693 -0.373974 208.995 0.150464C209.747 0.351866 211.073 0.671036 211.702 1.09428C212.42 1.46095 213.209 1.89679 213.83 2.41515C214.327 2.66958 215.281 3.10597 215.594 3.51087L215.673 3.91644C217.12 5.07502 217.649 6.60801 218.058 8.38361C218.178 9.02206 218.461 10.3324 218.448 10.9116C218.452 11.827 218.513 12.8517 218.22 13.7168C218.187 14.4156 217.635 15.9378 217.186 16.4575C216.843 17.1477 216.544 17.4892 216.069 18.0837L215.346 18.7185C214.409 19.5347 213.32 20.1721 212.121 20.5173C211.74 20.6552 211.306 20.8246 210.925 20.9465L210.501 20.9863C210.222 21.1859 207.774 21.0256 207.401 20.9108C206.775 20.7334 206.058 20.5546 205.471 20.2925L205.3 20.2453C204.548 19.9429 204.222 19.8166 203.527 19.3681L203.281 19.1806C202.16 18.4215 201.638 18.0673 200.761 17.0242C200.408 16.7091 200.254 16.416 200.005 16.0161C199.551 15.5652 198.954 14.0742 198.693 13.4515C198.582 13.2589 198.435 12.7831 198.355 12.5508C197.978 10.8164 197.977 9.97924 198.113 8.24507C198.145 7.94225 198.308 7.28458 198.38 6.959Z" fill="var(--fill-0, white)"/>
<path d="M291.166 0.982427C293.353 0.0199429 296.813 -0.237364 299.049 0.646239C302.145 1.87 303.653 3.98588 304.456 7.1408C304.653 7.74876 304.657 9.52757 304.539 10.1385C304.472 10.6563 304.387 11.4976 304.269 11.9805C304.128 12.3998 303.891 13.1824 303.697 13.5402C303.553 13.8309 303.384 14.2398 303.165 14.4587C302.839 15.4222 302.391 15.9003 301.73 16.6619C300.212 18.348 298.55 19.7767 296.191 20.1126C292.089 21.2583 288.094 19.4837 285.884 15.9052C283.517 12.0717 284.574 5.22323 288.56 2.87668C289.119 2.04324 290.291 1.42765 291.166 0.982427Z" fill="var(--fill-0, white)"/>
<path d="M208.297 135.297C208.295 135.327 208.294 135.357 208.293 135.388L208.288 135.482L208.288 135.488L208.283 135.592C208.29 135.455 208.296 135.319 208.302 135.181L208.305 135.117C208.303 135.168 208.3 135.219 208.298 135.27L208.297 135.297Z" fill="var(--fill-0, white)"/>
<path d="M208.257 136.154C208.253 136.25 208.249 136.345 208.245 136.441C208.252 136.285 208.259 136.126 208.266 135.967C208.263 136.029 208.26 136.092 208.257 136.154Z" fill="var(--fill-0, white)"/>
<path d="M208.245 136.441C208.249 136.345 208.253 136.25 208.257 136.154C208.26 136.092 208.263 136.029 208.266 135.967C208.259 136.126 208.252 136.285 208.245 136.441Z" fill="var(--fill-0, white)"/>
<path d="M208.297 135.298C208.295 135.328 208.294 135.358 208.293 135.388L208.288 135.482L208.288 135.488L208.283 135.592C208.29 135.455 208.296 135.319 208.302 135.181L208.305 135.117C208.303 135.168 208.3 135.219 208.298 135.27L208.297 135.298Z" fill="var(--fill-0, white)"/>
<path d="M208.257 136.154C208.253 136.25 208.249 136.345 208.245 136.441C208.252 136.285 208.259 136.126 208.266 135.967C208.263 136.029 208.26 136.092 208.257 136.154Z" fill="var(--fill-0, white)"/>
<path d="M208.245 136.441C208.249 136.345 208.253 136.25 208.257 136.154C208.26 136.092 208.263 136.029 208.266 135.967C208.259 136.126 208.252 136.285 208.245 136.441Z" fill="var(--fill-0, white)"/>
<path d="M208.297 135.297C208.295 135.327 208.294 135.357 208.293 135.388L208.288 135.482L208.288 135.488L208.283 135.592C208.29 135.455 208.296 135.319 208.302 135.181L208.305 135.117C208.303 135.168 208.3 135.219 208.298 135.27L208.297 135.297Z" fill="var(--fill-0, white)"/>
<path d="M208.257 136.154C208.253 136.25 208.249 136.345 208.245 136.441C208.252 136.285 208.259 136.126 208.266 135.967C208.263 136.029 208.26 136.092 208.257 136.154Z" fill="var(--fill-0, white)"/>
<path d="M208.245 136.441C208.249 136.345 208.253 136.25 208.257 136.154C208.26 136.092 208.263 136.029 208.266 135.967C208.259 136.126 208.252 136.285 208.245 136.441Z" fill="var(--fill-0, white)"/>
<path d="M251.051 83.5034C250.695 81.4894 251.903 80.8342 251.746 78.9163C251.711 78.4877 251.773 78.2314 252.055 77.9475L252.231 77.9729C252.401 78.6114 252.031 79.1793 252.21 79.5891C252.895 79.113 252.656 79.3759 253.029 78.5054C254.079 78.4092 254.772 77.2105 255.453 77.2337C255.843 78.1761 256.73 78.3043 257.384 78.9826C257.636 79.2434 258.035 80.0156 258.2 80.3636C258.549 81.517 258.918 81.6695 258.371 82.7809C258.503 83.2272 258.643 83.7973 258.88 84.1817C256.009 87.2497 253.109 87.5524 251.051 83.5034Z" fill="var(--fill-0, white)"/>
<path d="M238.187 82.9797C237.484 81.4585 239.402 79.2047 240.69 78.5352C241.604 78.0613 241.732 78.3397 242.573 78.6402C243.287 79.1981 243.663 79.5052 244.286 80.1968C243.192 84.0425 241.685 86.5206 237.348 84.638C237.626 84.0149 237.853 83.5752 238.187 82.9797Z" fill="var(--fill-0, white)"/>
<path d="M208.297 135.297C208.295 135.327 208.294 135.357 208.293 135.388L208.288 135.482L208.288 135.488L208.283 135.592C208.29 135.455 208.296 135.319 208.302 135.181L208.305 135.117C208.303 135.168 208.3 135.219 208.298 135.27L208.297 135.297Z" fill="var(--fill-0, white)"/>
<path d="M208.257 136.154C208.253 136.25 208.249 136.345 208.245 136.441C208.252 136.285 208.259 136.126 208.266 135.967C208.263 136.029 208.26 136.092 208.257 136.154Z" fill="var(--fill-0, white)"/>
<path d="M208.245 136.441C208.249 136.345 208.253 136.25 208.257 136.154C208.26 136.092 208.263 136.029 208.266 135.967C208.259 136.126 208.252 136.285 208.245 136.441Z" fill="var(--fill-0, white)"/>
<path d="M208.297 135.297C208.295 135.327 208.294 135.357 208.293 135.388L208.288 135.482L208.288 135.488L208.283 135.592C208.29 135.455 208.296 135.319 208.302 135.181L208.305 135.117C208.303 135.168 208.3 135.219 208.298 135.27L208.297 135.297Z" fill="var(--fill-0, white)"/>
<path d="M208.257 136.154C208.253 136.25 208.249 136.345 208.245 136.441C208.252 136.285 208.259 136.126 208.266 135.967C208.263 136.029 208.26 136.092 208.257 136.154Z" fill="var(--fill-0, white)"/>
<path d="M208.245 136.441C208.249 136.345 208.253 136.25 208.257 136.154C208.26 136.092 208.263 136.029 208.266 135.967C208.259 136.126 208.252 136.285 208.245 136.441Z" fill="var(--fill-0, white)"/>
<path fill-rule="evenodd" clip-rule="evenodd" d="M227.071 141.932L227.067 141.94C227.068 141.938 227.07 141.934 227.071 141.932Z" fill="var(--fill-0, white)"/>
<path fill-rule="evenodd" clip-rule="evenodd" d="M227.082 141.912C227.084 141.909 227.086 141.906 227.087 141.904C227.086 141.905 227.084 141.906 227.083 141.907C227.082 141.908 227.082 141.911 227.082 141.912ZM227.071 141.932C227.072 141.93 227.072 141.929 227.073 141.928C227.074 141.926 227.075 141.925 227.075 141.924C227.074 141.926 227.072 141.929 227.071 141.932Z" fill="var(--fill-0, white)"/>
<path fill-rule="evenodd" clip-rule="evenodd" d="M227.083 141.907C227.084 141.906 227.086 141.905 227.087 141.904C227.086 141.906 227.084 141.909 227.082 141.912C227.082 141.912 227.081 141.915 227.081 141.915L227.075 141.924C227.074 141.926 227.072 141.929 227.071 141.932C227.07 141.934 227.068 141.938 227.067 141.94L227.065 141.943L227.048 141.984C227.017 142.069 226.981 142.163 226.942 142.264C226.817 142.592 226.664 142.994 226.55 143.391C226.405 143.899 226.291 144.501 226.43 145.016C226.441 145.053 226.456 145.089 226.475 145.122C226.476 145.124 226.477 145.127 226.479 145.131L226.481 145.138L226.484 145.145L226.486 145.15C226.497 145.183 226.51 145.228 226.525 145.288C226.554 145.406 226.585 145.556 226.615 145.715C226.656 145.932 226.691 146.143 226.718 146.309C226.732 146.394 226.744 146.466 226.754 146.522C226.784 146.688 226.905 146.823 227.067 146.869C227.229 146.915 227.403 146.865 227.515 146.739C228.679 145.437 228.918 144.453 229.282 142.959C229.296 142.901 229.311 142.842 229.325 142.782C229.362 142.629 229.315 142.471 229.205 142.363C229.265 142.238 229.324 142.075 229.378 141.909C229.449 141.694 229.525 141.433 229.601 141.157C229.754 140.604 229.913 139.969 230.037 139.466L230.225 138.707L230.386 138.228L230.386 138.225C230.724 137.197 230.963 136.307 231.138 135.215C231.355 135.174 231.501 135.053 231.603 134.927C231.65 134.867 231.691 134.803 231.723 134.754C231.726 134.748 231.73 134.742 231.734 134.737L231.74 134.727L231.745 134.719C231.799 134.704 231.842 134.697 231.879 134.695C231.911 134.693 231.943 134.695 231.977 134.698L232.032 134.706C232.086 134.715 232.14 134.728 232.212 134.745L232.246 134.752C232.359 134.779 232.503 134.811 232.674 134.823C232.759 134.829 232.851 134.83 232.949 134.824C233.194 134.809 233.417 134.743 233.595 134.591C233.768 134.442 233.846 134.256 233.89 134.118L233.891 134.114L233.893 134.108C233.894 134.106 233.894 134.104 233.895 134.102C233.895 134.101 233.896 134.099 233.897 134.097L233.899 134.086L233.902 134.076L233.905 134.068C233.935 134.104 233.969 134.143 234.009 134.187C234.06 134.244 234.125 134.286 234.197 134.31L234.299 134.343C234.599 134.444 234.845 134.543 235.057 134.637C235.095 134.653 235.132 134.67 235.169 134.687L235.35 134.772C235.452 134.821 235.546 134.869 235.639 134.915C235.705 134.949 235.771 134.982 235.839 135.015C236.051 135.12 236.268 135.22 236.521 135.302C236.6 135.327 236.682 135.351 236.768 135.373L236.866 135.397C236.966 135.419 237.071 135.44 237.183 135.457C237.431 135.495 237.712 135.519 238.04 135.528C238.106 135.53 238.175 135.531 238.244 135.531C238.356 135.532 238.474 135.531 238.598 135.529L238.736 135.584C238.829 135.62 238.922 135.656 239.013 135.69C239.023 135.694 239.032 135.697 239.042 135.701C239.05 135.704 239.058 135.707 239.065 135.71L239.106 135.724C239.127 135.732 239.149 135.74 239.171 135.749C239.275 136.322 239.309 136.984 239.328 137.693C239.332 137.842 239.336 137.993 239.339 138.146C239.354 138.791 239.369 139.459 239.433 140.074L239.44 140.601C239.44 140.666 239.456 140.729 239.483 140.786C239.407 140.876 239.347 140.977 239.292 141.081C239.261 141.141 239.228 141.208 239.193 141.28C239.181 141.304 239.171 141.328 239.161 141.35C239.152 141.37 239.142 141.394 239.133 141.419C239.123 141.444 239.115 141.467 239.108 141.489L239.087 141.559C239.044 141.723 239.033 141.892 239.072 142.057C239.083 142.103 239.098 142.148 239.117 142.194L239.119 142.199L239.121 142.203L239.123 142.207L239.126 142.214L239.129 142.221C239.131 142.225 239.133 142.229 239.135 142.234C239.139 142.242 239.143 142.25 239.147 142.258C239.17 142.301 239.195 142.34 239.221 142.374C239.242 142.403 239.265 142.429 239.289 142.455C239.284 142.458 239.279 142.461 239.274 142.464L239.204 142.51C238.904 142.728 238.795 143.077 238.742 143.326C238.713 143.46 238.694 143.596 238.679 143.716L238.671 143.78C238.66 143.868 238.65 143.945 238.639 144.016C238.497 144.522 238.345 145.026 238.184 145.525C238.177 145.547 238.171 145.57 238.168 145.593C238.159 145.648 238.148 145.717 238.134 145.797C238.084 146.089 238.009 146.527 237.983 146.937C237.966 147.2 237.966 147.483 238.014 147.735C238.059 147.973 238.164 148.279 238.441 148.46C238.531 148.519 238.64 148.543 238.747 148.527C239.088 148.476 239.417 148.279 239.687 148.047C239.965 147.808 240.222 147.499 240.416 147.162C240.734 146.609 240.959 145.819 240.571 145.178C240.699 144.912 240.755 144.678 240.815 144.427L240.823 144.392C240.865 144.344 240.914 144.286 240.944 144.241C240.957 144.223 240.979 144.189 240.996 144.146C241.012 144.109 241.02 144.088 241.029 144.067L241.039 144.043C241.045 144.028 241.052 144.012 241.061 143.988L241.13 143.822C241.213 143.623 241.299 143.414 241.386 143.202C241.521 142.871 241.659 142.524 241.796 142.167C241.83 142.078 241.864 141.988 241.898 141.897C242 141.625 242.1 141.347 242.196 141.065L242.337 140.64C242.475 140.212 242.602 139.777 242.711 139.341C242.759 139.147 242.804 138.953 242.844 138.759C242.965 138.177 243.048 137.594 243.073 137.027C243.077 136.932 243.08 136.837 243.081 136.744C243.081 136.696 243.081 136.649 243.081 136.603C243.08 136.527 243.078 136.453 243.075 136.382L243.075 136.378C243.075 136.367 243.074 136.337 243.073 136.323C243.07 136.255 243.065 136.186 243.06 136.118L243.081 136.145C243.083 136.148 243.086 136.151 243.088 136.154C243.131 136.207 243.159 136.247 243.176 136.274C243.173 136.306 243.171 136.347 243.176 136.393C243.187 136.495 243.229 136.58 243.281 136.645C243.358 136.743 243.468 136.807 243.533 136.844C243.562 136.86 243.594 136.878 243.628 136.896C243.663 136.914 243.702 136.934 243.744 136.955C243.81 136.988 243.882 137.005 243.955 137.002C244.032 137 244.107 136.996 244.177 136.987L244.247 136.976C244.268 136.972 244.293 136.967 244.318 136.961C244.391 136.943 244.457 136.918 244.519 136.888C244.539 136.878 244.559 136.868 244.579 136.856C244.668 136.805 244.765 136.732 244.855 136.663C244.867 136.654 244.878 136.645 244.89 136.636C244.903 136.626 244.917 136.616 244.93 136.606C245.005 136.55 245.06 136.471 245.088 136.382L245.089 136.378C245.183 136.378 245.274 136.349 245.35 136.294C245.439 136.229 245.547 136.121 245.625 136.041C245.667 135.998 245.718 135.945 245.762 135.899L245.793 135.866L245.852 135.837L246.042 135.935C246.172 136.002 246.328 136 246.457 135.929L246.534 135.886C246.586 135.915 246.635 135.955 246.697 136.007L246.705 136.014C246.751 136.052 246.855 136.139 246.984 136.184C247.17 136.249 247.355 136.219 247.515 136.125C247.712 136.009 247.861 135.938 247.971 135.9C248.013 135.885 248.044 135.878 248.068 135.873C248.072 135.888 248.077 135.908 248.081 135.932C248.115 136.123 248.112 136.412 248.098 136.832L248.094 136.953C248.082 137.326 248.067 137.765 248.082 138.235C248.083 138.408 248.08 138.667 248.075 138.983C248.065 139.739 248.05 140.822 248.088 141.844C248.115 142.575 248.169 143.303 248.276 143.894C248.326 144.174 248.39 144.436 248.475 144.66C248.327 144.716 248.222 144.848 248.198 145.003L248.194 145.034C248.14 145.684 248.128 146.307 248.118 146.906L248.117 146.927C248.107 147.523 248.096 148.094 248.049 148.671C248.031 148.887 248.173 149.084 248.384 149.135C248.595 149.186 248.811 149.075 248.894 148.875C248.936 148.773 248.983 148.662 249.032 148.546C249.189 148.173 249.368 147.747 249.489 147.388C249.489 147.387 249.49 147.385 249.49 147.384C249.49 147.383 249.491 147.381 249.491 147.38L249.493 147.374L249.634 146.902C249.673 146.77 249.649 146.628 249.568 146.517L249.502 146.426C249.53 146.407 249.565 146.387 249.608 146.365L249.626 146.356C249.69 146.323 249.814 146.258 249.913 146.162C250.05 146.028 250.13 145.851 250.136 145.638C250.142 145.442 250.017 145.266 249.83 145.206C249.814 145.201 249.798 145.196 249.782 145.191L249.714 145.17C249.774 145.098 249.811 145.006 249.814 144.907C249.816 144.863 249.817 144.821 249.818 144.78L249.818 144.747C249.867 144.755 249.917 144.755 249.966 144.747C250.046 144.739 250.125 144.709 250.193 144.657L250.252 144.611C250.364 144.523 250.423 144.392 250.422 144.259C250.458 144.164 250.486 144.072 250.505 143.975C250.534 143.829 250.544 143.684 250.552 143.526C250.554 143.521 250.555 143.517 250.556 143.512C250.558 143.507 250.559 143.502 250.561 143.497L250.58 143.415C250.652 143.066 250.634 142.666 250.619 142.341C250.616 142.282 250.614 142.226 250.612 142.172C250.596 141.736 250.62 141.477 250.716 141.327C250.923 141.002 251.052 140.669 251.163 140.369C251.173 140.34 251.185 140.31 251.195 140.282C251.296 140.008 251.385 139.765 251.515 139.526C251.589 139.39 251.663 139.312 251.766 139.201L251.796 139.17C251.921 139.035 252.073 138.864 252.176 138.576C252.249 138.373 252.164 138.147 251.975 138.043L251.813 137.953C251.737 137.911 251.651 137.894 251.566 137.9C251.602 137.722 251.641 137.539 251.684 137.358C251.772 136.989 251.873 136.656 251.984 136.4C252.055 136.397 252.13 136.394 252.21 136.392C252.389 136.388 252.584 136.388 252.784 136.389L252.799 136.39C252.852 136.39 252.903 136.39 252.953 136.391C252.988 136.391 253.024 136.391 253.058 136.392L253.094 136.392L253.235 136.393L253.314 136.394L253.382 136.394C253.479 136.395 253.575 136.395 253.667 136.395H253.671L253.928 136.391C253.993 136.391 254.057 136.376 254.115 136.347C254.148 136.331 254.183 136.315 254.219 136.299C254.538 136.157 254.896 136.056 255.296 135.971C255.384 135.953 255.474 135.935 255.566 135.917C255.782 135.877 256.011 135.839 256.249 135.799L256.32 135.787C256.397 135.775 256.474 135.762 256.551 135.749C257.197 135.64 257.894 135.509 258.574 135.275C258.58 135.418 258.586 135.568 258.592 135.72L258.603 136.026C258.622 136.555 258.64 137.068 258.666 137.359C258.67 137.4 258.675 137.44 258.679 137.477L258.687 137.845C258.708 139.079 258.688 140.376 258.669 141.66L258.665 141.873C258.655 142.515 258.646 143.152 258.643 143.775C258.64 143.79 258.636 143.804 258.633 143.819C258.626 143.852 258.62 143.886 258.614 143.918C258.585 144.085 258.568 144.261 258.563 144.441C258.559 144.584 258.563 144.731 258.575 144.879C258.633 145.622 258.905 146.494 259.547 146.969C259.609 147.015 259.683 147.044 259.759 147.053C259.894 147.068 260.025 147.069 260.151 147.053C260.235 147.043 260.316 147.026 260.393 147.002C260.903 146.844 261.191 146.428 261.388 146.097C261.44 146.011 261.489 145.922 261.535 145.84C261.583 145.755 261.627 145.676 261.673 145.599C261.764 145.445 261.85 145.319 261.942 145.22C261.949 145.212 261.957 145.204 261.964 145.197C261.967 145.194 261.97 145.191 261.973 145.188C261.977 145.184 261.98 145.181 261.984 145.177C262.072 145.093 262.121 144.976 262.12 144.854L262.118 144.718C262.118 144.689 262.118 144.599 262.086 144.511C262.046 144.403 261.974 144.33 261.955 144.312C262.075 144.075 262.126 143.848 262.15 143.632L262.15 143.627C262.15 143.624 262.15 143.622 262.15 143.619C262.268 143.596 262.375 143.525 262.441 143.417C262.455 143.395 262.467 143.374 262.477 143.356C262.651 143.041 262.72 142.676 262.739 142.322C262.758 141.965 262.728 141.588 262.682 141.229C262.659 141.042 262.63 140.856 262.601 140.677C262.582 140.561 262.563 140.445 262.545 140.338C262.487 139.999 262.438 139.708 262.42 139.47L262.412 139.342L262.409 139.22L262.408 139.083C262.409 138.729 262.432 138.269 262.458 137.791L262.466 137.646C262.487 137.259 262.508 136.867 262.517 136.535C262.546 136.479 262.588 136.409 262.641 136.321L262.644 136.316C262.677 136.261 262.715 136.199 262.746 136.141C262.776 136.086 262.817 136.006 262.841 135.922C262.879 135.793 262.915 135.668 262.951 135.545C263.05 135.207 263.147 134.886 263.26 134.546C263.331 134.48 263.417 134.415 263.52 134.349C263.587 134.306 263.66 134.264 263.739 134.223C264.263 133.95 264.976 133.743 265.719 133.562C265.946 133.506 266.178 133.452 266.407 133.4C266.896 133.287 267.366 133.179 267.724 133.066C268.031 132.969 268.301 132.877 268.554 132.791C269.084 132.612 269.541 132.456 270.119 132.325C270.257 132.572 270.397 132.797 270.544 133.025C270.586 133.09 270.63 133.158 270.674 133.226L270.69 133.25C270.708 133.553 270.739 133.967 270.772 134.414L270.773 134.417C270.839 135.312 270.917 136.353 270.932 136.982L270.935 137.165L270.932 137.313C270.907 137.782 271.015 138.148 271.097 138.426L271.106 138.457C271.192 138.751 271.228 138.91 271.187 139.092C271.186 139.098 271.184 139.104 271.183 139.111C271.181 139.117 271.18 139.123 271.178 139.129C271.129 139.306 271.195 139.495 271.343 139.603C271.373 139.624 271.404 139.644 271.436 139.661C271.696 139.802 271.967 139.773 272.174 139.704C272.38 139.635 272.571 139.514 272.73 139.392C273.047 139.146 273.327 138.824 273.465 138.62C273.889 137.996 273.758 137.393 273.654 136.917C273.637 136.841 273.621 136.768 273.608 136.698L273.531 136.175C273.557 136.13 273.587 136.08 273.615 136.029C273.648 135.969 273.683 135.902 273.711 135.839C273.724 135.809 273.74 135.772 273.752 135.734C273.761 135.706 273.784 135.636 273.784 135.552C273.782 134.842 273.977 134.147 274.191 133.385L274.198 133.36C274.382 132.706 274.578 131.999 274.603 131.266C274.68 131.267 274.758 131.25 274.828 131.211C275.194 131.006 275.463 130.934 275.706 130.891C275.782 130.878 275.855 130.868 275.935 130.857L275.967 130.852C276.35 130.798 276.765 130.732 277.316 130.36L277.319 130.358L277.421 130.287L277.427 130.283C277.43 130.281 277.433 130.279 277.436 130.277C277.442 130.273 277.447 130.268 277.453 130.263C277.533 130.197 277.687 130.106 277.92 129.987C278.042 129.924 278.167 129.863 278.299 129.798L278.321 129.788C278.436 129.731 278.558 129.672 278.688 129.606C279.22 129.34 279.862 128.994 280.231 128.563C280.335 128.441 280.365 128.272 280.309 128.122C280.289 128.069 280.258 128.022 280.222 127.981C280.27 127.946 280.316 127.915 280.36 127.886L280.582 128.394L280.594 128.444C280.604 128.487 280.612 128.526 280.62 128.558C280.647 128.687 280.653 128.741 280.645 128.977V128.98C280.627 129.716 280.667 130.595 280.84 131.445C281.011 132.289 281.321 133.142 281.869 133.79C282.013 133.96 282.206 134.058 282.382 134.116C282.561 134.175 282.755 134.201 282.939 134.206C283.28 134.215 283.693 134.15 283.97 133.962L284.109 133.87C284.153 133.841 284.191 133.804 284.222 133.761C284.282 133.677 284.349 133.583 284.41 133.477C284.57 133.203 284.68 132.772 284.764 132.308C284.851 131.826 284.92 131.246 284.972 130.63C284.981 130.527 284.989 130.423 284.997 130.317C285.072 129.321 285.107 128.241 285.105 127.31C285.104 126.391 285.066 125.581 284.987 125.145C284.964 125.02 284.981 124.986 284.988 124.973C284.997 124.953 285.015 124.925 285.054 124.872C285.063 124.859 285.078 124.84 285.095 124.817C285.129 124.773 285.172 124.715 285.206 124.668C285.227 124.639 285.245 124.607 285.258 124.573L285.351 124.337C285.483 124.22 285.567 124.169 285.615 124.147C285.653 124.13 285.67 124.131 285.684 124.132C285.693 124.133 285.702 124.134 285.713 124.136C285.721 124.137 285.731 124.139 285.743 124.141L285.77 124.145C285.813 124.152 285.878 124.161 285.953 124.162C286.123 124.163 286.294 124.118 286.477 124.007C286.566 123.953 286.632 123.869 286.665 123.771C286.724 123.596 286.747 123.438 286.74 123.288C286.733 123.14 286.698 123.023 286.672 122.941L286.655 122.89C286.69 122.882 286.719 122.881 286.749 122.881C286.755 122.881 286.761 122.881 286.768 122.881C286.78 122.882 286.793 122.882 286.809 122.883C286.926 122.888 287.142 122.898 287.382 122.834C287.547 122.79 287.648 122.676 287.69 122.624C287.743 122.558 287.788 122.484 287.824 122.417C287.896 122.282 287.966 122.114 288.029 121.954C288.067 121.856 288.103 121.761 288.136 121.671C288.232 121.785 288.372 121.921 288.575 122C288.819 122.096 289.087 122.084 289.368 121.984C289.484 121.942 289.574 121.855 289.622 121.746C289.778 121.665 289.876 121.493 289.855 121.309C289.844 121.206 289.798 121.115 289.73 121.047C289.768 121.037 289.808 121.026 289.848 121.013C289.902 120.994 289.953 120.964 289.997 120.926C290.059 120.871 290.12 120.822 290.186 120.769L290.193 120.764C290.259 120.712 290.335 120.651 290.406 120.584C290.46 120.533 290.513 120.475 290.562 120.41C290.572 120.469 290.595 120.526 290.63 120.578C290.745 120.749 290.963 120.818 291.155 120.743C291.46 120.623 291.837 120.36 292.158 120.103C292.486 119.838 292.81 119.536 293.008 119.3C293.109 119.178 293.192 119.067 293.255 118.983C293.273 118.96 293.289 118.938 293.303 118.92C293.335 118.877 293.358 118.85 293.373 118.833C293.392 118.837 293.418 118.844 293.451 118.856C293.513 118.988 293.638 119.082 293.785 119.104C293.948 119.127 294.11 119.058 294.206 118.924L294.286 118.813C294.403 118.649 294.394 118.426 294.264 118.272C294.148 118.136 294.134 118.064 294.122 118.002L294.12 117.99L294.116 117.971C294.097 117.86 294.06 117.65 293.867 117.444C293.854 117.431 293.841 117.419 293.827 117.407C294 117.34 294.195 117.272 294.399 117.209C294.65 117.131 294.893 117.067 295.104 117.022C295.108 117.11 295.128 117.199 295.161 117.286C295.246 117.508 295.493 117.622 295.718 117.543L295.737 117.536L295.743 117.534L295.747 117.533L295.782 117.521C295.889 117.484 296.002 117.445 296.098 117.392C296.234 117.318 296.337 117.221 296.451 117.104C296.591 116.96 296.616 116.74 296.512 116.568C296.406 116.393 296.258 116.286 296.127 116.216C296.083 116.192 296.036 116.171 295.991 116.153L296.008 116.15C296.118 116.13 296.226 116.117 296.346 116.102C296.393 116.096 296.44 116.09 296.491 116.084C296.66 116.061 296.85 116.033 297.031 115.979C297.203 115.927 297.348 115.861 297.466 115.804C297.501 115.787 297.533 115.77 297.561 115.757L297.588 115.743C297.649 115.713 297.698 115.689 297.75 115.668C297.821 115.64 297.87 115.629 297.913 115.629C297.915 115.628 297.918 115.629 297.921 115.629L297.925 115.629L297.926 115.632C297.931 115.647 297.935 115.662 297.94 115.676C297.975 115.778 298.019 115.869 298.084 115.991C298.143 116.101 298.247 116.181 298.368 116.21C298.49 116.24 298.618 116.216 298.721 116.145L298.83 116.07C298.942 115.994 299.012 115.87 299.02 115.735C299.023 115.702 299.025 115.668 299.027 115.635L299.028 115.625C299.037 115.483 299.046 115.348 299.042 115.217C299.035 115.036 299.004 114.863 298.94 114.639C298.906 114.522 298.826 114.424 298.717 114.369C298.538 114.277 298.337 114.246 298.151 114.241C297.962 114.235 297.759 114.256 297.554 114.292C297.144 114.363 296.685 114.501 296.24 114.659C295.362 114.972 294.486 115.387 294.058 115.605C293.361 115.897 292.706 116.271 292.071 116.635L292.044 116.65C291.407 117.015 290.787 117.37 290.126 117.657L290.089 117.676L289.572 117.961L288.756 118.385C288.4 118.526 288.043 118.718 287.706 118.909C287.593 118.974 287.483 119.037 287.376 119.099C287.146 119.232 286.927 119.358 286.71 119.472C286.19 119.746 285.757 119.922 285.261 120.124C285.114 120.184 284.962 120.246 284.801 120.313C284.756 120.299 284.726 120.281 284.704 120.262C284.665 120.229 284.621 120.171 284.583 120.065C284.5 119.838 284.475 119.496 284.488 119.052C284.496 118.794 284.514 118.546 284.532 118.292C284.546 118.098 284.56 117.898 284.57 117.687C284.591 117.245 284.593 116.769 284.48 116.391C284.386 116.08 284.347 115.779 284.323 115.491C284.318 115.432 284.314 115.37 284.309 115.307L284.306 115.248C284.292 115.046 284.278 114.833 284.249 114.659C284.206 114.4 284.115 114.092 283.846 113.872C283.58 113.655 283.229 113.596 282.84 113.613C282.811 113.614 282.781 113.616 282.751 113.618C282.522 113.634 282.259 113.676 281.958 113.741C281.444 113.759 281.016 113.886 280.673 114.123C280.319 114.367 280.092 114.703 279.949 115.068C279.674 115.773 279.693 116.648 279.737 117.379C279.767 117.885 279.813 118.378 279.858 118.862C279.938 119.705 280.014 120.525 280.001 121.357L280.001 121.36L280.001 121.364C280.001 121.453 280 121.565 279.999 121.687C279.997 121.909 279.995 122.172 279.998 122.422C280.002 122.752 280.014 123.109 280.052 123.385C280.037 123.423 280.024 123.458 280.013 123.487L280.002 123.514C279.995 123.532 279.989 123.546 279.985 123.557L279.984 123.559L279.981 123.567L279.98 123.57L279.978 123.573C279.976 123.577 279.975 123.581 279.973 123.584L279.971 123.589L279.969 123.592L279.966 123.595L279.959 123.601L279.955 123.604C279.953 123.605 279.952 123.607 279.95 123.608C279.947 123.61 279.945 123.612 279.942 123.614C279.917 123.632 279.887 123.653 279.844 123.683C279.802 123.713 279.75 123.749 279.69 123.792L279.683 123.797C279.093 124.24 278.226 124.712 277.304 125.179C276.959 125.353 276.605 125.527 276.259 125.698C275.697 125.975 275.156 126.241 274.71 126.481C274.55 126.567 274.422 126.665 274.322 126.745C274.121 125.538 273.991 124.379 273.853 123.15L273.826 122.905C273.8 122.671 273.77 122.319 273.736 121.911C273.71 121.605 273.682 121.268 273.65 120.927C273.58 120.163 273.492 119.351 273.378 118.945C273.37 118.918 273.361 118.889 273.351 118.86C273.285 118.665 273.093 118.542 272.889 118.564C272.859 118.567 272.83 118.573 272.802 118.582C272.759 118.302 272.74 118.017 272.724 117.72C272.721 117.666 272.718 117.609 272.715 117.553C272.697 117.195 272.678 116.813 272.618 116.443C272.596 116.305 272.519 116.214 272.467 116.166C272.436 116.138 272.405 116.117 272.378 116.101C272.388 116.076 272.399 116.05 272.411 116.022C272.439 115.956 272.472 115.88 272.507 115.772C272.558 115.619 272.59 115.432 272.536 115.21C272.485 115.003 272.367 114.808 272.203 114.607C272.157 114.55 272.097 114.506 272.028 114.478L271.999 114.467L271.906 114.441C271.69 114.387 271.47 114.389 271.263 114.471C271.03 114.564 270.865 114.735 270.751 114.917C270.535 115.264 270.443 115.741 270.398 116.179C270.352 116.633 270.349 117.119 270.354 117.526C270.356 117.647 270.357 117.758 270.359 117.859C270.363 118.072 270.366 118.239 270.361 118.355L270.358 118.422C270.264 119.619 270.302 121.022 270.34 122.43C270.349 122.771 270.358 123.113 270.365 123.451C270.403 125.182 270.392 126.852 270.117 128.197C269.946 128.445 269.601 128.67 269.117 128.876C268.76 129.027 268.389 129.146 268.034 129.26C267.877 129.31 267.723 129.359 267.575 129.41C267.35 129.487 267.116 129.573 266.874 129.663L266.826 129.681C266.338 129.863 265.816 130.056 265.28 130.212C264.511 130.435 263.835 130.538 263.338 130.431C263.219 130.304 263.09 130.168 262.946 130.038C262.943 130.036 262.941 130.034 262.938 130.032C262.932 130.016 262.923 129.991 262.913 129.951C262.888 129.858 262.864 129.726 262.842 129.553C262.799 129.209 262.772 128.745 262.759 128.19C262.731 127.083 262.758 125.654 262.807 124.184C262.857 122.683 262.931 121.129 262.992 119.846L263.003 119.621C263.055 118.517 263.096 117.639 263.1 117.213C263.102 116.982 262.925 116.789 262.695 116.771C262.554 116.759 262.406 116.742 262.246 116.722C262.089 116.703 261.921 116.683 261.752 116.669C261.419 116.643 261.044 116.64 260.686 116.747C260.632 116.763 260.581 116.79 260.537 116.826L260.495 116.864C260.391 116.972 260.33 117.119 260.292 117.223C260.248 117.345 260.208 117.491 260.17 117.651C260.094 117.973 260.021 118.391 259.95 118.868C259.809 119.825 259.673 121.055 259.548 122.308C259.436 123.438 259.334 124.581 259.245 125.569C259.138 126.767 259.052 127.736 258.992 128.178C258.941 128.374 258.86 128.532 258.759 128.698C258.729 128.747 258.691 128.804 258.651 128.867L258.618 128.917C258.541 129.036 258.456 129.17 258.387 129.297C258.142 129.751 257.986 130.299 258.071 131.171C257.036 131.622 256.182 131.763 254.973 131.781L254.966 131.781C254.864 131.784 254.769 131.788 254.677 131.792C254.546 131.797 254.42 131.802 254.285 131.805C254.175 131.807 254.068 131.808 253.962 131.805C253.806 131.801 253.657 131.789 253.514 131.767C253.513 131.755 253.51 131.742 253.509 131.728C253.486 131.556 253.467 131.316 253.453 131.022C253.423 130.436 253.412 129.669 253.408 128.875C253.405 128.132 253.409 127.358 253.413 126.694C253.417 125.954 253.421 125.349 253.412 125.074C253.406 124.877 253.271 124.709 253.08 124.661C253.023 124.646 252.965 124.644 252.91 124.652C252.9 124.057 252.851 123.464 252.714 122.924C252.716 122.847 252.719 122.749 252.723 122.632L252.723 122.623C252.726 122.535 252.729 122.436 252.732 122.329L252.74 122.069C252.759 121.431 252.783 120.584 252.797 119.775C252.808 119.102 252.812 118.44 252.799 117.926C252.793 117.669 252.783 117.442 252.766 117.264C252.757 117.176 252.747 117.092 252.732 117.019C252.722 116.967 252.697 116.848 252.627 116.746C252.56 116.65 252.459 116.584 252.345 116.563L252.295 116.557L252.047 116.539C251.966 116.534 251.888 116.532 251.814 116.537C251.642 116.548 251.49 116.592 251.295 116.663C251.22 116.691 251.154 116.738 251.104 116.8L251.083 116.828C251.004 116.944 250.948 117.091 250.904 117.228C250.858 117.374 250.815 117.548 250.774 117.741C250.693 118.128 250.614 118.621 250.537 119.18C250.398 120.194 250.26 121.456 250.118 122.751L250.075 123.147C249.917 124.584 249.754 126.039 249.577 127.248C249.488 127.852 249.396 128.389 249.301 128.828C249.203 129.275 249.108 129.592 249.023 129.771C249.002 129.814 248.973 129.898 248.948 129.969C248.917 130.055 248.877 130.17 248.832 130.303C248.742 130.568 248.627 130.91 248.514 131.246L248.183 132.236C247.89 132.218 247.577 132.222 247.274 132.228L247.153 132.231C246.743 132.24 246.34 132.248 245.955 132.221C245.097 132.16 244.528 131.936 244.28 131.346C244.092 130.872 244.037 130.339 244.032 129.756C244.03 129.487 244.038 129.214 244.047 128.935L244.049 128.868C244.058 128.568 244.066 128.26 244.059 127.957C244.027 126.549 244.069 125.136 244.112 123.711L244.119 123.478C244.158 122.166 244.195 120.843 244.167 119.521L244.152 118.955C244.124 118.168 243.891 117.604 243.428 117.203C242.996 116.829 242.412 116.643 241.813 116.483C241.691 116.45 241.561 116.471 241.456 116.54C241.364 116.601 241.299 116.694 241.272 116.8L241.263 116.847L241.261 116.867C240.716 120.778 240.398 123.062 240.174 127.044L240.164 127.066C240.159 127.077 240.154 127.088 240.15 127.098L240.129 127.145C240.121 127.162 240.115 127.177 240.108 127.191C240.085 127.241 240.075 127.256 240.071 127.261C240.067 127.268 240.048 127.294 239.867 127.407C239.482 127.649 239.268 128.003 239.139 128.366C239.014 128.719 238.96 129.11 238.916 129.455L238.905 129.544C238.864 129.87 238.828 130.155 238.757 130.408C238.684 130.673 238.584 130.852 238.446 130.97C238.44 130.973 238.423 130.98 238.392 130.989C238.335 131.004 238.256 131.016 238.153 131.024C237.946 131.039 237.685 131.03 237.41 131.003C236.845 130.949 236.311 130.832 236.138 130.763L236.088 130.747L235.991 130.719C235.865 130.682 235.739 130.638 235.601 130.591C235.492 130.553 235.376 130.513 235.247 130.472C234.965 130.382 234.638 130.292 234.317 130.285C234.039 130.215 233.929 130.145 233.66 129.974L233.585 129.927L233.545 129.885L233.546 129.858C233.549 129.793 233.553 129.729 233.557 129.666C233.603 128.986 233.716 128.423 233.864 127.766L234.022 127.07L234.047 126.972C234.208 126.345 234.33 125.867 234.128 125.087L233.993 124.561L234.066 124.241C234.535 122.111 234.818 119.914 234.986 117.756C235.013 117.399 234.852 116.99 234.669 116.682C234.487 116.376 234.201 116.028 233.85 115.887C233.694 115.823 233.517 115.855 233.393 115.965L233.369 115.989C233.229 116.134 233.122 116.335 233.038 116.533C232.95 116.74 232.868 116.985 232.792 117.25C232.641 117.78 232.502 118.425 232.377 119.072C232.273 119.61 232.178 120.158 232.091 120.652C232.074 120.752 232.056 120.851 232.04 120.946C231.951 121.448 231.876 121.861 231.813 122.132L231.787 122.24C231.641 122.808 231.465 123.413 231.284 124.035C230.916 125.294 230.53 126.62 230.334 127.844L230.334 127.847L230.315 127.969C230.305 127.994 230.295 128.019 230.285 128.042C230.279 128.057 230.274 128.071 230.268 128.085C230.237 128.16 230.208 128.233 230.17 128.319C230.112 128.453 230.061 128.556 230.016 128.623C230.006 128.636 229.997 128.649 229.987 128.662C229.982 128.67 229.976 128.678 229.971 128.685L229.924 128.749C229.815 128.9 229.756 128.98 229.685 129.052C229.628 129.109 229.557 129.165 229.416 129.239C229.351 129.227 229.281 129.214 229.207 129.199C229.144 129.185 229.078 129.171 229.01 129.155C228.825 129.112 228.609 129.056 228.385 128.998C228.136 128.934 227.877 128.867 227.643 128.813L227.46 128.773C227.388 128.757 227.317 128.743 227.248 128.731C227.144 128.712 227.042 128.697 226.945 128.686C226.812 128.672 226.663 128.664 226.52 128.68C226.313 128.549 226.071 128.405 225.816 128.332C225.478 128.234 225.123 128.256 224.759 128.468L224.741 128.471C224.717 128.475 224.696 128.478 224.676 128.482C224.67 128.456 224.664 128.431 224.656 128.407C224.616 128.275 224.557 128.163 224.471 128.03C224.403 127.924 224.292 127.853 224.168 127.834L223.922 127.797C223.817 127.781 223.711 127.803 223.622 127.859C223.596 127.789 223.563 127.722 223.522 127.659C223.405 127.479 223.237 127.343 223.125 127.253L223.118 127.248C222.833 127.017 222.807 126.966 222.813 126.884C222.898 125.825 223.027 124.778 223.157 123.721C223.208 123.301 223.26 122.878 223.309 122.453C223.482 120.969 223.622 119.464 223.606 117.93C223.605 117.848 223.608 117.735 223.612 117.601C223.623 117.208 223.639 116.637 223.574 116.149C223.53 115.814 223.442 115.448 223.25 115.156C223.042 114.839 222.714 114.616 222.263 114.615C222.181 114.615 222.102 114.637 222.033 114.679L222.004 114.698C221.681 114.931 221.478 115.334 221.338 115.724C221.192 116.131 221.085 116.611 221.003 117.086C220.898 117.698 220.825 118.372 220.768 118.893C220.74 119.157 220.715 119.383 220.693 119.541C220.506 120.814 220.283 122.083 220.023 123.344L219.962 123.635C219.933 123.645 219.904 123.656 219.876 123.667C219.769 123.708 219.669 123.753 219.576 123.801C219.555 123.813 219.532 123.825 219.508 123.839C219.463 123.864 219.42 123.891 219.379 123.918C218.791 124.314 218.666 124.856 218.629 125.349C218.617 125.498 218.612 125.637 218.608 125.77C218.596 126.096 218.586 126.388 218.485 126.72C218.43 126.899 218.495 127.093 218.647 127.203C218.799 127.313 219.004 127.315 219.158 127.208L219.499 126.969C219.502 126.99 219.507 127.011 219.513 127.031L219.582 127.247C219.615 127.35 219.686 127.437 219.778 127.491C219.742 127.677 219.688 127.925 219.619 128.223C219.548 128.116 219.453 128.018 219.331 127.936C219.149 127.814 218.909 127.845 218.763 128.002L218.735 128.035C218.687 128.099 218.631 128.169 218.572 128.243C218.423 128.43 218.253 128.644 218.127 128.851C217.936 129.163 217.786 129.544 217.846 130C217.855 130.067 217.879 130.131 217.917 130.187C217.953 130.241 217.975 130.278 217.994 130.31L218.004 130.326L218.007 130.331C218.024 130.359 218.07 130.436 218.145 130.499C218.225 130.566 218.311 130.598 218.344 130.61L218.362 130.616L218.394 130.627C218.423 130.638 218.456 130.65 218.503 130.669C218.688 130.743 218.9 130.684 219.019 130.524C219.036 130.501 219.055 130.474 219.075 130.447L219.081 130.438L219.104 130.407C219.01 130.803 218.914 131.211 218.821 131.616C218.594 132.602 218.382 133.585 218.252 134.356C218.188 134.74 218.142 135.083 218.127 135.354C218.119 135.489 218.118 135.619 218.131 135.734C218.14 135.826 218.166 135.997 218.279 136.136C218.325 136.194 218.385 136.237 218.451 136.265L218.45 136.268L218.448 136.272C218.386 136.433 218.344 136.616 218.353 136.831C218.363 137.042 218.421 137.26 218.525 137.496C218.576 137.611 218.673 137.698 218.792 137.737C219.166 137.858 219.479 137.775 219.731 137.619C219.891 137.521 220.053 137.371 220.176 137.258C220.212 137.225 220.245 137.194 220.274 137.169C220.362 137.092 220.415 136.982 220.422 136.865C220.426 136.803 220.462 136.595 220.531 136.267C220.597 135.955 220.683 135.569 220.774 135.181C220.91 134.595 221.052 134.015 221.14 133.674L221.363 133.589C221.579 133.507 221.694 133.271 221.626 133.049L221.605 132.98C221.636 132.905 221.695 132.809 221.795 132.688C221.933 132.521 222.118 132.343 222.331 132.152C222.416 132.077 222.516 131.99 222.617 131.903C222.745 131.791 222.877 131.677 222.987 131.578C223.196 131.388 223.408 131.181 223.563 130.971C223.589 130.935 223.613 130.9 223.635 130.868L223.79 130.958C223.803 131.01 223.814 131.077 223.821 131.163C223.826 131.237 223.828 131.317 223.83 131.407L223.831 131.437C223.832 131.517 223.834 131.605 223.839 131.693C223.859 132.088 223.943 132.629 224.484 132.979C224.584 133.043 224.705 133.065 224.82 133.039C224.935 133.013 225.035 132.941 225.097 132.84C225.229 132.626 225.232 132.381 225.221 132.209C225.228 132.231 225.235 132.252 225.242 132.272C225.268 132.346 225.301 132.417 225.344 132.484L225.376 132.531C225.543 132.758 225.77 132.844 225.967 132.879C226.064 132.897 226.163 132.904 226.245 132.909C226.265 132.91 226.285 132.911 226.303 132.912L226.315 132.913L226.338 132.914C226.39 132.917 226.44 132.921 226.492 132.926C226.588 132.935 226.681 132.95 226.775 132.976C226.981 133.035 227.15 133.096 227.331 133.161C227.453 133.205 227.58 133.251 227.727 133.299C227.827 133.332 227.932 133.364 228.041 133.393C228.116 133.413 228.193 133.43 228.272 133.447C228.573 133.681 228.624 133.812 228.643 133.894C228.659 133.957 228.663 134.029 228.666 134.156L228.667 134.189C228.669 134.305 228.673 134.455 228.695 134.625L228.71 134.717C228.735 134.867 228.777 135.031 228.844 135.211L228.763 135.497C228.484 136.494 228.226 137.497 227.988 138.506C227.858 138.876 227.666 139.655 227.492 140.36L227.472 140.443C227.378 140.825 227.288 141.187 227.212 141.469C227.175 141.61 227.142 141.727 227.115 141.813C227.098 141.865 227.087 141.894 227.083 141.907Z" fill="var(--fill-0, white)"/>
<path d="M208.297 135.297C208.295 135.327 208.294 135.357 208.293 135.388L208.288 135.482L208.288 135.488L208.283 135.592C208.29 135.455 208.296 135.319 208.302 135.181L208.305 135.117C208.303 135.168 208.3 135.219 208.298 135.27L208.297 135.297Z" fill="var(--fill-0, white)"/>
<path d="M208.257 136.154C208.253 136.25 208.249 136.345 208.245 136.441C208.252 136.285 208.259 136.126 208.266 135.967C208.263 136.029 208.26 136.092 208.257 136.154Z" fill="var(--fill-0, white)"/>
<path d="M208.245 136.441C208.249 136.345 208.253 136.25 208.257 136.154C208.26 136.092 208.263 136.029 208.266 135.967C208.259 136.126 208.252 136.285 208.245 136.441Z" fill="var(--fill-0, white)"/>
<path d="M208.297 135.298C208.295 135.328 208.294 135.358 208.293 135.388L208.288 135.482L208.288 135.488L208.283 135.592C208.29 135.455 208.296 135.319 208.302 135.181L208.305 135.117C208.303 135.168 208.3 135.219 208.298 135.27L208.297 135.298Z" fill="var(--fill-0, white)"/>
<path d="M208.257 136.154C208.253 136.25 208.249 136.345 208.245 136.441C208.252 136.285 208.259 136.126 208.266 135.967C208.263 136.029 208.26 136.092 208.257 136.154Z" fill="var(--fill-0, white)"/>
<path d="M208.245 136.441C208.249 136.345 208.253 136.25 208.257 136.154C208.26 136.092 208.263 136.029 208.266 135.967C208.259 136.126 208.252 136.285 208.245 136.441Z" fill="var(--fill-0, white)"/>
<path d="M208.297 135.298C208.295 135.328 208.294 135.358 208.293 135.388L208.288 135.482L208.288 135.488L208.283 135.592C208.29 135.455 208.296 135.319 208.302 135.181L208.305 135.117C208.303 135.168 208.3 135.219 208.298 135.27L208.297 135.298Z" fill="var(--fill-0, white)"/>
<path d="M208.257 136.154C208.253 136.25 208.249 136.345 208.245 136.441C208.252 136.285 208.259 136.126 208.266 135.967C208.263 136.029 208.26 136.092 208.257 136.154Z" fill="var(--fill-0, white)"/>
<path d="M208.245 136.441C208.249 136.345 208.253 136.25 208.257 136.154C208.26 136.092 208.263 136.029 208.266 135.967C208.259 136.126 208.252 136.285 208.245 136.441Z" fill="var(--fill-0, white)"/>
<path d="M211.513 115.472C211.712 115.464 211.871 115.463 212.04 115.481C212.2 115.498 212.353 115.53 212.524 115.566L212.532 115.568L212.712 115.605L212.853 115.72C214.123 116.753 214.456 118.324 214.457 119.794C214.458 121.263 214.125 122.813 213.871 124.003L213.869 124.017L213.866 124.032L213.863 124.044L213.862 124.048C213.862 124.046 213.863 124.045 213.863 124.044V124.043C213.863 124.044 213.862 124.046 213.862 124.048L213.86 124.057C213.859 124.06 213.859 124.062 213.859 124.065C213.858 124.068 213.857 124.07 213.857 124.071C213.857 124.073 213.856 124.074 213.856 124.075C213.856 124.076 213.856 124.076 213.856 124.076L213.855 124.083C213.828 124.21 213.801 124.333 213.776 124.452C213.777 124.478 213.779 124.503 213.779 124.526L213.784 124.648C213.785 124.684 213.787 124.717 213.79 124.748C213.792 124.767 213.794 124.785 213.796 124.8L214.99 125.065L215.037 125.647L215.037 125.651L215.038 125.656L215.038 125.669L215.043 125.717L215.048 125.783V125.784C215.071 126.045 215.107 126.413 215.045 126.794L214.962 127.294L214.467 127.404C214.449 127.408 214.433 127.412 214.41 127.417L214.339 127.433C214.098 127.487 213.884 127.536 213.603 127.552C213.599 127.623 213.594 127.693 213.589 127.764L213.564 128.16L212.985 128.503L212.982 128.505C212.881 128.733 212.82 128.909 212.777 129.082C212.712 129.346 212.678 129.628 212.625 130.124L212.622 130.15L212.617 130.176L212.378 131.511L212.375 131.53L212.37 131.55L212.344 131.661C212.074 132.805 211.88 133.632 211.367 134.78C211.304 135.526 211.211 136.174 210.704 136.919C210.684 137.286 210.639 137.7 210.462 138.071C210.217 138.586 209.781 138.915 209.188 139.13L208.848 139.254L208.54 139.064L208.408 138.983C208.245 138.881 208.036 138.743 207.841 138.588C207.662 138.445 207.425 138.232 207.277 137.963L207.206 137.827C207.183 137.782 207.162 137.736 207.142 137.69C207.128 137.659 207.115 137.628 207.102 137.597L207.101 137.593L207.099 137.589L207.07 137.514L207.066 137.503C207.054 137.473 207.043 137.441 207.032 137.408C206.722 136.506 206.737 135.455 206.852 134.485C206.968 133.502 207.199 132.509 207.386 131.702L207.388 131.695L207.388 131.693C207.39 131.686 207.391 131.679 207.392 131.676L207.396 131.663C207.396 131.659 207.397 131.654 207.398 131.65C207.399 131.648 207.399 131.647 207.399 131.646C207.408 131.608 207.402 131.633 207.41 131.599C207.426 131.529 207.442 131.46 207.458 131.393C207.469 131.342 207.481 131.292 207.492 131.243C207.495 131.229 207.498 131.215 207.501 131.201C207.517 131.13 207.533 131.061 207.547 130.995L207.557 130.947L207.574 130.901L207.618 130.778C207.666 130.635 207.716 130.452 207.747 130.28C207.762 130.194 207.771 130.121 207.774 130.063C207.777 130 207.772 129.981 207.774 129.992L207.766 129.95L207.762 129.908C207.728 129.543 207.763 129.214 207.789 128.958C207.801 128.839 207.81 128.734 207.816 128.634C207.447 128.564 207.119 128.443 206.806 128.266C206.387 128.029 206.025 127.704 205.657 127.352C205.331 127.208 204.91 127.057 204.493 126.908C204.424 126.884 204.356 126.859 204.29 126.836C204.266 126.827 204.243 126.819 204.22 126.81C204.001 126.825 203.768 126.857 203.507 126.893C203.444 126.902 203.374 126.912 203.307 126.921L203.269 126.926L203.231 126.968L203.078 126.952L202.771 126.993L202.734 126.916L202.61 126.904L200.514 126.688L201.655 125.939L201.533 125.836C201.437 125.759 201.415 125.752 201.412 125.751C201.412 125.751 201.409 125.75 201.406 125.75C201.401 125.749 201.39 125.747 201.37 125.746C201.327 125.743 201.257 125.744 201.139 125.752L199.58 125.869L199.78 125.577C199.774 125.576 199.769 125.575 199.763 125.574C199.722 125.619 199.681 125.663 199.64 125.707L199.618 125.732L199.378 125.989L199.027 125.969C198.566 125.942 198.302 125.629 198.185 125.454C198.093 125.318 198.022 125.161 197.972 125.045C197.868 125.078 197.725 125.107 197.552 125.09C197.341 125.069 197.127 124.986 196.927 124.9L196.45 124.698L196.455 124.588L196.333 124.713L195.811 124.345L195.697 124.265C195.647 124.23 195.597 124.195 195.546 124.16C194.987 123.771 194.376 123.35 193.859 122.722C193.716 122.724 193.561 122.724 193.406 122.717C193.239 122.71 193.057 122.696 192.889 122.668C192.743 122.644 192.516 122.597 192.32 122.478L191.242 121.825L192.177 121.278C192.066 121.248 192.024 121.247 192.034 121.246L191.982 121.248L191.929 121.242C191.714 121.219 191.52 121.177 191.336 121.099L191.351 121.287L190.67 121.927L190.372 121.926C189.975 121.925 189.462 121.789 189.04 121.639C188.612 121.487 188.132 121.27 187.816 121.03C187.697 120.939 187.522 120.792 187.418 120.557C187.32 120.337 187.327 120.113 187.326 120.068C187.325 120.025 187.324 119.99 187.321 119.95L187.31 119.788L187.367 119.637C187.566 119.1 187.956 118.729 188.208 118.479L188.369 118.318L188.581 118.1L188.885 118.091C190.043 118.058 190.876 118.199 191.948 118.427C192.581 118.554 193.113 118.689 193.676 118.844L194.255 119.007L194.325 119.027L194.746 119.24L195.079 119.252L195.205 119.305C195.651 119.492 196.095 119.615 196.544 119.738C196.889 119.832 197.266 119.933 197.598 120.069C197.683 120.098 197.776 120.128 197.877 120.16C198.253 120.281 198.763 120.445 199.167 120.625L199.172 120.616L199.767 120.757C199.82 120.769 199.888 120.785 199.968 120.803C200.164 120.846 200.485 120.917 200.709 120.986L200.78 120.916L200.847 121.034L200.857 121.039C201.108 121.15 201.516 121.287 201.934 121.426L202.006 121.45C202.182 121.509 202.357 121.568 202.504 121.621C202.592 121.653 202.693 121.691 202.786 121.732C203.481 121.864 204.883 122.282 205.448 122.499L205.586 122.552L205.653 122.615C205.919 122.608 206.159 122.627 206.401 122.677C206.714 122.743 207.008 122.855 207.313 122.975C207.356 122.987 207.404 123.001 207.454 123.017L207.459 123.018C207.593 123.058 207.742 123.103 207.878 123.14C207.946 123.158 208.005 123.173 208.053 123.183C208.102 123.194 208.123 123.197 208.125 123.197L208.154 123.2L208.183 123.204C208.532 123.263 208.814 123.381 209.053 123.508C209.082 123.451 209.112 123.388 209.143 123.316C209.31 122.931 209.472 122.409 209.628 121.801C209.938 120.588 210.193 119.143 210.395 117.989C210.487 117.469 210.569 117.002 210.64 116.655C210.675 116.483 210.71 116.325 210.746 116.198C210.764 116.135 210.787 116.063 210.815 115.994C210.828 115.964 210.896 115.786 211.061 115.648L211.257 115.483L211.513 115.472Z" fill="var(--fill-0, white)"/>
<path d="M25.92 250.667C37.36 254.987 44.32 265.947 44.32 276.747V279.147H0V223.147H42.8V225.547C42.8 236.907 35.44 246.107 25.92 250.667ZM33.92 230.267H7.84V247.707H12.96C21.92 247.707 32.72 241.307 33.92 230.267ZM7.84 254.587V272.027H35.52C34 262.107 24.56 254.587 14.24 254.587H7.84Z" fill="var(--fill-0, white)"/>
<path d="M101.346 279.147H92.5462L89.5863 271.467L50.2262 280.027C50.0662 278.347 49.9062 276.587 49.9062 274.987C49.9062 257.067 61.3463 242.667 77.1063 239.147L70.9463 223.147H79.7463L101.346 279.147ZM58.6263 270.747L86.9463 264.587L79.9062 246.267C67.4262 248.507 59.1063 258.267 58.6263 270.747Z" fill="var(--fill-0, white)"/>
<path d="M147.602 279.147L129.602 256.187C125.842 257.227 121.922 257.867 117.762 257.947V279.147H109.922V223.147H153.122V225.547C153.122 238.267 146.562 247.867 136.722 253.227L157.362 279.147H147.602ZM117.762 250.667C132.482 250.667 142.802 242.667 144.802 230.107H117.762V250.667Z" fill="var(--fill-0, white)"/>
<path d="M210.409 279.147H201.609L198.649 271.467L159.289 280.027C159.129 278.347 158.969 276.587 158.969 274.987C158.969 257.067 170.409 242.667 186.169 239.147L180.009 223.147H188.809L210.409 279.147ZM167.689 270.747L196.009 264.587L188.969 246.267C176.489 248.507 168.169 258.267 167.689 270.747Z" fill="var(--fill-0, white)"/>
<path d="M259.784 223.147H267.784V279.147H259.784V269.707L226.984 234.027V279.147H218.984V223.147H226.984L259.784 258.907V223.147Z" fill="var(--fill-0, white)"/>
<path d="M317.707 223.147V228.987C317.707 257.787 302.828 279.947 281.628 279.947V272.507C298.188 272.507 309.388 252.747 309.788 230.827H278.188V223.147H317.707Z" fill="var(--fill-0, white)"/>
<path d="M348.605 247.227C359.165 249.707 367.885 253.067 367.885 263.547C367.885 273.307 358.205 279.947 343.325 279.947V272.267C354.205 272.267 359.645 268.827 359.645 263.787C359.645 258.107 354.445 256.987 346.525 254.987C336.205 252.347 324.125 249.707 324.125 233.067C324.125 230.027 324.445 226.747 324.925 223.147H366.125V230.667H332.045C331.885 231.947 331.805 233.147 331.805 234.187C331.805 242.987 338.285 244.827 348.605 247.227Z" fill="var(--fill-0, white)"/>
<path d="M406.521 250.747C417.801 254.747 423.481 266.267 423.481 279.147H415.481C415.481 264.907 407.401 254.667 392.201 254.667H386.121V279.147H378.281V223.147H386.121V247.627H392.201C405.561 247.627 414.361 239.147 414.361 223.147H422.361C422.361 235.547 417.161 246.827 406.521 250.747Z" fill="var(--fill-0, white)"/>
<path d="M471.897 230.667H442.297V247.387H469.497V254.907H442.297V271.627H471.897V279.147H434.297V223.147H471.897V230.667Z" fill="var(--fill-0, white)"/>
<path d="M171.857 330.667C183.297 334.987 190.258 345.947 190.258 356.747V359.147H145.938V303.147H188.738V305.547C188.738 316.907 181.377 326.107 171.857 330.667ZM179.857 310.267H153.777V327.707H158.898C167.858 327.707 178.657 321.307 179.857 310.267ZM153.777 334.587V352.027H181.458C179.938 342.107 170.498 334.587 160.178 334.587H153.777Z" fill="var(--fill-0, white)"/>
<path d="M238.203 303.147H246.203V359.147H236.123C211.563 359.147 197.403 345.867 197.403 322.667V303.147H205.403V322.667C205.403 340.987 216.523 351.467 236.123 351.467H238.203V303.147Z" fill="var(--fill-0, white)"/>
<path d="M282.225 296.747H274.225L263.025 284.747H271.825L278.225 292.107L284.625 284.747H293.425L282.225 296.747ZM281.105 327.227C291.665 329.707 300.385 333.067 300.385 343.547C300.385 353.307 290.705 359.947 275.825 359.947V352.267C286.705 352.267 292.145 348.827 292.145 343.787C292.145 338.107 286.945 336.987 279.025 334.987C268.705 332.347 256.625 329.707 256.625 313.067C256.625 310.027 256.945 306.747 257.425 303.147H298.625V310.667H264.545C264.385 311.947 264.305 313.147 264.305 314.187C264.305 322.987 270.785 324.827 281.105 327.227Z" fill="var(--fill-0, white)"/>
<path d="M348.381 310.667H318.781V327.387H345.981V334.907H318.781V351.627H348.381V359.147H310.781V303.147H348.381V310.667Z" fill="var(--fill-0, white)"/>
</g>
</svg>
