<svg  viewBox="0 0 117.308 149.147" fill="none" xmlns="http://www.w3.org/2000/svg">
<g id="Vector">
<path d="M11.0697 6.959C11.6603 4.8966 12.7307 2.92987 14.6054 1.76466C16.5647 0.546748 19.3828 -0.373974 21.6846 0.150464C22.4365 0.351866 23.7629 0.671036 24.3915 1.09428C25.1093 1.46095 25.8985 1.89679 26.5198 2.41515C27.0172 2.66958 27.9706 3.10597 28.2837 3.51087L28.3625 3.91644C29.8097 5.07502 30.3389 6.60801 30.7481 8.38361C30.8682 9.02206 31.1509 10.3324 31.1373 10.9116C31.1413 11.827 31.2025 12.8517 30.9095 13.7168C30.8771 14.4156 30.325 15.9378 29.8756 16.4575C29.5326 17.1477 29.2334 17.4892 28.7589 18.0837L28.0356 18.7185C27.0986 19.5347 26.0093 20.172 24.8107 20.5173C24.4295 20.6552 23.9953 20.8246 23.6149 20.9465L23.1907 20.9863C22.912 21.1859 20.4642 21.0256 20.0906 20.9108C19.465 20.7334 18.748 20.5546 18.1609 20.2925L17.9901 20.2453C17.2378 19.9429 16.9118 19.8166 16.2163 19.3681L15.9702 19.1806C14.8493 18.4215 14.3276 18.0673 13.4511 17.0242C13.0982 16.7091 12.944 16.416 12.695 16.0161C12.2406 15.5652 11.6436 14.0742 11.3828 13.4515C11.2717 13.2589 11.1251 12.7831 11.0447 12.5508C10.6674 10.8164 10.6663 9.97924 10.8026 8.24507C10.8345 7.94225 10.9982 7.28458 11.0697 6.959Z" fill="var(--fill-0, white)"/>
<path d="M103.856 0.982427C106.043 0.0199429 109.503 -0.237364 111.738 0.646239C114.835 1.87 116.343 3.98588 117.145 7.1408C117.343 7.74876 117.346 9.52757 117.229 10.1385C117.162 10.6563 117.077 11.4976 116.959 11.9805C116.818 12.3998 116.581 13.1824 116.386 13.5402C116.243 13.8309 116.074 14.2398 115.855 14.4587C115.529 15.4222 115.08 15.9003 114.42 16.6619C112.902 18.348 111.24 19.7767 108.881 20.1126C104.779 21.2583 100.784 19.4837 98.5741 15.9052C96.2065 12.0717 97.264 5.22323 101.25 2.87668C101.809 2.04324 102.981 1.42765 103.856 0.982427Z" fill="var(--fill-0, white)"/>
<path d="M20.9866 135.297C20.9852 135.327 20.9839 135.357 20.9825 135.388L20.9781 135.482L20.9778 135.488L20.973 135.592C20.9793 135.455 20.9857 135.319 20.9918 135.181L20.9947 135.117C20.9924 135.168 20.9901 135.219 20.9878 135.27L20.9866 135.297Z" fill="var(--fill-0, white)"/>
<path d="M20.9472 136.154C20.9429 136.25 20.9387 136.345 20.9347 136.441C20.9413 136.285 20.9484 136.126 20.9557 135.967C20.9528 136.029 20.95 136.092 20.9472 136.154Z" fill="var(--fill-0, white)"/>
<path d="M20.9347 136.441C20.9387 136.345 20.9429 136.25 20.9472 136.154C20.95 136.092 20.9528 136.029 20.9557 135.967C20.9484 136.126 20.9413 136.285 20.9347 136.441Z" fill="var(--fill-0, white)"/>
<path d="M20.9866 135.298C20.9852 135.328 20.9839 135.358 20.9825 135.388L20.9781 135.482L20.9778 135.488L20.973 135.592C20.9793 135.455 20.9857 135.319 20.9918 135.181L20.9947 135.117C20.9924 135.168 20.9901 135.219 20.9878 135.27L20.9866 135.298Z" fill="var(--fill-0, white)"/>
<path d="M20.9472 136.154C20.9429 136.25 20.9387 136.345 20.9347 136.441C20.9413 136.285 20.9484 136.126 20.9557 135.967C20.9528 136.029 20.95 136.092 20.9472 136.154Z" fill="var(--fill-0, white)"/>
<path d="M20.9347 136.441C20.9387 136.345 20.9429 136.25 20.9472 136.154C20.95 136.092 20.9528 136.029 20.9557 135.967C20.9484 136.126 20.9413 136.285 20.9347 136.441Z" fill="var(--fill-0, white)"/>
<path d="M20.9866 135.297C20.9852 135.327 20.9839 135.357 20.9825 135.388L20.9781 135.482L20.9778 135.488L20.973 135.592C20.9793 135.455 20.9857 135.319 20.9918 135.181L20.9947 135.117C20.9924 135.168 20.9901 135.219 20.9878 135.27L20.9866 135.297Z" fill="var(--fill-0, white)"/>
<path d="M20.9472 136.154C20.9429 136.25 20.9387 136.345 20.9347 136.441C20.9413 136.285 20.9484 136.126 20.9557 135.967C20.9528 136.029 20.95 136.092 20.9472 136.154Z" fill="var(--fill-0, white)"/>
<path d="M20.9347 136.441C20.9387 136.345 20.9429 136.25 20.9472 136.154C20.95 136.092 20.9528 136.029 20.9557 135.967C20.9484 136.126 20.9413 136.285 20.9347 136.441Z" fill="var(--fill-0, white)"/>
<path d="M63.7405 83.5034C63.3844 81.4894 64.5931 80.8342 64.4357 78.9163C64.4004 78.4877 64.4631 78.2314 64.745 77.9475L64.9205 77.9729C65.0911 78.6114 64.7207 79.1793 64.9 79.5891C65.5846 79.113 65.3458 79.3759 65.7191 78.5054C66.7687 78.4092 67.4617 77.2106 68.1431 77.2338C68.5329 78.1761 69.4194 78.3043 70.074 78.9826C70.3258 79.2434 70.7244 80.0156 70.8898 80.3636C71.2387 81.517 71.6082 81.6695 71.0612 82.7809C71.193 83.2272 71.3324 83.7973 71.5698 84.1817C68.6991 87.2497 65.7991 87.5524 63.7405 83.5034Z" fill="var(--fill-0, white)"/>
<path d="M50.8763 82.9797C50.1738 81.4585 52.0916 79.2047 53.3802 78.5352C54.2938 78.0613 54.4214 78.3397 55.2627 78.6402C55.9765 79.1981 56.3532 79.5052 56.9761 80.1968C55.8814 84.0425 54.3745 86.5206 50.0377 84.638C50.3157 84.0149 50.543 83.5752 50.8763 82.9797Z" fill="var(--fill-0, white)"/>
<path d="M20.9866 135.297C20.9852 135.327 20.9839 135.357 20.9825 135.388L20.9781 135.482L20.9778 135.488L20.973 135.592C20.9793 135.455 20.9857 135.319 20.9918 135.181L20.9947 135.117C20.9924 135.168 20.9901 135.219 20.9878 135.27L20.9866 135.297Z" fill="var(--fill-0, white)"/>
<path d="M20.9472 136.154C20.9429 136.25 20.9387 136.345 20.9347 136.441C20.9413 136.285 20.9484 136.126 20.9557 135.967C20.9528 136.029 20.95 136.092 20.9472 136.154Z" fill="var(--fill-0, white)"/>
<path d="M20.9347 136.441C20.9387 136.345 20.9429 136.25 20.9472 136.154C20.95 136.092 20.9528 136.029 20.9557 135.967C20.9484 136.126 20.9413 136.285 20.9347 136.441Z" fill="var(--fill-0, white)"/>
<path d="M20.9866 135.297C20.9852 135.327 20.9839 135.357 20.9825 135.388L20.9781 135.482L20.9778 135.488L20.973 135.592C20.9793 135.455 20.9857 135.319 20.9918 135.181L20.9947 135.117C20.9924 135.168 20.9901 135.219 20.9878 135.27L20.9866 135.297Z" fill="var(--fill-0, white)"/>
<path d="M20.9472 136.154C20.9429 136.25 20.9387 136.345 20.9347 136.441C20.9413 136.285 20.9484 136.126 20.9557 135.967C20.9528 136.029 20.95 136.092 20.9472 136.154Z" fill="var(--fill-0, white)"/>
<path d="M20.9347 136.441C20.9387 136.345 20.9429 136.25 20.9472 136.154C20.95 136.092 20.9528 136.029 20.9557 135.967C20.9484 136.126 20.9413 136.285 20.9347 136.441Z" fill="var(--fill-0, white)"/>
<path fill-rule="evenodd" clip-rule="evenodd" d="M39.7723 141.907C39.7733 141.906 39.776 141.905 39.777 141.904C39.7759 141.905 39.7734 141.906 39.7723 141.907Z" fill="var(--fill-0, white)"/>
<path fill-rule="evenodd" clip-rule="evenodd" d="M39.7723 141.907C39.7718 141.908 39.772 141.911 39.772 141.912C39.7727 141.911 39.7716 141.908 39.7723 141.907C39.7733 141.906 39.776 141.905 39.777 141.904C39.7764 141.905 39.7733 141.907 39.7723 141.907ZM39.7652 141.924C39.7636 141.926 39.7622 141.929 39.7609 141.932L39.7568 141.94C39.7578 141.938 39.7596 141.934 39.7609 141.932C39.7625 141.928 39.7636 141.926 39.7652 141.924ZM62.181 147.38C62.1815 147.378 62.1824 147.375 62.1829 147.374C62.1823 147.376 62.1817 147.378 62.181 147.38ZM93.2833 128.444C93.2885 128.466 93.2932 128.487 93.2976 128.506C93.2934 128.487 93.2883 128.465 93.2833 128.444Z" fill="var(--fill-0, white)"/>
<path fill-rule="evenodd" clip-rule="evenodd" d="M39.772 141.912C39.7736 141.909 39.7753 141.906 39.777 141.904C39.7758 141.905 39.773 141.907 39.7723 141.907C39.7718 141.908 39.772 141.911 39.772 141.912ZM98.3896 124.134C98.386 124.134 98.3813 124.133 98.3778 124.133C98.3817 124.133 98.3855 124.134 98.3896 124.134ZM39.7609 141.932C39.7618 141.93 39.762 141.929 39.7629 141.928C39.7637 141.926 39.7645 141.925 39.7652 141.924C39.7636 141.926 39.7625 141.928 39.7609 141.932Z" fill="var(--fill-0, white)"/>
<path fill-rule="evenodd" clip-rule="evenodd" d="M39.7723 141.907C39.7733 141.906 39.776 141.905 39.777 141.904C39.7753 141.906 39.7736 141.909 39.772 141.912C39.7716 141.912 39.7703 141.915 39.7703 141.915L39.7652 141.924C39.7636 141.926 39.7625 141.928 39.7609 141.932C39.7596 141.934 39.7578 141.938 39.7568 141.94L39.7552 141.943L39.7377 141.984C39.7065 142.069 39.6705 142.163 39.632 142.264C39.507 142.592 39.3537 142.994 39.24 143.391C39.0945 143.899 38.9804 144.501 39.1202 145.016C39.1304 145.053 39.1455 145.089 39.1651 145.122C39.1657 145.124 39.1669 145.127 39.1685 145.131L39.1712 145.138L39.1735 145.145L39.1754 145.15C39.1863 145.183 39.1995 145.228 39.2144 145.288C39.2441 145.406 39.2752 145.556 39.3052 145.715C39.346 145.932 39.3808 146.143 39.4082 146.309C39.4221 146.394 39.4341 146.467 39.444 146.522C39.4733 146.688 39.5946 146.823 39.7566 146.869C39.9186 146.915 40.0927 146.865 40.2049 146.739C41.3687 145.437 41.6081 144.453 41.9717 142.959C41.9859 142.901 42.0003 142.842 42.0149 142.782C42.0521 142.629 42.005 142.471 41.8951 142.363C41.955 142.238 42.0139 142.075 42.0681 141.909C42.1387 141.694 42.2146 141.433 42.2911 141.157C42.4441 140.604 42.603 139.969 42.7271 139.466L42.9149 138.707L43.0754 138.228L43.0762 138.225C43.4133 137.197 43.6528 136.307 43.8274 135.215C44.0446 135.174 44.1905 135.053 44.2925 134.927C44.3402 134.867 44.3811 134.803 44.4123 134.754C44.416 134.748 44.4199 134.742 44.4235 134.737L44.4296 134.727L44.4349 134.719C44.4882 134.704 44.5318 134.697 44.5689 134.695C44.6009 134.693 44.6331 134.695 44.667 134.698L44.7216 134.706C44.7762 134.715 44.83 134.728 44.9018 134.745L44.9353 134.752C45.049 134.779 45.1929 134.811 45.3635 134.823C45.449 134.829 45.5405 134.83 45.6388 134.824C45.8841 134.809 46.1069 134.743 46.2844 134.591C46.4582 134.442 46.5357 134.256 46.5798 134.118L46.5812 134.114L46.583 134.108C46.5835 134.106 46.5841 134.104 46.5846 134.102C46.5851 134.101 46.5857 134.099 46.5863 134.097L46.5892 134.086L46.592 134.076L46.5943 134.068C46.6244 134.104 46.6586 134.143 46.6987 134.187C46.7498 134.244 46.8146 134.286 46.8868 134.31L46.9885 134.343C47.2884 134.444 47.5347 134.543 47.7472 134.637C47.7848 134.653 47.8219 134.67 47.8584 134.687L48.0401 134.772C48.1414 134.821 48.2355 134.869 48.3288 134.915C48.395 134.949 48.4608 134.982 48.5285 135.015C48.7406 135.12 48.9579 135.22 49.2112 135.302C49.2894 135.327 49.3713 135.351 49.4575 135.373L49.5556 135.397C49.6554 135.419 49.7606 135.44 49.8727 135.457C50.121 135.495 50.4014 135.519 50.73 135.528C50.7962 135.53 50.8643 135.531 50.9337 135.531C51.0459 135.532 51.164 135.531 51.2881 135.529L51.4258 135.584C51.5187 135.62 51.6118 135.656 51.7024 135.69C51.7123 135.694 51.7222 135.697 51.7321 135.701C51.7398 135.704 51.7475 135.707 51.7552 135.71L51.7954 135.724C51.8172 135.732 51.8391 135.74 51.861 135.749C51.9652 136.322 51.9987 136.984 52.0179 137.693C52.0219 137.842 52.0253 137.993 52.0287 138.146C52.0433 138.791 52.0583 139.459 52.1229 140.074L52.1293 140.601C52.1301 140.666 52.1457 140.729 52.1728 140.786C52.0965 140.876 52.0371 140.977 51.9822 141.081C51.9506 141.141 51.9174 141.208 51.8824 141.28C51.8709 141.304 51.8603 141.328 51.8507 141.35C51.8421 141.37 51.8319 141.394 51.8223 141.419C51.813 141.444 51.805 141.467 51.798 141.489L51.7771 141.559C51.7335 141.723 51.7228 141.892 51.7621 142.057C51.7728 142.103 51.7876 142.148 51.8069 142.194L51.809 142.199L51.8107 142.203L51.8125 142.207L51.8158 142.214L51.8188 142.221C51.8206 142.225 51.8227 142.229 51.8248 142.234C51.8286 142.242 51.8328 142.25 51.8367 142.258C51.8594 142.301 51.8848 142.34 51.9109 142.374C51.932 142.403 51.955 142.429 51.9788 142.455C51.9738 142.458 51.9685 142.461 51.9635 142.464L51.8936 142.51C51.5936 142.728 51.4848 143.077 51.4313 143.326C51.4025 143.46 51.3838 143.596 51.3686 143.716L51.3606 143.78C51.3494 143.868 51.3398 143.945 51.3285 144.016C51.1868 144.522 51.0351 145.026 50.8738 145.525C50.8666 145.547 50.8612 145.57 50.8576 145.593C50.8492 145.648 50.8373 145.717 50.8236 145.797C50.7736 146.089 50.6987 146.527 50.6723 146.937C50.6554 147.2 50.6554 147.483 50.7033 147.735C50.7485 147.973 50.8542 148.279 51.1304 148.46C51.2209 148.519 51.3302 148.543 51.4372 148.527C51.778 148.476 52.1066 148.279 52.377 148.047C52.6551 147.808 52.9121 147.499 53.1059 147.162C53.4238 146.609 53.6483 145.819 53.2606 145.178C53.3886 144.912 53.4444 144.678 53.5043 144.427L53.5127 144.392C53.5551 144.343 53.6041 144.286 53.6342 144.241C53.6463 144.223 53.6683 144.189 53.686 144.146C53.7015 144.109 53.7101 144.088 53.7187 144.067L53.7284 144.043C53.7344 144.028 53.7413 144.012 53.7509 143.988L53.82 143.822C53.9024 143.623 53.989 143.414 54.0753 143.202C54.2102 142.871 54.3488 142.524 54.4854 142.167C54.5194 142.078 54.5536 141.988 54.5877 141.897C54.6894 141.625 54.7894 141.347 54.8855 141.065L55.0268 140.64C55.1647 140.212 55.2919 139.777 55.4005 139.341C55.4487 139.147 55.4935 138.953 55.5339 138.759C55.6549 138.177 55.7378 137.594 55.763 137.027C55.7671 136.932 55.7699 136.837 55.7708 136.744C55.7712 136.696 55.7712 136.649 55.7708 136.603C55.7701 136.527 55.7677 136.453 55.7649 136.382L55.7648 136.378C55.7644 136.367 55.7633 136.337 55.7627 136.323C55.7594 136.255 55.755 136.186 55.7496 136.118L55.7705 136.145C55.7729 136.148 55.7753 136.151 55.7777 136.154C55.8208 136.207 55.8492 136.247 55.8661 136.274C55.8623 136.306 55.8603 136.347 55.8655 136.393C55.8772 136.495 55.9191 136.58 55.9703 136.645C56.0477 136.743 56.1578 136.807 56.2227 136.844C56.2516 136.86 56.2834 136.878 56.318 136.896C56.3529 136.914 56.3919 136.934 56.4342 136.955C56.4995 136.988 56.572 137.005 56.6451 137.002C56.7222 137 56.7963 136.996 56.8663 136.987L56.9371 136.976C56.9581 136.972 56.9824 136.967 57.0076 136.961C57.0803 136.943 57.1465 136.918 57.2091 136.888C57.2285 136.878 57.2487 136.868 57.2687 136.856C57.3578 136.805 57.4544 136.732 57.5452 136.663C57.5567 136.654 57.5682 136.645 57.5796 136.636C57.5932 136.626 57.6068 136.616 57.62 136.606C57.695 136.55 57.7501 136.471 57.7775 136.382L57.7786 136.378C57.8723 136.378 57.9639 136.349 58.0397 136.294C58.1287 136.229 58.2368 136.121 58.3147 136.041C58.357 135.998 58.408 135.945 58.4516 135.899L58.483 135.866L58.5418 135.837L58.7315 135.935C58.8622 136.002 59.018 136 59.1467 135.929L59.2233 135.886C59.2762 135.915 59.3242 135.955 59.3871 136.007L59.3949 136.014C59.441 136.052 59.5445 136.139 59.6741 136.184C59.8597 136.249 60.0446 136.219 60.2044 136.125C60.402 136.009 60.5511 135.938 60.661 135.9C60.7023 135.885 60.7342 135.878 60.7577 135.873C60.7619 135.888 60.7668 135.908 60.7711 135.932C60.8052 136.123 60.802 136.412 60.7881 136.832L60.784 136.953C60.7713 137.326 60.7563 137.765 60.7717 138.235C60.7731 138.408 60.7695 138.667 60.7652 138.983C60.7548 139.739 60.7399 140.822 60.7778 141.844C60.8049 142.575 60.8591 143.303 60.9653 143.894C61.0154 144.174 61.08 144.436 61.1643 144.66C61.0166 144.716 60.9117 144.848 60.8876 145.003L60.8837 145.034C60.8296 145.684 60.818 146.307 60.8073 146.906L60.807 146.927C60.7963 147.523 60.7861 148.094 60.7385 148.671C60.7207 148.887 60.863 149.084 61.0737 149.135C61.2845 149.186 61.501 149.075 61.5836 148.875C61.6258 148.773 61.6725 148.662 61.7213 148.546C61.8785 148.173 62.0578 147.747 62.1785 147.388C62.1789 147.387 62.1794 147.385 62.1799 147.384C62.1802 147.383 62.1807 147.381 62.181 147.38L62.1829 147.374L62.3236 146.902C62.3629 146.77 62.3385 146.628 62.2576 146.517L62.1913 146.426C62.2202 146.407 62.2549 146.387 62.298 146.365L62.3153 146.356C62.3794 146.323 62.5035 146.258 62.6026 146.162C62.7398 146.028 62.8194 145.851 62.8257 145.638C62.8316 145.442 62.7068 145.266 62.5198 145.206C62.5033 145.201 62.4877 145.196 62.472 145.191L62.4042 145.17C62.4639 145.098 62.5007 145.006 62.5042 144.907C62.5058 144.863 62.5065 144.821 62.5074 144.78L62.5081 144.747C62.557 144.755 62.6068 144.755 62.6555 144.746C62.736 144.739 62.8149 144.709 62.8823 144.657L62.9419 144.611C63.0542 144.523 63.113 144.392 63.1119 144.259C63.1476 144.164 63.1754 144.072 63.1949 143.975C63.2241 143.829 63.2338 143.684 63.242 143.526C63.2433 143.521 63.2446 143.517 63.246 143.512C63.2475 143.507 63.2491 143.502 63.2504 143.497L63.2693 143.415C63.3422 143.066 63.3238 142.666 63.3089 142.341C63.3062 142.282 63.3036 142.226 63.3016 142.172C63.2859 141.736 63.3101 141.477 63.4059 141.327C63.6129 141.002 63.7416 140.669 63.8525 140.369C63.8632 140.34 63.8743 140.31 63.8847 140.282C63.9854 140.008 64.0749 139.765 64.2047 139.526C64.2782 139.39 64.3523 139.312 64.4559 139.201L64.4856 139.17C64.6112 139.035 64.7625 138.864 64.8656 138.576C64.9384 138.373 64.8534 138.147 64.6647 138.043L64.5031 137.953C64.4264 137.911 64.3405 137.894 64.2562 137.9C64.292 137.722 64.3305 137.539 64.3738 137.358C64.4622 136.989 64.5624 136.656 64.6742 136.4C64.7446 136.397 64.8202 136.394 64.9002 136.392C65.0788 136.388 65.2735 136.388 65.4736 136.389L65.489 136.39C65.542 136.39 65.5928 136.39 65.6425 136.391C65.6782 136.391 65.7134 136.391 65.7482 136.392L65.784 136.392L65.9249 136.393L66.0033 136.394L66.0718 136.394C66.169 136.395 66.2649 136.395 66.3569 136.395H66.361L66.6177 136.391C66.6825 136.391 66.7464 136.376 66.8046 136.347C66.838 136.331 66.8729 136.315 66.9088 136.299C67.2274 136.157 67.5861 136.056 67.9857 135.971C68.0739 135.953 68.1641 135.935 68.256 135.917C68.4722 135.877 68.701 135.839 68.9387 135.799L69.0102 135.787C69.0864 135.775 69.1634 135.762 69.2412 135.749C69.8865 135.64 70.5833 135.509 71.2634 135.275C71.2695 135.418 71.2758 135.568 71.2814 135.72L71.2925 136.026C71.3113 136.555 71.3297 137.068 71.3558 137.359C71.3595 137.4 71.3643 137.44 71.3689 137.477L71.3767 137.845C71.3979 139.079 71.378 140.376 71.3583 141.66L71.355 141.873C71.3452 142.515 71.336 143.152 71.3327 143.775C71.3294 143.79 71.326 143.804 71.3229 143.819C71.316 143.852 71.3096 143.886 71.304 143.918C71.2749 144.085 71.258 144.261 71.253 144.441C71.249 144.584 71.2528 144.731 71.2644 144.879C71.3229 145.622 71.5951 146.494 72.2371 146.969C72.2992 147.015 72.3724 147.044 72.4492 147.053C72.584 147.068 72.7148 147.069 72.8406 147.053C72.9246 147.043 73.0056 147.026 73.0828 147.002C73.5931 146.844 73.8805 146.428 74.0778 146.097C74.1293 146.011 74.1788 145.922 74.2252 145.84C74.2725 145.755 74.3168 145.676 74.3623 145.599C74.4538 145.445 74.5394 145.319 74.632 145.22C74.6392 145.212 74.6466 145.204 74.6539 145.197C74.6568 145.194 74.6596 145.191 74.6625 145.188C74.6664 145.184 74.6702 145.181 74.674 145.177C74.7619 145.093 74.811 144.976 74.8095 144.854L74.8075 144.718C74.8081 144.689 74.8079 144.599 74.7755 144.511C74.7357 144.403 74.6634 144.33 74.6445 144.312C74.7644 144.075 74.8162 143.848 74.8392 143.632L74.8396 143.627C74.8397 143.624 74.8399 143.622 74.8401 143.619C74.9581 143.596 75.065 143.525 75.131 143.417C75.1444 143.395 75.1563 143.374 75.1664 143.356C75.3408 143.041 75.4093 142.676 75.4283 142.322C75.4475 141.965 75.4176 141.588 75.372 141.229C75.3483 141.042 75.3197 140.856 75.2907 140.677C75.2717 140.561 75.2523 140.445 75.2343 140.338C75.1772 139.999 75.1282 139.708 75.1093 139.47L75.102 139.342L75.099 139.22L75.0978 139.083C75.0986 138.729 75.122 138.269 75.148 137.791L75.1559 137.646C75.177 137.259 75.1978 136.867 75.2068 136.535C75.2358 136.479 75.2774 136.409 75.3311 136.321L75.3337 136.316C75.3669 136.261 75.4043 136.199 75.4361 136.141C75.4658 136.086 75.5068 136.006 75.5311 135.922C75.5683 135.793 75.6047 135.668 75.6406 135.545C75.7393 135.207 75.8365 134.886 75.9502 134.546C76.0207 134.48 76.1071 134.415 76.2096 134.349C76.2768 134.306 76.3501 134.264 76.4286 134.223C76.9523 133.95 77.666 133.743 78.4083 133.562C78.6355 133.506 78.8682 133.453 79.0967 133.4C79.5858 133.287 80.056 133.179 80.4142 133.066C80.7212 132.969 80.9907 132.877 81.2436 132.791C81.7735 132.612 82.2307 132.456 82.809 132.325C82.9466 132.572 83.0868 132.797 83.2334 133.025C83.2754 133.09 83.3196 133.158 83.3638 133.226L83.3797 133.25C83.3982 133.553 83.4289 133.967 83.4622 134.414L83.4624 134.417C83.529 135.312 83.6065 136.353 83.6215 136.982L83.6243 137.165L83.6221 137.313C83.5971 137.782 83.7046 138.148 83.7863 138.426L83.7954 138.457C83.8814 138.751 83.9174 138.91 83.877 139.092C83.8757 139.098 83.8742 139.104 83.8724 139.111C83.8709 139.117 83.8693 139.123 83.8675 139.129C83.8184 139.306 83.8844 139.495 84.033 139.603C84.0627 139.624 84.0937 139.644 84.1258 139.661C84.3856 139.802 84.6563 139.773 84.8637 139.704C85.0696 139.635 85.2607 139.514 85.4195 139.392C85.7372 139.146 86.0169 138.824 86.1548 138.62C86.5792 137.996 86.4474 137.393 86.3435 136.917C86.3268 136.841 86.3109 136.768 86.2981 136.698L86.2203 136.175C86.2471 136.13 86.2767 136.08 86.3045 136.029C86.3373 135.969 86.3723 135.902 86.4003 135.839C86.4142 135.809 86.4296 135.772 86.4421 135.734C86.4512 135.706 86.4735 135.636 86.4733 135.552C86.4716 134.842 86.6669 134.147 86.8808 133.385L86.8879 133.36C87.0714 132.706 87.2679 131.999 87.2931 131.266C87.3701 131.267 87.4477 131.25 87.5176 131.211C87.8834 131.006 88.1525 130.934 88.3962 130.891C88.4717 130.878 88.5447 130.868 88.6244 130.857L88.6572 130.852C89.0395 130.798 89.4547 130.732 90.0055 130.36L90.0083 130.358L90.1109 130.287L90.117 130.283C90.1199 130.281 90.1228 130.279 90.1256 130.277C90.1314 130.273 90.1371 130.268 90.1426 130.263C90.2232 130.197 90.3763 130.106 90.6093 129.987C90.7316 129.924 90.8565 129.863 90.9891 129.798L91.0107 129.788C91.1259 129.731 91.2475 129.672 91.3781 129.606C91.9097 129.34 92.5514 128.994 92.9206 128.563C93.025 128.441 93.0549 128.272 92.9983 128.122C92.9784 128.069 92.9482 128.022 92.9114 127.981C92.9593 127.946 93.0057 127.915 93.0499 127.886L93.2717 128.394L93.2833 128.444C93.2934 128.487 93.3022 128.526 93.3093 128.558C93.3367 128.687 93.3429 128.741 93.3352 128.977V128.98C93.3168 129.716 93.3571 130.595 93.5297 131.445C93.7012 132.289 94.0111 133.142 94.5584 133.79C94.7024 133.96 94.8962 134.058 95.0716 134.116C95.2512 134.175 95.445 134.201 95.6284 134.206C95.9694 134.215 96.3823 134.15 96.6599 133.962L96.7983 133.87C96.8425 133.841 96.881 133.804 96.912 133.761C96.9722 133.677 97.0386 133.583 97.0998 133.477C97.2598 133.203 97.37 132.772 97.4537 132.308C97.5408 131.826 97.6094 131.246 97.6618 130.63C97.6705 130.527 97.679 130.423 97.6869 130.317C97.7615 129.321 97.7967 128.241 97.795 127.31C97.7934 126.391 97.756 125.581 97.6766 125.145C97.6538 125.02 97.6709 124.986 97.6777 124.973C97.6872 124.953 97.7043 124.925 97.7435 124.872C97.7528 124.859 97.7675 124.84 97.7849 124.817C97.8184 124.773 97.8618 124.715 97.8959 124.668C97.917 124.639 97.9344 124.607 97.9477 124.573L98.041 124.337C98.1728 124.22 98.2566 124.169 98.3043 124.147C98.3433 124.13 98.3593 124.131 98.3737 124.132C98.383 124.133 98.3914 124.134 98.4026 124.136C98.4108 124.137 98.4204 124.139 98.433 124.141L98.4601 124.145C98.5025 124.152 98.5678 124.161 98.6429 124.162C98.8127 124.163 98.9836 124.118 99.1667 124.007C99.2553 123.953 99.3218 123.869 99.3548 123.771C99.4134 123.596 99.4364 123.438 99.4297 123.288C99.4231 123.14 99.3883 123.023 99.3615 122.941L99.3448 122.89C99.3799 122.882 99.409 122.881 99.4387 122.881C99.4444 122.881 99.4507 122.881 99.4578 122.881C99.4695 122.882 99.4831 122.882 99.4983 122.883C99.6156 122.888 99.8314 122.898 100.072 122.834C100.236 122.79 100.337 122.676 100.38 122.624C100.433 122.558 100.477 122.484 100.513 122.417C100.586 122.282 100.656 122.114 100.719 121.954C100.757 121.856 100.793 121.761 100.826 121.671C100.922 121.785 101.062 121.921 101.264 122C101.509 122.096 101.776 122.084 102.058 121.984C102.174 121.942 102.264 121.855 102.312 121.746C102.468 121.665 102.566 121.493 102.545 121.309C102.534 121.206 102.488 121.115 102.42 121.047C102.458 121.037 102.498 121.026 102.537 121.013C102.592 120.994 102.643 120.964 102.686 120.926C102.749 120.871 102.81 120.822 102.876 120.769L102.883 120.764C102.948 120.712 103.025 120.651 103.095 120.584C103.149 120.533 103.203 120.475 103.252 120.41C103.262 120.469 103.285 120.526 103.32 120.578C103.435 120.749 103.653 120.818 103.845 120.743C104.15 120.623 104.526 120.36 104.847 120.103C105.176 119.838 105.5 119.536 105.698 119.3C105.799 119.178 105.882 119.067 105.945 118.983C105.962 118.96 105.978 118.938 105.993 118.92C106.025 118.877 106.047 118.85 106.062 118.833C106.082 118.837 106.107 118.844 106.141 118.856C106.203 118.988 106.328 119.082 106.474 119.104C106.637 119.127 106.8 119.058 106.896 118.924L106.975 118.813C107.093 118.649 107.084 118.426 106.953 118.272C106.838 118.136 106.824 118.064 106.812 118.002L106.81 117.99L106.806 117.971C106.786 117.86 106.749 117.65 106.557 117.444C106.544 117.431 106.531 117.419 106.517 117.407C106.69 117.34 106.885 117.272 107.089 117.209C107.34 117.131 107.583 117.067 107.793 117.022C107.798 117.11 107.817 117.199 107.851 117.286C107.936 117.508 108.183 117.622 108.408 117.543L108.427 117.536L108.433 117.534L108.437 117.533L108.472 117.521C108.579 117.484 108.691 117.445 108.788 117.392C108.924 117.318 109.026 117.221 109.141 117.104C109.281 116.96 109.306 116.74 109.202 116.568C109.095 116.393 108.948 116.286 108.817 116.216C108.772 116.192 108.726 116.171 108.681 116.153L108.698 116.15C108.808 116.13 108.916 116.117 109.036 116.102C109.082 116.096 109.13 116.09 109.181 116.084C109.349 116.061 109.54 116.033 109.721 115.979C109.893 115.927 110.038 115.861 110.156 115.804C110.19 115.787 110.223 115.77 110.251 115.757L110.278 115.743C110.339 115.713 110.388 115.689 110.44 115.668C110.511 115.64 110.559 115.629 110.602 115.629C110.605 115.628 110.608 115.629 110.611 115.629L110.615 115.629L110.616 115.632C110.621 115.647 110.625 115.662 110.63 115.676C110.665 115.778 110.709 115.869 110.774 115.991C110.833 116.101 110.936 116.181 111.058 116.21C111.179 116.24 111.308 116.216 111.411 116.145L111.52 116.07C111.632 115.994 111.702 115.87 111.71 115.735C111.712 115.702 111.715 115.668 111.717 115.635L111.718 115.625C111.727 115.483 111.736 115.348 111.731 115.217C111.725 115.036 111.694 114.863 111.63 114.639C111.596 114.522 111.515 114.424 111.407 114.369C111.227 114.277 111.027 114.246 110.841 114.241C110.652 114.235 110.448 114.256 110.243 114.292C109.834 114.363 109.374 114.501 108.93 114.659C108.051 114.972 107.175 115.387 106.748 115.605C106.051 115.897 105.396 116.271 104.761 116.635L104.734 116.65C104.097 117.015 103.477 117.37 102.816 117.657L102.779 117.676L102.262 117.961L101.445 118.385C101.09 118.526 100.732 118.718 100.396 118.909C100.283 118.974 100.173 119.037 100.065 119.099C99.8355 119.232 99.6167 119.358 99.3999 119.472C98.8799 119.746 98.447 119.922 97.9506 120.124C97.8042 120.184 97.6518 120.246 97.4905 120.313C97.4458 120.299 97.4156 120.281 97.3935 120.262C97.3549 120.229 97.311 120.171 97.2723 120.065C97.1896 119.838 97.1649 119.496 97.1781 119.052C97.1858 118.794 97.2034 118.546 97.2215 118.292C97.2353 118.098 97.2495 117.898 97.2598 117.687C97.2811 117.245 97.2832 116.769 97.1695 116.391C97.0755 116.08 97.0363 115.779 97.0126 115.491C97.0078 115.432 97.0034 115.37 96.9992 115.307L96.9953 115.248C96.9819 115.046 96.9678 114.833 96.9388 114.659C96.8958 114.4 96.8043 114.092 96.5361 113.872C96.2702 113.655 95.9191 113.596 95.5297 113.613C95.5005 113.614 95.4708 113.616 95.4408 113.618C95.2119 113.634 94.9491 113.676 94.6476 113.741C94.1338 113.759 93.7054 113.886 93.3625 114.123C93.0091 114.367 92.7819 114.703 92.6392 115.068C92.3637 115.773 92.3829 116.648 92.4263 117.379C92.4564 117.885 92.5026 118.378 92.5481 118.862C92.6272 119.705 92.7042 120.525 92.6907 121.357L92.6907 121.36L92.6907 121.364C92.6908 121.453 92.6899 121.565 92.689 121.687C92.6872 121.909 92.6852 122.172 92.6879 122.422C92.6916 122.752 92.7036 123.109 92.742 123.385C92.7271 123.423 92.7136 123.458 92.7023 123.487L92.6915 123.514C92.6848 123.532 92.6791 123.546 92.6748 123.557L92.6738 123.559L92.6708 123.567L92.6694 123.57L92.668 123.573C92.6661 123.577 92.6643 123.581 92.6628 123.584L92.6609 123.589L92.6592 123.592L92.6558 123.595L92.6483 123.601L92.6446 123.604C92.6431 123.605 92.6414 123.607 92.6397 123.608C92.6372 123.61 92.6345 123.612 92.6317 123.614C92.6071 123.632 92.577 123.653 92.5336 123.683C92.4915 123.713 92.4402 123.749 92.3795 123.792L92.3725 123.797C91.7831 124.24 90.9159 124.712 89.9933 125.179C89.649 125.353 89.295 125.527 88.949 125.698C88.3871 125.975 87.8458 126.241 87.4 126.481C87.2394 126.567 87.1117 126.665 87.0122 126.745C86.8106 125.538 86.6808 124.379 86.5431 123.15L86.5157 122.905C86.4894 122.671 86.4598 122.319 86.4256 121.911C86.3999 121.605 86.3716 121.268 86.3401 120.927C86.2697 120.163 86.1817 119.351 86.0673 118.945C86.0597 118.918 86.0508 118.889 86.0409 118.86C85.9749 118.665 85.7828 118.542 85.5783 118.564C85.5484 118.567 85.5193 118.573 85.4914 118.582C85.4492 118.302 85.4292 118.017 85.4134 117.72C85.4105 117.666 85.4076 117.609 85.4048 117.553C85.3867 117.195 85.3674 116.813 85.3081 116.443C85.2855 116.305 85.2092 116.214 85.1565 116.166C85.126 116.138 85.0949 116.117 85.0676 116.101C85.0776 116.076 85.0886 116.05 85.1004 116.022C85.1286 115.956 85.1615 115.88 85.1969 115.772C85.2473 115.619 85.2801 115.432 85.2253 115.21C85.1743 115.003 85.0571 114.807 84.8932 114.607C84.8465 114.55 84.7863 114.506 84.7182 114.478L84.6887 114.467L84.5959 114.441C84.3793 114.387 84.1599 114.389 83.9525 114.471C83.7195 114.564 83.5551 114.735 83.4412 114.917C83.2243 115.264 83.1328 115.741 83.0879 116.179C83.0415 116.633 83.0392 117.119 83.0439 117.526C83.0453 117.647 83.0472 117.758 83.0489 117.859C83.0525 118.072 83.0554 118.239 83.0511 118.355L83.0472 118.422C82.9536 119.619 82.9914 121.022 83.0293 122.43C83.0385 122.771 83.0477 123.113 83.055 123.451C83.0925 125.182 83.0813 126.852 82.8068 128.197C82.6354 128.445 82.2909 128.67 81.8065 128.876C81.4499 129.027 81.0792 129.146 80.7234 129.26C80.5667 129.31 80.4127 129.359 80.2643 129.41C80.0402 129.487 79.8061 129.573 79.5639 129.663L79.5161 129.681C79.0274 129.863 78.5061 130.056 77.9694 130.212C77.2007 130.435 76.5244 130.538 76.0279 130.431C75.9083 130.304 75.7794 130.168 75.6353 130.038C75.6329 130.036 75.6305 130.034 75.6281 130.032C75.6222 130.016 75.613 129.991 75.6025 129.951C75.5775 129.858 75.5534 129.726 75.532 129.553C75.4892 129.209 75.462 128.745 75.4484 128.19C75.4211 127.083 75.448 125.654 75.4971 124.184C75.5473 122.683 75.6211 121.129 75.682 119.846L75.6927 119.621C75.7451 118.517 75.7858 117.639 75.7894 117.213C75.7914 116.982 75.6146 116.789 75.3846 116.771C75.2434 116.759 75.0961 116.742 74.936 116.722C74.7792 116.703 74.6106 116.683 74.4419 116.669C74.1089 116.643 73.7334 116.64 73.3762 116.747C73.3216 116.763 73.271 116.79 73.2268 116.826L73.185 116.864C73.0809 116.972 73.0197 117.119 72.9816 117.223C72.9375 117.345 72.8973 117.491 72.8596 117.651C72.7839 117.973 72.7106 118.391 72.64 118.868C72.4985 119.825 72.3623 121.055 72.238 122.308C72.1258 123.438 72.0235 124.581 71.9351 125.569C71.828 126.767 71.7413 127.736 71.6821 128.178C71.6305 128.374 71.5502 128.532 71.4483 128.698C71.4184 128.747 71.3811 128.804 71.3403 128.867L71.3078 128.917C71.2306 129.036 71.1454 129.17 71.0763 129.297C70.8313 129.751 70.6761 130.299 70.7609 131.171C69.7258 131.622 68.8714 131.763 67.6628 131.781L67.6556 131.781C67.554 131.784 67.4592 131.788 67.3666 131.792C67.2358 131.797 67.1093 131.802 66.9743 131.805C66.865 131.807 66.7574 131.808 66.6519 131.805C66.4954 131.801 66.3464 131.789 66.2042 131.767C66.2024 131.755 66.2001 131.742 66.1983 131.728C66.1756 131.556 66.157 131.316 66.1423 131.022C66.113 130.436 66.1014 129.67 66.098 128.875C66.0949 128.132 66.0992 127.358 66.1029 126.694C66.1071 125.954 66.1104 125.349 66.1019 125.074C66.0958 124.877 65.9604 124.709 65.7701 124.661C65.713 124.646 65.6552 124.644 65.5995 124.652C65.59 124.057 65.5408 123.464 65.4042 122.924C65.4061 122.847 65.4089 122.749 65.4124 122.632L65.4127 122.623C65.4153 122.535 65.4183 122.436 65.4216 122.329L65.4294 122.069C65.4486 121.431 65.4729 120.584 65.4864 119.775C65.4976 119.102 65.5018 118.44 65.4892 117.926C65.4829 117.669 65.4724 117.442 65.4555 117.264C65.4471 117.176 65.4364 117.092 65.4218 117.019C65.4115 116.967 65.3869 116.848 65.3167 116.746C65.2502 116.65 65.1483 116.584 65.0345 116.563L64.9849 116.557L64.7366 116.539C64.656 116.534 64.5781 116.532 64.5039 116.537C64.3315 116.548 64.1796 116.592 63.9851 116.663C63.9098 116.691 63.8435 116.738 63.7934 116.8L63.7731 116.828C63.6937 116.944 63.6372 117.091 63.5939 117.228C63.5479 117.374 63.5049 117.548 63.4641 117.741C63.3824 118.128 63.3038 118.621 63.227 119.18C63.0874 120.194 62.9494 121.456 62.8078 122.751L62.7644 123.147C62.607 124.584 62.444 126.039 62.2662 127.248C62.1774 127.852 62.0857 128.389 61.9904 128.828C61.8932 129.275 61.798 129.592 61.7123 129.771C61.6922 129.814 61.6625 129.898 61.6374 129.969C61.607 130.055 61.5672 130.17 61.522 130.303C61.4315 130.568 61.3167 130.91 61.2041 131.246L60.8725 132.236C60.5796 132.218 60.2671 132.222 59.9639 132.228L59.8432 132.231C59.4331 132.24 59.0297 132.248 58.6449 132.221C57.7867 132.16 57.2173 131.936 56.97 131.346C56.782 130.872 56.7268 130.339 56.7217 129.756C56.7194 129.487 56.7278 129.214 56.7364 128.935L56.7384 128.868C56.7476 128.568 56.756 128.26 56.749 127.957C56.7166 126.549 56.7591 125.136 56.802 123.711L56.8089 123.478C56.8482 122.166 56.8843 120.843 56.8571 119.521L56.8415 118.955C56.8138 118.168 56.5804 117.604 56.1177 117.203C55.6861 116.829 55.1013 116.643 54.503 116.483C54.3812 116.45 54.2512 116.471 54.146 116.54C54.054 116.601 53.9887 116.694 53.9622 116.8L53.9532 116.847L53.9504 116.867C53.4059 120.778 53.0879 123.062 52.8635 127.044L52.8537 127.066C52.8486 127.077 52.8438 127.088 52.8393 127.098L52.8186 127.145C52.8111 127.162 52.8044 127.177 52.798 127.191C52.7748 127.241 52.7649 127.256 52.7609 127.261C52.7564 127.268 52.7378 127.294 52.557 127.407C52.1721 127.649 51.9573 128.003 51.8287 128.366C51.7035 128.719 51.6498 129.11 51.606 129.455L51.5948 129.544C51.5536 129.87 51.5177 130.155 51.4472 130.408C51.3733 130.673 51.2734 130.852 51.1357 130.97C51.1294 130.973 51.1129 130.98 51.0814 130.989C51.0252 131.004 50.9457 131.016 50.8423 131.024C50.6354 131.039 50.3751 131.03 50.0995 131.003C49.535 130.949 49.001 130.832 48.8275 130.763L48.7782 130.747L48.6809 130.719C48.5548 130.682 48.4286 130.638 48.2912 130.591C48.182 130.553 48.0656 130.513 47.9367 130.472C47.6552 130.382 47.3276 130.292 47.0066 130.285C46.7283 130.215 46.6184 130.145 46.3494 129.974L46.2749 129.927L46.2345 129.885L46.2354 129.858C46.2385 129.793 46.2425 129.729 46.2468 129.666C46.2931 128.986 46.4057 128.423 46.5536 127.766L46.7121 127.07L46.7372 126.972C46.8976 126.345 47.02 125.867 46.8177 125.087L46.6826 124.561L46.7553 124.241C47.2249 122.111 47.5081 119.914 47.6754 117.756C47.7029 117.399 47.5416 116.99 47.3588 116.682C47.1769 116.376 46.8904 116.028 46.5399 115.887C46.3841 115.823 46.2069 115.855 46.0827 115.965L46.0587 115.989C45.9183 116.134 45.8119 116.335 45.7277 116.533C45.6396 116.74 45.5581 116.985 45.4822 117.25C45.3305 117.78 45.1919 118.425 45.0671 119.072C44.9632 119.61 44.8673 120.158 44.7809 120.652C44.7634 120.752 44.7461 120.851 44.7294 120.946C44.6412 121.448 44.5659 121.861 44.5031 122.132L44.4772 122.24C44.3309 122.808 44.1545 123.413 43.9733 124.035C43.6062 125.294 43.2196 126.62 43.0239 127.844L43.0236 127.847L43.0049 127.969C42.9946 127.994 42.9847 128.019 42.975 128.042C42.9691 128.057 42.9633 128.071 42.9575 128.085C42.9271 128.16 42.8973 128.233 42.86 128.319C42.8022 128.453 42.7508 128.556 42.7062 128.623C42.6962 128.636 42.6865 128.65 42.6771 128.662C42.6714 128.67 42.6659 128.678 42.6604 128.685L42.6138 128.749C42.5043 128.9 42.4458 128.98 42.3749 129.052C42.3176 129.109 42.2463 129.165 42.106 129.239C42.041 129.227 41.9709 129.215 41.8965 129.199C41.8335 129.185 41.7675 129.171 41.6995 129.155C41.5152 129.112 41.2987 129.056 41.075 128.998C40.8253 128.934 40.5666 128.867 40.3331 128.813L40.1498 128.773C40.0776 128.757 40.0065 128.743 39.9374 128.731C39.8338 128.712 39.7318 128.697 39.6346 128.686C39.5018 128.672 39.3529 128.663 39.2102 128.68C39.0028 128.549 38.7604 128.405 38.5061 128.332C38.1677 128.234 37.8123 128.256 37.449 128.468L37.4309 128.471C37.4072 128.475 37.3856 128.478 37.3659 128.482C37.3599 128.456 37.3535 128.431 37.3462 128.407C37.3061 128.275 37.2468 128.163 37.1609 128.03C37.0925 127.924 36.9822 127.853 36.858 127.834L36.6114 127.797C36.507 127.781 36.4007 127.803 36.3116 127.859C36.2859 127.789 36.2523 127.722 36.2118 127.659C36.0951 127.48 35.9267 127.343 35.8152 127.253L35.8078 127.248C35.5224 127.017 35.4963 126.966 35.5027 126.884C35.5882 125.825 35.7167 124.778 35.8464 123.721C35.898 123.301 35.9499 122.878 35.9992 122.453C36.1716 120.969 36.312 119.464 36.2957 117.93C36.2948 117.848 36.298 117.735 36.3018 117.601C36.3127 117.208 36.3287 116.637 36.2639 116.149C36.2195 115.814 36.1316 115.448 35.9402 115.156C35.7322 114.839 35.4037 114.616 34.9524 114.615C34.8711 114.615 34.7916 114.637 34.7226 114.679L34.6936 114.698C34.3711 114.931 34.1679 115.334 34.0279 115.724C33.8815 116.131 33.7749 116.611 33.693 117.086C33.5878 117.698 33.5146 118.372 33.458 118.893C33.4293 119.157 33.4048 119.383 33.3826 119.541C33.1958 120.814 32.9723 122.083 32.7128 123.344L32.6515 123.635C32.6225 123.645 32.5941 123.656 32.5662 123.667C32.4587 123.708 32.3583 123.753 32.2658 123.801C32.2447 123.813 32.2215 123.825 32.1979 123.839C32.1531 123.864 32.1099 123.891 32.0689 123.918C31.4805 124.314 31.3562 124.856 31.3185 125.349C31.3071 125.498 31.3021 125.637 31.2974 125.77C31.2857 126.096 31.2753 126.388 31.1744 126.72C31.12 126.899 31.1852 127.093 31.3369 127.203C31.4887 127.313 31.6936 127.315 31.8473 127.208L32.1884 126.969C32.1919 126.99 32.1963 127.011 32.2029 127.031L32.272 127.247C32.3052 127.35 32.3755 127.437 32.4681 127.491C32.4314 127.677 32.3773 127.925 32.309 128.223C32.2378 128.116 32.1427 128.018 32.0204 127.936C31.8391 127.814 31.5985 127.845 31.4531 128.002L31.4252 128.035C31.3767 128.099 31.3209 128.169 31.2619 128.243C31.1127 128.43 30.9426 128.644 30.8164 128.851C30.6258 129.163 30.4759 129.544 30.5358 130C30.5446 130.067 30.5688 130.131 30.6063 130.187C30.6424 130.241 30.6646 130.278 30.684 130.31L30.6941 130.326L30.6971 130.331C30.7138 130.359 30.7601 130.436 30.8348 130.499C30.9143 130.566 31.001 130.598 31.0341 130.61L31.0515 130.616L31.0835 130.627C31.1129 130.638 31.1462 130.65 31.1926 130.669C31.3776 130.743 31.5895 130.684 31.7089 130.524C31.7261 130.501 31.745 130.474 31.765 130.447L31.7712 130.438L31.7933 130.407C31.6994 130.803 31.6036 131.211 31.5107 131.616C31.2842 132.602 31.0716 133.585 30.9421 134.356C30.8776 134.74 30.8316 135.083 30.8164 135.354C30.8089 135.489 30.808 135.619 30.8203 135.734C30.8301 135.826 30.8556 135.997 30.9683 136.136C31.0152 136.194 31.0748 136.237 31.1407 136.265L31.1393 136.268L31.1377 136.272C31.076 136.433 31.0338 136.616 31.0432 136.831C31.0525 137.042 31.1105 137.26 31.2151 137.496C31.2657 137.611 31.3627 137.698 31.4818 137.737C31.8553 137.858 32.1686 137.775 32.421 137.619C32.5808 137.521 32.7428 137.371 32.8658 137.258C32.902 137.225 32.9349 137.194 32.9633 137.169C33.0514 137.092 33.105 136.982 33.1121 136.865C33.1158 136.803 33.1522 136.595 33.221 136.267C33.2863 135.954 33.373 135.569 33.4634 135.181C33.5999 134.595 33.7417 134.015 33.8298 133.674L34.0527 133.589C34.269 133.507 34.3841 133.271 34.316 133.049L34.2946 132.98C34.326 132.905 34.3847 132.809 34.4843 132.688C34.6223 132.521 34.8075 132.343 35.0212 132.152C35.1062 132.077 35.2054 131.99 35.3066 131.903C35.4348 131.791 35.5663 131.677 35.6763 131.578C35.8862 131.388 36.0981 131.181 36.2528 130.971C36.2791 130.935 36.3027 130.9 36.3247 130.868L36.4799 130.958C36.4932 131.01 36.504 131.077 36.5103 131.163C36.5156 131.237 36.5178 131.317 36.5197 131.407L36.5203 131.437C36.522 131.517 36.5238 131.605 36.5284 131.693C36.5491 132.088 36.6323 132.629 37.174 132.979C37.2733 133.043 37.3943 133.065 37.5097 133.039C37.6251 133.013 37.7252 132.941 37.7872 132.84C37.9191 132.626 37.9215 132.381 37.9109 132.209C37.9174 132.231 37.9243 132.252 37.9316 132.272C37.9577 132.346 37.9909 132.417 38.0335 132.484L38.0661 132.531C38.2324 132.758 38.4602 132.844 38.6563 132.879C38.7534 132.897 38.8523 132.904 38.9349 132.909C38.9548 132.91 38.9743 132.911 38.993 132.912L39.0049 132.913L39.0275 132.914C39.0798 132.917 39.1294 132.921 39.1821 132.926C39.278 132.935 39.3712 132.95 39.4649 132.976C39.6703 133.035 39.8399 133.096 40.0203 133.161C40.1427 133.205 40.2699 133.251 40.4167 133.299C40.517 133.332 40.6215 133.364 40.7304 133.393C40.8053 133.413 40.8824 133.43 40.9614 133.447C41.2623 133.681 41.3135 133.812 41.3331 133.894C41.3483 133.957 41.353 134.029 41.356 134.156L41.3567 134.189C41.3592 134.305 41.3624 134.455 41.3852 134.625L41.3994 134.717C41.425 134.867 41.4669 135.031 41.5335 135.211L41.4526 135.497C41.1741 136.494 40.9156 137.497 40.6775 138.506C40.5475 138.876 40.3556 139.655 40.1818 140.36L40.1615 140.443C40.0673 140.825 39.9774 141.187 39.9021 141.469C39.8643 141.61 39.8316 141.727 39.8045 141.812C39.788 141.865 39.7771 141.894 39.7723 141.907Z" fill="var(--fill-0, white)"/>
<path d="M20.9866 135.297C20.9852 135.327 20.9839 135.357 20.9825 135.388L20.9781 135.482L20.9778 135.488L20.973 135.592C20.9793 135.455 20.9857 135.319 20.9918 135.181L20.9947 135.117C20.9924 135.168 20.9901 135.219 20.9878 135.27L20.9866 135.297Z" fill="var(--fill-0, white)"/>
<path d="M20.9472 136.154C20.9429 136.25 20.9387 136.345 20.9347 136.441C20.9413 136.285 20.9484 136.126 20.9557 135.967C20.9528 136.029 20.95 136.092 20.9472 136.154Z" fill="var(--fill-0, white)"/>
<path d="M20.9347 136.441C20.9387 136.345 20.9429 136.25 20.9472 136.154C20.95 136.092 20.9528 136.029 20.9557 135.967C20.9484 136.126 20.9413 136.285 20.9347 136.441Z" fill="var(--fill-0, white)"/>
<path d="M20.9866 135.298C20.9852 135.328 20.9839 135.358 20.9825 135.388L20.9781 135.482L20.9778 135.488L20.973 135.592C20.9793 135.455 20.9857 135.319 20.9918 135.181L20.9947 135.117C20.9924 135.168 20.9901 135.219 20.9878 135.27L20.9866 135.298Z" fill="var(--fill-0, white)"/>
<path d="M20.9472 136.154C20.9429 136.25 20.9387 136.345 20.9347 136.441C20.9413 136.285 20.9484 136.126 20.9557 135.967C20.9528 136.029 20.95 136.092 20.9472 136.154Z" fill="var(--fill-0, white)"/>
<path d="M20.9347 136.441C20.9387 136.345 20.9429 136.25 20.9472 136.154C20.95 136.092 20.9528 136.029 20.9557 135.967C20.9484 136.126 20.9413 136.285 20.9347 136.441Z" fill="var(--fill-0, white)"/>
<path d="M20.9866 135.298C20.9852 135.328 20.9839 135.358 20.9825 135.388L20.9781 135.482L20.9778 135.488L20.973 135.592C20.9793 135.455 20.9857 135.319 20.9918 135.181L20.9947 135.117C20.9924 135.168 20.9901 135.219 20.9878 135.27L20.9866 135.298Z" fill="var(--fill-0, white)"/>
<path d="M20.9472 136.154C20.9429 136.25 20.9387 136.345 20.9347 136.441C20.9413 136.285 20.9484 136.126 20.9557 135.967C20.9528 136.029 20.95 136.092 20.9472 136.154Z" fill="var(--fill-0, white)"/>
<path d="M20.9347 136.441C20.9387 136.345 20.9429 136.25 20.9472 136.154C20.95 136.092 20.9528 136.029 20.9557 135.967C20.9484 136.126 20.9413 136.285 20.9347 136.441Z" fill="var(--fill-0, white)"/>
<path d="M24.2023 115.472C24.4022 115.464 24.5609 115.463 24.7301 115.481C24.8893 115.498 25.0424 115.53 25.2138 115.566L25.2221 115.568L25.4013 115.605L25.5431 115.72C26.8123 116.753 27.146 118.324 27.1466 119.794C27.1473 121.263 26.8152 122.813 26.5612 124.003L26.5585 124.017L26.5554 124.032L26.5526 124.044L26.5518 124.048C26.5521 124.046 26.5524 124.045 26.5526 124.044V124.043C26.5524 124.044 26.5521 124.045 26.5518 124.047V124.048L26.5495 124.057L26.5498 124.058C26.5493 124.06 26.549 124.062 26.5484 124.065C26.5479 124.068 26.5471 124.07 26.5467 124.071C26.5465 124.073 26.5461 124.074 26.5459 124.075C26.5458 124.076 26.5459 124.076 26.5459 124.076L26.5445 124.083L26.5442 124.083C26.517 124.21 26.4911 124.333 26.4662 124.452C26.4671 124.478 26.4683 124.503 26.469 124.526L26.4735 124.648C26.4751 124.684 26.4769 124.717 26.4796 124.748C26.4813 124.767 26.4838 124.785 26.4857 124.8L27.6794 125.065L27.7268 125.647L27.727 125.651L27.7273 125.656L27.7282 125.669L27.7323 125.717L27.7382 125.783V125.784C27.7609 126.045 27.7972 126.413 27.7343 126.794L27.6518 127.294L27.157 127.404C27.1383 127.408 27.1227 127.412 27.1001 127.417L27.0998 127.416L27.0285 127.433L27.0288 127.433C26.7884 127.488 26.574 127.536 26.2932 127.552C26.2886 127.623 26.2834 127.693 26.279 127.764L26.2542 128.16L25.6746 128.503L25.6721 128.505C25.5703 128.733 25.5101 128.909 25.467 129.082C25.4016 129.346 25.368 129.628 25.3146 130.124L25.3118 130.15L25.3071 130.176L25.068 131.511L25.0647 131.53L25.06 131.55L25.0338 131.661V131.662C24.7642 132.806 24.5695 133.632 24.0569 134.78C23.9933 135.526 23.9003 136.174 23.3937 136.919C23.3737 137.286 23.3286 137.7 23.1519 138.071C22.9064 138.586 22.4706 138.915 21.8777 139.13L21.5378 139.254L21.2296 139.064L21.0978 138.983C20.9351 138.881 20.7253 138.743 20.5308 138.588C20.3522 138.445 20.1144 138.232 19.9663 137.963L19.8955 137.827C19.8731 137.782 19.8516 137.736 19.8314 137.69C19.8181 137.659 19.8049 137.628 19.7921 137.597L19.7905 137.593L19.7891 137.589L19.7598 137.514L19.7554 137.503C19.744 137.473 19.7326 137.441 19.7214 137.408C19.4119 136.506 19.4269 135.455 19.5414 134.485C19.6573 133.502 19.8885 132.509 20.0758 131.702L20.0774 131.695L20.078 131.693C20.0796 131.686 20.0812 131.679 20.0819 131.676L20.0853 131.663C20.086 131.659 20.0869 131.654 20.088 131.65C20.0883 131.648 20.0885 131.647 20.0889 131.646C20.0977 131.608 20.092 131.633 20.0997 131.599C20.116 131.529 20.1319 131.46 20.1474 131.393C20.1592 131.342 20.1706 131.292 20.1817 131.243C20.1848 131.229 20.1879 131.215 20.1911 131.201C20.2071 131.13 20.2224 131.061 20.2368 130.995L20.2471 130.947L20.2639 130.901L20.3079 130.778C20.3558 130.635 20.406 130.452 20.4366 130.28C20.4519 130.194 20.4607 130.121 20.4636 130.063C20.4668 130 20.4618 129.981 20.4642 129.992L20.4556 129.95L20.4517 129.908C20.4182 129.543 20.4528 129.214 20.4784 128.958C20.4903 128.839 20.4998 128.734 20.506 128.634C20.1372 128.564 19.8091 128.443 19.4962 128.266C19.0771 128.029 18.7145 127.704 18.3466 127.352C18.0207 127.208 17.5998 127.057 17.1825 126.908C17.1134 126.884 17.0453 126.859 16.9793 126.836C16.9561 126.827 16.9331 126.819 16.9102 126.81C16.6906 126.825 16.4579 126.857 16.1972 126.893C16.1338 126.902 16.0641 126.912 15.9963 126.921L15.959 126.926L15.9211 126.968L15.7673 126.952L15.4611 126.993L15.4234 126.916L15.2997 126.904L13.2036 126.688L14.3446 125.939L14.2223 125.836C14.1265 125.759 14.1043 125.752 14.1013 125.751H14.1005C14.1005 125.751 14.0986 125.75 14.096 125.75C14.091 125.749 14.0798 125.747 14.0598 125.746C14.0163 125.743 13.9472 125.744 13.8283 125.752L12.2693 125.869L12.4697 125.577C12.464 125.576 12.4583 125.575 12.4527 125.574C12.4121 125.619 12.3711 125.663 12.3301 125.707L12.3075 125.732L12.0676 125.989L11.7165 125.969C11.2561 125.942 10.9919 125.629 10.8745 125.454C10.7827 125.318 10.7113 125.161 10.6616 125.045C10.5573 125.078 10.4149 125.107 10.2417 125.09C10.0311 125.069 9.81657 124.986 9.61646 124.9L9.13999 124.698L9.14445 124.588L9.02269 124.713L8.50053 124.345L8.38629 124.265C8.33643 124.23 8.28674 124.195 8.23611 124.16L8.23583 124.16C7.67634 123.77 7.06572 123.35 6.54843 122.722C6.40615 122.724 6.25043 122.724 6.09593 122.717C5.92867 122.71 5.74721 122.696 5.57851 122.668C5.43314 122.644 5.20613 122.597 5.00926 122.478L3.93151 121.825L4.86688 121.278C4.75624 121.248 4.71368 121.247 4.72422 121.246L4.67156 121.248L4.61918 121.242C4.40335 121.219 4.20985 121.177 4.02541 121.099L4.04073 121.287L3.35948 121.927L3.0619 121.926C2.66497 121.925 2.15219 121.789 1.72975 121.639C1.30196 121.487 0.82199 121.27 0.505997 121.03C0.387008 120.939 0.211345 120.792 0.107274 120.557C0.00978756 120.337 0.0165322 120.113 0.0156034 120.068C0.0147275 120.025 0.013953 119.99 0.0111453 119.95L0 119.788L0.0562838 119.637C0.255637 119.1 0.645603 118.729 0.898034 118.479L1.05908 118.318L1.27112 118.1L1.57455 118.091C2.73282 118.058 3.56608 118.199 4.63729 118.427C5.27115 118.554 5.80252 118.689 6.36593 118.844L6.9452 119.007L7.01458 119.027L7.43532 119.24L7.76884 119.252L7.89506 119.305C8.34068 119.492 8.78511 119.615 9.23417 119.738C9.57856 119.832 9.95536 119.933 10.2877 120.069C10.3727 120.098 10.4657 120.128 10.5663 120.16C10.9429 120.281 11.4529 120.445 11.8572 120.625L11.8614 120.616L12.4571 120.757C12.5093 120.769 12.5778 120.785 12.658 120.803C12.8537 120.846 13.1746 120.917 13.3989 120.986L13.4697 120.916L13.5363 121.034L13.5471 121.039C13.7975 121.15 14.2056 121.287 14.6238 121.426L14.624 121.427L14.6954 121.45C14.8719 121.509 15.0467 121.568 15.1936 121.621C15.2822 121.653 15.3831 121.691 15.4758 121.732C16.1707 121.864 17.5729 122.282 18.1382 122.499L18.2758 122.552L18.3424 122.615C18.6086 122.608 18.8483 122.627 19.0903 122.677C19.4038 122.743 19.6973 122.855 20.0031 122.975C20.0454 122.987 20.0932 123.001 20.1438 123.017L20.1488 123.018C20.2824 123.058 20.4316 123.103 20.5678 123.14C20.6356 123.158 20.6948 123.173 20.7431 123.183C20.7913 123.194 20.8131 123.197 20.815 123.197L20.844 123.2L20.8724 123.204C21.2221 123.263 21.5035 123.381 21.7428 123.508C21.7713 123.451 21.8021 123.388 21.8328 123.316C21.9992 122.931 22.1621 122.409 22.3177 121.801C22.6279 120.588 22.8823 119.143 23.085 117.989C23.1764 117.469 23.2586 117.002 23.3294 116.655C23.3645 116.483 23.4001 116.325 23.4361 116.198C23.4537 116.135 23.4764 116.063 23.5052 115.994C23.5174 115.964 23.5862 115.786 23.7504 115.648L23.9463 115.483L24.2023 115.472ZM20.0819 131.679C20.0818 131.68 20.0816 131.681 20.0816 131.681C20.0816 131.681 20.0819 131.68 20.0822 131.678L20.0819 131.679Z" fill="var(--fill-0, white)"/>
</g>
</svg>
