<svg width="472" height="415" viewBox="0 0 472 415" fill="none" xmlns="http://www.w3.org/2000/svg">
<path d="M273.299 175.106C268.608 184.687 264.988 193.479 260.033 199.92C254.942 206.539 248.377 210.802 237.83 211.548C226.866 212.323 218.573 204.508 212.88 196.661C209.997 192.687 207.684 188.574 205.938 185.267C205.072 183.627 204.321 182.137 203.739 181.018C203.119 179.825 202.727 179.126 202.504 178.834L200.467 176.171H203.819C204.066 176.171 204.299 176.225 204.375 176.243C204.502 176.271 204.646 176.309 204.794 176.349C205.087 176.428 205.492 176.545 205.958 176.677C206.91 176.945 208.237 177.309 209.913 177.703C213.265 178.489 218.026 179.393 223.94 179.855C235.764 180.778 252.211 179.934 271.231 172.826L275.128 171.37L273.299 175.106ZM268.566 177.288C250.639 183.339 235.104 184.05 223.682 183.158C217.571 182.681 212.64 181.745 209.156 180.928C208.428 180.757 207.764 180.591 207.166 180.436C207.662 181.403 208.222 182.498 208.868 183.72C210.584 186.971 212.813 190.927 215.562 194.716C221.133 202.395 228.469 208.888 237.597 208.243C247.143 207.568 252.857 203.814 257.407 197.901C261.506 192.571 264.608 185.585 268.566 177.288Z" fill="white"/>
<path d="M248.947 132.075C246.219 133.439 240.442 134.744 239.161 129.05C237.88 123.356 240.406 121.34 241.83 121.043L266.207 117.84L248.947 132.075ZM244.697 124.783C243.328 124.783 242.219 125.915 242.219 127.312C242.219 128.709 243.328 129.842 244.697 129.842C246.066 129.842 247.176 128.709 247.176 127.312C247.175 125.915 246.066 124.783 244.697 124.783Z" fill="white"/>
<path d="M213.334 135.025C216.316 135.665 222.236 135.489 222.056 129.655C221.877 123.822 218.927 122.5 217.474 122.567L193.069 125.545L213.334 135.025ZM215.631 126.903C216.956 126.562 218.313 127.382 218.662 128.736C219.01 130.088 218.218 131.462 216.893 131.803C215.567 132.145 214.209 131.325 213.861 129.972C213.512 128.619 214.305 127.245 215.631 126.903Z" fill="white"/>
<path d="M290.282 149.752C277.299 129.499 246.876 151.994 235.948 161.839C268.73 158.593 268.081 159.567 277.169 165.085C286.05 170.477 292.1 206.09 293.074 226.754C295.778 212.149 303.265 170.006 290.282 149.752Z" fill="white"/>
<path d="M185.327 152.478C198.31 132.225 225.021 151.994 235.948 161.839C203.166 158.594 203.815 159.567 194.727 165.085C185.846 170.477 179.797 206.09 178.823 226.755C176.118 212.149 172.344 172.732 185.327 152.478Z" fill="white"/>
<path d="M354.785 114.204C359.688 114.204 326.219 127.542 311.32 133.66C308.365 134.873 302.547 132.814 300.327 130.516C291.679 121.563 269.447 105.998 233.068 98.624C185.031 88.8867 172.697 126.213 172.048 128.485C171.399 130.757 161.337 131.406 143.485 136.599C125.634 141.793 111.028 139.521 115.247 134.327C119.467 129.134 125.634 128.81 143.485 123.941C160.918 119.187 165.97 114.432 152.295 99.7044C151.647 99.0072 150.734 98.5725 149.789 98.4627C115.797 94.5125 112.4 75.7932 117.519 68.1139C122.713 60.324 140.798 84.5775 180.163 91.8079C196.067 94.7291 196.716 94.4045 214.568 94.7291C232.419 95.0537 210.997 91.8079 202.558 79.1494C194.119 66.491 193.146 55.78 186.654 21.3749C180.163 -13.0302 209.374 2.87404 207.102 9.36556C204.83 15.8571 195.093 22.024 202.558 50.2622C207.515 69.0124 236.517 85.3329 257.493 94.1753C261.076 95.6853 266.429 90.3524 267.772 86.7045C268.098 85.8192 268.533 84.92 269.096 84.0181C273.965 76.2283 271.693 67.1401 272.342 40.8494C272.675 27.3629 270.152 21.1282 268.402 18.2417C267.506 16.7645 267.944 16.1754 269.579 16.7311C280.689 20.5049 295.999 28.6719 285.001 37.2791C270.07 48.9638 291.492 88.8867 306.423 91.8079C316.442 93.7681 337.058 77.8998 350.531 65.7733C353.152 63.4145 356.947 65.2193 355.918 68.5916C352.575 79.5438 342.84 93.5169 320.055 98.624C291.088 105.117 296.623 112.73 303.633 116.094C304.181 116.358 304.781 116.46 305.389 116.429C320.421 115.658 349.951 114.204 354.785 114.204Z" fill="white"/>
<path d="M167.276 65.219C172.837 78.6413 184.16 84.1203 190.594 85.5721C191.791 85.8424 193.079 85.56 193.879 84.6293C195.396 82.8661 196.24 80.1424 192.469 77.6827C186.369 73.7049 159.851 27.2973 157.994 26.767C156.138 26.2366 159.585 46.6559 167.276 65.219Z" fill="white"/>
<path d="M239.568 16.1818C238.141 25.8498 237.302 47.3213 235.107 61.6901C234.484 65.769 236.073 69.951 239.465 72.3001L243.443 75.0551C247.833 78.095 253.703 76.7148 253.309 71.3899C252.49 60.3413 244.774 42.7934 241.918 16.8301C241.535 13.3424 240.081 12.7107 239.568 16.1818Z" fill="white"/>
<path d="M311.723 78.7542C308.212 81.6809 304.847 81.3862 302.243 80.2461C299.334 78.9723 299.255 75.5852 301.609 73.4532C307.169 68.4161 316.855 59.004 324.371 51.4091C327.367 48.3816 330.358 49.9777 328.505 53.8128C324.115 62.8979 316.459 74.8074 311.723 78.7542Z" fill="white"/>
<path d="M222.13 191.709L221.641 186.15L227.179 186.898L226.394 192.43L222.13 191.709Z" fill="white"/>
<path d="M227.965 192.43L228.395 186.898H234.132L232.663 192.43H227.965Z" fill="white"/>
<path d="M248.824 191.208L249.255 185.676H254.049L253.609 189.944L248.824 191.208Z" fill="white"/>
<path d="M255.053 188.789L255.277 184.393L260.059 183.07L260.283 185.067L255.053 188.789Z" fill="white"/>
<path d="M220.577 189.587L220.352 185.191L215.57 183.868L215.346 185.865L220.577 189.587Z" fill="white"/>
<path d="M260.283 186.96L258.839 190.104L255.463 194.661L254.924 191.29L260.283 186.96Z" fill="white"/>
<path d="M215.346 187.758L216.79 190.903L220.167 195.46L220.706 192.089L215.346 187.758Z" fill="white"/>
<path d="M241.321 192.43L241.046 186.678L247.646 185.836L246.703 192.43L241.321 192.43Z" fill="white"/>
<path d="M226.461 194.019L226.71 200.864L222.02 198.072L222.02 193.444L226.461 194.019Z" fill="white"/>
<path d="M232.59 194.212L232.784 203.807L228.004 201.528L228.004 193.955L232.59 194.212Z" fill="white"/>
<path d="M239.462 194.436L239.462 203.807L234.722 204.16L234.901 194.18L239.462 194.436Z" fill="white"/>
<path d="M253.577 191.324L253.302 199.446L248.746 201.725L249.277 192.896L253.577 191.324Z" fill="white"/>
<path d="M246.14 193.923L246.14 203.059L241.401 203.425L241.704 194.372L246.14 193.923Z" fill="white"/>
<path d="M25.92 305.275C37.36 309.595 44.32 320.555 44.32 331.355V333.755H0V277.755H42.8V280.155C42.8 291.515 35.44 300.715 25.92 305.275ZM33.92 284.875H7.84V302.315H12.96C21.92 302.315 32.72 295.915 33.92 284.875ZM7.84 309.195V326.635H35.52C34 316.715 24.56 309.195 14.24 309.195H7.84Z" fill="white"/>
<path d="M101.346 333.755H92.5462L89.5863 326.075L50.2262 334.635C50.0662 332.955 49.9062 331.195 49.9062 329.595C49.9062 311.675 61.3463 297.275 77.1063 293.755L70.9463 277.755H79.7463L101.346 333.755ZM58.6263 325.355L86.9463 319.195L79.9062 300.875C67.4262 303.115 59.1063 312.875 58.6263 325.355Z" fill="white"/>
<path d="M147.602 333.755L129.602 310.795C125.842 311.835 121.922 312.475 117.762 312.555V333.755H109.922V277.755H153.122V280.155C153.122 292.875 146.562 302.475 136.722 307.835L157.362 333.755H147.602ZM117.762 305.275C132.482 305.275 142.802 297.275 144.802 284.715H117.762V305.275Z" fill="white"/>
<path d="M210.409 333.755H201.609L198.649 326.075L159.289 334.635C159.129 332.955 158.969 331.195 158.969 329.595C158.969 311.675 170.409 297.275 186.169 293.755L180.009 277.755H188.809L210.409 333.755ZM167.689 325.355L196.009 319.195L188.969 300.875C176.489 303.115 168.169 312.875 167.689 325.355Z" fill="white"/>
<path d="M259.784 277.755H267.784V333.755H259.784V324.315L226.984 288.635V333.755H218.984V277.755H226.984L259.784 313.515V277.755Z" fill="white"/>
<path d="M317.707 277.755V283.595C317.707 312.395 302.828 334.555 281.628 334.555V327.115C298.188 327.115 309.388 307.355 309.788 285.435H278.188V277.755H317.707Z" fill="white"/>
<path d="M348.605 301.835C359.165 304.315 367.885 307.675 367.885 318.155C367.885 327.915 358.205 334.555 343.325 334.555V326.875C354.205 326.875 359.645 323.435 359.645 318.395C359.645 312.715 354.445 311.595 346.525 309.595C336.205 306.955 324.125 304.315 324.125 287.675C324.125 284.635 324.445 281.355 324.925 277.755H366.125V285.275H332.045C331.885 286.555 331.805 287.755 331.805 288.795C331.805 297.595 338.285 299.435 348.605 301.835Z" fill="white"/>
<path d="M406.521 305.355C417.801 309.355 423.481 320.875 423.481 333.755H415.481C415.481 319.515 407.401 309.275 392.201 309.275H386.121V333.755H378.281V277.755H386.121V302.235H392.201C405.561 302.235 414.361 293.755 414.361 277.755H422.361C422.361 290.155 417.161 301.435 406.521 305.355Z" fill="white"/>
<path d="M471.897 285.275H442.297V301.995H469.497V309.515H442.297V326.235H471.897V333.755H434.297V277.755H471.897V285.275Z" fill="white"/>
<path d="M171.857 385.275C183.297 389.595 190.258 400.555 190.258 411.355V413.755H145.938V357.755H188.738V360.155C188.738 371.515 181.377 380.715 171.857 385.275ZM179.857 364.875H153.777V382.315H158.898C167.858 382.315 178.657 375.915 179.857 364.875ZM153.777 389.195V406.635H181.458C179.938 396.715 170.498 389.195 160.178 389.195H153.777Z" fill="white"/>
<path d="M238.203 357.755H246.203V413.755H236.123C211.563 413.755 197.403 400.475 197.403 377.275V357.755H205.403V377.275C205.403 395.595 216.523 406.075 236.123 406.075H238.203V357.755Z" fill="white"/>
<path d="M282.225 351.355H274.225L263.025 339.355H271.825L278.225 346.715L284.625 339.355H293.425L282.225 351.355ZM281.105 381.835C291.665 384.315 300.385 387.675 300.385 398.155C300.385 407.915 290.705 414.555 275.825 414.555V406.875C286.705 406.875 292.145 403.435 292.145 398.395C292.145 392.715 286.945 391.595 279.025 389.595C268.705 386.955 256.625 384.315 256.625 367.675C256.625 364.635 256.945 361.355 257.425 357.755H298.625V365.275H264.545C264.385 366.555 264.305 367.755 264.305 368.795C264.305 377.595 270.785 379.435 281.105 381.835Z" fill="white"/>
<path d="M348.381 365.275H318.781V381.995H345.981V389.515H318.781V406.235H348.381V413.755H310.781V357.755H348.381V365.275Z" fill="white"/>
</svg>
