<svg preserveAspectRatio="none" width="100%" height="100%" overflow="visible" style="display: block;" viewBox="0 0 411.144 522.737" fill="none" xmlns="http://www.w3.org/2000/svg">
<g id="Group 1">
<path id="eye-left" d="M38.7975 24.3901C40.8676 17.1618 44.619 10.2687 51.1894 6.18483C58.0567 1.91626 67.9336 -1.31072 76.0009 0.527353C78.6363 1.23323 83.2849 2.35187 85.4882 3.83526C88.004 5.1204 90.7699 6.64793 92.9477 8.46471C94.6909 9.35644 98.0323 10.8859 99.1296 12.305L99.4057 13.7265C104.478 17.7871 106.333 23.16 107.767 29.3832C108.188 31.6209 109.179 36.2135 109.131 38.2432C109.145 41.4516 109.36 45.043 108.333 48.0752C108.219 50.5243 106.284 55.8592 104.709 57.6807C103.507 60.0999 102.458 61.2968 100.795 63.3803L98.2603 65.6052C94.9763 68.4659 91.1583 70.6997 86.9573 71.9097C85.6214 72.393 84.0997 72.987 82.7664 73.414L81.2795 73.5534C80.303 74.2531 71.7237 73.6913 70.4141 73.289C68.2217 72.6671 65.7086 72.0406 63.6509 71.1218L63.0523 70.9564C60.4157 69.8967 59.273 69.4541 56.8354 67.882L55.9731 67.2249C52.0443 64.5644 50.2159 63.323 47.1441 59.667C45.9069 58.5627 45.3667 57.5355 44.4939 56.1338C42.9013 54.5536 40.8087 49.3278 39.8949 47.1451C39.5054 46.4702 38.9915 44.8025 38.71 43.9886C37.3876 37.9099 37.3838 34.9756 37.8612 28.8976C37.9731 27.8363 38.547 25.5312 38.7975 24.3901Z" fill="var(--fill-0, white)"/>
<path id="eye-right" d="M363.998 3.44334C371.663 0.0699883 383.791 -0.831829 391.624 2.26505C402.478 6.55414 407.764 13.9699 410.575 25.0274C411.268 27.1582 411.28 33.3926 410.869 35.5339C410.633 37.3487 410.335 40.2973 409.921 41.9898C409.429 43.4592 408.596 46.2022 407.915 47.4564C407.411 48.4751 406.819 49.9082 406.052 50.6756C404.91 54.0524 403.338 55.7279 401.022 58.3973C395.702 64.3069 389.878 69.3142 381.611 70.4913C367.233 74.507 353.232 68.2873 345.486 55.7453C337.188 42.3092 340.894 18.3067 354.865 10.0824C356.824 7.1613 360.93 5.00378 363.998 3.44334Z" fill="var(--fill-0, white)"/>
<g id="mouth">
<path d="M73.5547 474.192C73.5499 474.299 73.545 474.405 73.5402 474.511L73.5249 474.841L73.5238 474.865L73.507 475.226C73.5291 474.749 73.5513 474.27 73.5729 473.788L73.5829 473.563C73.575 473.742 73.567 473.922 73.5588 474.101L73.5547 474.192Z" fill="var(--fill-0, white)"/>
<path d="M73.4166 477.196C73.4015 477.533 73.3868 477.869 73.3727 478.202C73.3958 477.655 73.4207 477.1 73.4462 476.542C73.4362 476.761 73.4263 476.979 73.4166 477.196Z" fill="var(--fill-0, white)"/>
<path d="M73.3727 478.202C73.3868 477.869 73.4015 477.533 73.4166 477.196C73.4263 476.979 73.4362 476.761 73.4462 476.542C73.4207 477.1 73.3958 477.655 73.3727 478.202Z" fill="var(--fill-0, white)"/>
<path d="M73.5545 474.196C73.5497 474.301 73.545 474.406 73.5402 474.511L73.5249 474.841L73.5238 474.865L73.507 475.226C73.5291 474.749 73.5513 474.27 73.5729 473.788L73.5829 473.563C73.575 473.742 73.567 473.922 73.5588 474.101L73.5545 474.196Z" fill="var(--fill-0, white)"/>
<path d="M73.4166 477.196C73.4015 477.533 73.3868 477.869 73.3727 478.202C73.3958 477.655 73.4207 477.1 73.4462 476.542C73.4362 476.761 73.4263 476.979 73.4166 477.196Z" fill="var(--fill-0, white)"/>
<path d="M73.3727 478.202C73.3868 477.869 73.4015 477.533 73.4166 477.196C73.4263 476.979 73.4362 476.761 73.4462 476.542C73.4207 477.1 73.3958 477.655 73.3727 478.202Z" fill="var(--fill-0, white)"/>
<path d="M73.5547 474.192C73.5499 474.299 73.545 474.405 73.5402 474.511L73.5249 474.841L73.5238 474.865L73.507 475.226C73.5291 474.749 73.5513 474.27 73.5729 473.788L73.5829 473.563C73.575 473.742 73.567 473.922 73.5588 474.101L73.5547 474.192Z" fill="var(--fill-0, white)"/>
<path d="M73.4166 477.196C73.4015 477.533 73.3868 477.869 73.3727 478.202C73.3958 477.655 73.4207 477.1 73.4462 476.542C73.4362 476.761 73.4263 476.979 73.4166 477.196Z" fill="var(--fill-0, white)"/>
<path d="M73.3727 478.202C73.3868 477.869 73.4015 477.533 73.4166 477.196C73.4263 476.979 73.4362 476.761 73.4462 476.542C73.4207 477.1 73.3958 477.655 73.3727 478.202Z" fill="var(--fill-0, white)"/>
<path d="M223.4 292.666C222.152 285.607 226.388 283.311 225.836 276.589C225.713 275.086 225.933 274.188 226.921 273.193L227.536 273.282C228.133 275.52 226.835 277.51 227.464 278.947C229.863 277.278 229.026 278.2 230.335 275.148C234.013 274.812 236.442 270.61 238.83 270.692C240.197 273.995 243.304 274.444 245.598 276.821C246.48 277.735 247.877 280.442 248.457 281.661C249.68 285.704 250.975 286.238 249.058 290.133C249.52 291.698 250.008 293.696 250.84 295.043C240.779 305.796 230.615 306.857 223.4 292.666Z" fill="var(--fill-0, white)"/>
<path d="M178.313 290.83C175.851 285.499 182.573 277.6 187.089 275.253C190.291 273.592 190.738 274.568 193.687 275.621C196.188 277.576 197.509 278.653 199.692 281.077C195.855 294.555 190.574 303.24 175.374 296.642C176.348 294.458 177.145 292.917 178.313 290.83Z" fill="var(--fill-0, white)"/>
<path d="M73.5547 474.192C73.5499 474.299 73.545 474.405 73.5402 474.511L73.5249 474.841L73.5238 474.865L73.507 475.226C73.5291 474.749 73.5513 474.27 73.5729 473.788L73.5829 473.563C73.575 473.742 73.567 473.922 73.5588 474.101L73.5547 474.192Z" fill="var(--fill-0, white)"/>
<path d="M73.4166 477.196C73.4015 477.533 73.3868 477.869 73.3727 478.202C73.3958 477.655 73.4207 477.1 73.4462 476.542C73.4362 476.761 73.4263 476.979 73.4166 477.196Z" fill="var(--fill-0, white)"/>
<path d="M73.3727 478.202C73.3868 477.869 73.4015 477.533 73.4166 477.196C73.4263 476.979 73.4362 476.761 73.4462 476.542C73.4207 477.1 73.3958 477.655 73.3727 478.202Z" fill="var(--fill-0, white)"/>
<path d="M73.5547 474.192C73.5499 474.299 73.545 474.405 73.5402 474.511L73.5249 474.841L73.5238 474.865L73.507 475.226C73.5291 474.749 73.5513 474.27 73.5729 473.788L73.5829 473.563C73.575 473.742 73.567 473.922 73.5588 474.101L73.5547 474.192Z" fill="var(--fill-0, white)"/>
<path d="M73.4166 477.196C73.4015 477.533 73.3868 477.869 73.3727 478.202C73.3958 477.655 73.4207 477.1 73.4462 476.542C73.4362 476.761 73.4263 476.979 73.4166 477.196Z" fill="var(--fill-0, white)"/>
<path d="M73.3727 478.202C73.3868 477.869 73.4015 477.533 73.4166 477.196C73.4263 476.979 73.4362 476.761 73.4462 476.542C73.4207 477.1 73.3958 477.655 73.3727 478.202Z" fill="var(--fill-0, white)"/>
<path fill-rule="evenodd" clip-rule="evenodd" d="M139.395 497.362C139.399 497.356 139.408 497.354 139.412 497.349C139.408 497.355 139.399 497.358 139.395 497.362Z" fill="var(--fill-0, white)"/>
<path fill-rule="evenodd" clip-rule="evenodd" d="M139.395 497.362C139.394 497.365 139.394 497.373 139.394 497.377C139.397 497.373 139.393 497.366 139.395 497.362C139.399 497.356 139.408 497.354 139.412 497.349C139.41 497.352 139.399 497.359 139.395 497.362ZM139.37 497.419C139.365 497.428 139.36 497.438 139.355 497.447L139.341 497.475C139.345 497.468 139.351 497.455 139.355 497.447C139.361 497.435 139.365 497.429 139.37 497.419ZM217.934 516.544C217.936 516.537 217.939 516.527 217.941 516.522C217.939 516.528 217.936 516.536 217.934 516.544ZM326.943 450.174C326.961 450.253 326.977 450.325 326.993 450.391C326.978 450.327 326.96 450.25 326.943 450.174Z" fill="var(--fill-0, white)"/>
<path fill-rule="evenodd" clip-rule="evenodd" d="M139.394 497.377C139.4 497.368 139.406 497.358 139.412 497.349C139.408 497.352 139.398 497.36 139.395 497.362C139.394 497.365 139.394 497.373 139.394 497.377ZM344.839 435.07C344.827 435.068 344.81 435.066 344.798 435.065C344.812 435.066 344.825 435.068 344.839 435.07ZM139.355 497.447C139.358 497.441 139.359 497.439 139.363 497.433C139.365 497.428 139.368 497.423 139.37 497.419C139.365 497.429 139.361 497.435 139.355 497.447Z" fill="var(--fill-0, white)"/>
<path fill-rule="evenodd" clip-rule="evenodd" d="M139.395 497.362C139.399 497.356 139.408 497.354 139.412 497.349C139.406 497.358 139.4 497.368 139.394 497.377C139.393 497.379 139.388 497.388 139.388 497.388L139.37 497.419C139.365 497.429 139.361 497.435 139.355 497.447C139.351 497.455 139.345 497.468 139.341 497.475L139.336 497.487L139.274 497.631C139.165 497.927 139.039 498.258 138.904 498.612C138.465 499.762 137.928 501.17 137.53 502.561C137.02 504.341 136.62 506.452 137.11 508.256C137.146 508.387 137.199 508.513 137.267 508.63C137.269 508.636 137.274 508.646 137.279 508.66L137.288 508.685L137.297 508.709L137.303 508.728C137.342 508.841 137.388 509.001 137.44 509.209C137.544 509.623 137.653 510.148 137.758 510.708C137.901 511.469 138.023 512.208 138.119 512.79C138.168 513.086 138.21 513.341 138.245 513.537C138.347 514.119 138.773 514.59 139.34 514.752C139.908 514.914 140.518 514.736 140.912 514.296C144.991 509.732 145.829 506.285 147.104 501.048C147.154 500.844 147.204 500.637 147.255 500.427C147.386 499.893 147.221 499.336 146.836 498.959C147.045 498.52 147.252 497.949 147.442 497.368C147.689 496.613 147.955 495.7 148.223 494.732C148.759 492.792 149.317 490.57 149.752 488.807L150.41 486.144L150.972 484.466L150.975 484.456C152.156 480.852 152.996 477.733 153.608 473.906C154.369 473.762 154.88 473.34 155.238 472.896C155.405 472.688 155.548 472.464 155.658 472.291C155.671 472.271 155.684 472.25 155.697 472.23L155.719 472.197L155.737 472.168C155.924 472.116 156.077 472.091 156.207 472.084C156.319 472.078 156.432 472.083 156.55 472.096L156.742 472.123C156.933 472.155 157.122 472.199 157.373 472.258L157.491 472.285C157.889 472.378 158.394 472.489 158.992 472.531C159.291 472.553 159.612 472.556 159.957 472.535C160.816 472.485 161.597 472.253 162.219 471.72C162.828 471.199 163.1 470.546 163.254 470.063L163.26 470.046L163.266 470.026C163.268 470.02 163.269 470.013 163.271 470.007C163.273 470 163.275 469.993 163.277 469.986L163.288 469.95L163.297 469.914L163.305 469.887C163.411 470.012 163.531 470.149 163.671 470.305C163.85 470.502 164.078 470.65 164.331 470.734L164.687 470.852C165.738 471.204 166.601 471.55 167.346 471.879C167.478 471.937 167.608 471.996 167.736 472.055L168.373 472.355C168.728 472.526 169.057 472.692 169.385 472.857C169.616 472.973 169.847 473.089 170.085 473.206C170.828 473.572 171.589 473.922 172.477 474.211C172.751 474.3 173.038 474.384 173.34 474.461L173.684 474.543C174.034 474.623 174.403 474.694 174.795 474.754C175.666 474.888 176.649 474.972 177.8 475.003C178.032 475.009 178.271 475.013 178.514 475.015C178.908 475.018 179.321 475.015 179.756 475.007L180.239 475.198C180.565 475.326 180.891 475.45 181.209 475.57C181.243 475.584 181.278 475.597 181.312 475.609C181.339 475.62 181.366 475.63 181.393 475.64L181.534 475.692C181.611 475.72 181.688 475.748 181.764 475.777C182.13 477.786 182.247 480.108 182.314 482.591C182.328 483.113 182.34 483.643 182.352 484.178C182.403 486.44 182.456 488.78 182.682 490.936L182.705 492.784C182.707 493.013 182.762 493.232 182.857 493.431C182.59 493.748 182.381 494.102 182.189 494.466C182.078 494.675 181.962 494.91 181.839 495.164C181.799 495.248 181.762 495.33 181.728 495.408C181.698 495.478 181.662 495.562 181.628 495.651C181.596 495.736 181.568 495.819 181.544 495.895L181.47 496.141C181.317 496.715 181.28 497.308 181.418 497.888C181.455 498.046 181.507 498.207 181.575 498.366L181.582 498.384L181.588 498.398L181.594 498.412L181.606 498.438L181.616 498.461C181.623 498.475 181.63 498.49 181.638 498.506C181.651 498.534 181.665 498.564 181.679 498.59C181.759 498.741 181.848 498.877 181.939 498.999C182.013 499.098 182.094 499.192 182.177 499.28C182.16 499.291 182.141 499.301 182.124 499.312L181.878 499.474C180.827 500.239 180.446 501.461 180.258 502.333C180.157 502.803 180.092 503.281 180.039 503.699L180.01 503.924C179.971 504.235 179.938 504.503 179.898 504.752C179.401 506.525 178.87 508.292 178.304 510.042C178.279 510.12 178.26 510.2 178.248 510.28C178.218 510.472 178.176 510.715 178.128 510.996C177.953 512.019 177.691 513.552 177.598 514.988C177.539 515.91 177.539 516.903 177.707 517.786C177.865 518.622 178.236 519.692 179.204 520.327C179.521 520.535 179.904 520.62 180.279 520.564C181.473 520.384 182.625 519.692 183.573 518.879C184.547 518.043 185.448 516.959 186.128 515.778C187.242 513.842 188.028 511.072 186.669 508.824C187.118 507.893 187.314 507.072 187.524 506.192L187.553 506.069C187.702 505.9 187.874 505.698 187.979 505.542C188.022 505.479 188.099 505.357 188.161 505.209C188.215 505.078 188.245 505.004 188.275 504.931L188.309 504.847C188.33 504.796 188.355 504.737 188.388 504.655L188.63 504.072C188.919 503.376 189.223 502.643 189.525 501.901C189.998 500.739 190.484 499.524 190.962 498.272C191.081 497.961 191.202 497.643 191.321 497.324C191.677 496.371 192.028 495.396 192.365 494.41L192.86 492.92C193.343 491.421 193.789 489.896 194.169 488.367C194.339 487.688 194.496 487.007 194.637 486.326C195.061 484.288 195.352 482.246 195.44 480.256C195.455 479.924 195.464 479.593 195.467 479.264C195.469 479.099 195.469 478.934 195.467 478.771C195.465 478.505 195.457 478.244 195.447 477.995L195.446 477.981C195.445 477.942 195.441 477.838 195.439 477.791C195.427 477.55 195.412 477.309 195.393 477.07L195.466 477.164C195.475 477.175 195.483 477.186 195.492 477.196C195.643 477.382 195.742 477.525 195.801 477.619C195.788 477.731 195.781 477.875 195.799 478.034C195.841 478.393 195.987 478.69 196.167 478.918C196.438 479.263 196.824 479.486 197.051 479.615C197.153 479.673 197.264 479.734 197.385 479.798C197.508 479.862 197.644 479.931 197.793 480.006C198.021 480.121 198.276 480.179 198.532 480.171C198.802 480.163 199.062 480.147 199.307 480.115L199.555 480.077C199.629 480.064 199.714 480.046 199.802 480.025C200.057 479.962 200.289 479.876 200.508 479.769C200.577 479.735 200.647 479.698 200.717 479.658C201.03 479.481 201.368 479.223 201.686 478.98C201.727 478.949 201.767 478.919 201.807 478.888C201.855 478.852 201.902 478.816 201.949 478.781C202.212 478.585 202.405 478.31 202.501 477.996L202.504 477.983C202.833 477.984 203.154 477.881 203.419 477.688C203.731 477.46 204.11 477.081 204.383 476.803C204.532 476.652 204.711 476.464 204.863 476.303L204.973 476.188L205.179 476.085L205.844 476.429C206.302 476.665 206.849 476.657 207.299 476.407L207.568 476.258C207.753 476.361 207.922 476.499 208.142 476.683L208.169 476.706C208.331 476.841 208.694 477.145 209.148 477.304C209.798 477.531 210.447 477.426 211.006 477.095C211.699 476.688 212.222 476.442 212.607 476.307C212.751 476.256 212.863 476.228 212.946 476.211C212.96 476.266 212.978 476.334 212.993 476.419C213.112 477.088 213.101 478.102 213.052 479.572L213.038 479.997C212.993 481.304 212.941 482.844 212.995 484.489C213 485.096 212.987 486.004 212.972 487.113C212.936 489.762 212.883 493.558 213.016 497.141C213.111 499.702 213.301 502.254 213.673 504.326C213.849 505.305 214.075 506.224 214.371 507.008C213.853 507.207 213.486 507.668 213.401 508.21L213.387 508.32C213.198 510.6 213.157 512.783 213.12 514.883L213.118 514.954C213.081 517.043 213.045 519.046 212.878 521.069C212.816 521.826 213.315 522.515 214.053 522.694C214.792 522.872 215.551 522.485 215.84 521.782C215.988 521.424 216.152 521.035 216.323 520.629C216.874 519.321 217.502 517.829 217.925 516.571C217.927 516.567 217.929 516.562 217.93 516.556C217.931 516.553 217.933 516.547 217.934 516.544L217.941 516.522L218.434 514.867C218.572 514.406 218.486 513.907 218.203 513.518L217.97 513.199C218.071 513.131 218.193 513.064 218.344 512.985L218.405 512.953C218.63 512.836 219.064 512.611 219.412 512.273C219.893 511.804 220.172 511.185 220.194 510.439C220.214 509.751 219.777 509.133 219.122 508.924C219.064 508.906 219.009 508.889 218.954 508.871L218.716 508.798C218.926 508.543 219.055 508.223 219.067 507.876C219.072 507.721 219.075 507.573 219.078 507.43L219.081 507.315C219.252 507.343 219.426 507.342 219.597 507.313C219.879 507.285 220.156 507.182 220.392 506.998L220.601 506.836C220.995 506.531 221.201 506.07 221.197 505.604C221.322 505.27 221.42 504.949 221.488 504.609C221.59 504.099 221.624 503.588 221.653 503.034C221.657 503.018 221.662 503.003 221.667 502.987C221.672 502.969 221.678 502.951 221.682 502.934L221.749 502.648C222.004 501.421 221.94 500.02 221.887 498.88C221.878 498.675 221.869 498.477 221.862 498.291C221.807 496.76 221.891 495.853 222.227 495.326C222.953 494.189 223.404 493.02 223.793 491.97C223.83 491.869 223.869 491.763 223.905 491.664C224.258 490.707 224.572 489.855 225.027 489.015C225.285 488.54 225.544 488.264 225.907 487.877L226.011 487.767C226.451 487.296 226.982 486.694 227.343 485.686C227.598 484.974 227.3 484.183 226.639 483.817L226.073 483.503C225.804 483.354 225.503 483.295 225.208 483.318C225.333 482.692 225.468 482.05 225.62 481.416C225.929 480.124 226.281 478.957 226.672 478.059C226.919 478.047 227.184 478.038 227.464 478.032C228.091 478.019 228.773 478.019 229.474 478.023L229.528 478.023C229.714 478.024 229.892 478.025 230.066 478.027C230.191 478.028 230.315 478.029 230.437 478.03L230.562 478.031L231.056 478.035L231.331 478.038L231.571 478.039C231.912 478.041 232.247 478.042 232.57 478.041H232.585L233.484 478.029C233.711 478.026 233.935 477.974 234.139 477.874C234.256 477.817 234.378 477.76 234.504 477.704C235.621 477.208 236.878 476.854 238.279 476.557C238.588 476.491 238.904 476.429 239.226 476.368C239.984 476.225 240.786 476.092 241.619 475.954L241.869 475.913C242.136 475.869 242.406 475.824 242.679 475.778C244.941 475.396 247.383 474.938 249.766 474.115C249.788 474.618 249.81 475.143 249.83 475.677L249.868 476.75C249.935 478.603 249.999 480.402 250.09 481.422C250.103 481.565 250.12 481.704 250.136 481.833L250.164 483.123C250.238 487.449 250.168 491.995 250.099 496.496L250.088 497.242C250.053 499.49 250.021 501.724 250.009 503.908C249.998 503.959 249.986 504.01 249.975 504.062C249.951 504.179 249.929 504.295 249.909 504.409C249.807 504.995 249.747 505.612 249.73 506.24C249.716 506.743 249.729 507.258 249.77 507.776C249.975 510.381 250.929 513.436 253.179 515.104C253.397 515.265 253.653 515.366 253.922 515.397C254.395 515.451 254.853 515.452 255.294 515.398C255.589 515.361 255.873 515.3 256.143 515.217C257.932 514.665 258.939 513.207 259.63 512.046C259.811 511.743 259.985 511.434 260.147 511.144C260.313 510.848 260.468 510.57 260.628 510.301C260.948 509.76 261.248 509.319 261.573 508.971C261.598 508.944 261.624 508.917 261.65 508.891C261.66 508.881 261.67 508.871 261.68 508.861C261.693 508.848 261.707 508.834 261.72 508.821C262.028 508.526 262.2 508.116 262.195 507.69L262.188 507.212C262.19 507.111 262.189 506.797 262.076 506.487C261.936 506.108 261.683 505.854 261.617 505.788C262.037 504.958 262.218 504.163 262.299 503.408L262.3 503.389C262.301 503.38 262.301 503.371 262.302 503.362C262.716 503.281 263.091 503.032 263.322 502.654C263.369 502.577 263.411 502.503 263.446 502.44C264.057 501.334 264.297 500.056 264.364 498.816C264.431 497.565 264.326 496.244 264.167 494.984C264.083 494.328 263.983 493.677 263.881 493.051C263.815 492.643 263.747 492.238 263.684 491.863C263.484 490.673 263.312 489.652 263.246 488.82L263.22 488.369L263.21 487.942L263.206 487.462C263.208 486.221 263.29 484.61 263.381 482.936L263.409 482.428C263.483 481.07 263.556 479.698 263.587 478.531C263.689 478.338 263.835 478.093 264.023 477.781L264.032 477.766C264.148 477.574 264.28 477.357 264.391 477.152C264.495 476.96 264.639 476.678 264.724 476.385C264.854 475.933 264.982 475.494 265.108 475.062C265.454 473.877 265.794 472.752 266.193 471.561C266.44 471.332 266.743 471.101 267.102 470.872C267.338 470.722 267.594 470.575 267.87 470.431C269.705 469.471 272.207 468.747 274.808 468.112C275.605 467.917 276.42 467.729 277.221 467.544C278.935 467.149 280.583 466.769 281.838 466.373C282.914 466.033 283.859 465.712 284.746 465.412C286.603 464.782 288.205 464.238 290.232 463.778C290.714 464.644 291.205 465.433 291.719 466.231C291.867 466.46 292.021 466.697 292.176 466.935L292.232 467.021C292.297 468.083 292.405 469.532 292.521 471.098L292.522 471.109C292.755 474.246 293.027 477.897 293.08 480.099L293.089 480.74L293.082 481.259C292.994 482.904 293.371 484.188 293.657 485.162L293.689 485.271C293.991 486.301 294.117 486.858 293.975 487.494C293.971 487.515 293.965 487.537 293.959 487.562C293.954 487.581 293.948 487.603 293.942 487.625C293.77 488.245 294.001 488.907 294.522 489.285C294.626 489.361 294.734 489.429 294.847 489.49C295.758 489.983 296.707 489.88 297.433 489.639C298.155 489.399 298.825 488.975 299.381 488.545C300.495 487.685 301.475 486.554 301.959 485.842C303.446 483.653 302.984 481.538 302.62 479.871C302.561 479.604 302.505 479.348 302.461 479.105L302.188 477.272C302.282 477.112 302.386 476.936 302.483 476.759C302.598 476.549 302.721 476.314 302.819 476.095C302.867 475.986 302.922 475.858 302.965 475.725C302.997 475.627 303.075 475.381 303.075 475.086C303.069 472.599 303.753 470.163 304.503 467.493L304.528 467.404C305.171 465.114 305.86 462.636 305.948 460.065C306.218 460.071 306.49 460.008 306.735 459.871C308.017 459.155 308.96 458.903 309.814 458.753C310.079 458.707 310.335 458.67 310.614 458.631L310.729 458.614C312.069 458.424 313.524 458.195 315.455 456.89L315.464 456.883L315.824 456.636L315.845 456.621C315.856 456.614 315.865 456.606 315.875 456.599C315.896 456.584 315.916 456.568 315.935 456.552C316.217 456.317 316.754 456.001 317.571 455.582C317.999 455.363 318.437 455.148 318.902 454.921L318.978 454.884C319.381 454.687 319.808 454.479 320.265 454.249C322.129 453.315 324.377 452.102 325.671 450.591C326.037 450.164 326.142 449.571 325.944 449.045C325.874 448.86 325.768 448.695 325.639 448.553C325.807 448.431 325.97 448.32 326.125 448.22L326.902 449.999L326.943 450.174C326.978 450.327 327.009 450.461 327.034 450.576C327.13 451.026 327.152 451.215 327.125 452.043V452.055C327.06 454.633 327.201 457.713 327.806 460.692C328.407 463.651 329.493 466.64 331.412 468.91C331.917 469.507 332.595 469.853 333.211 470.054C333.84 470.26 334.519 470.353 335.162 470.37C336.357 470.402 337.804 470.173 338.777 469.514L339.262 469.193C339.417 469.09 339.552 468.96 339.661 468.81C339.872 468.518 340.104 468.185 340.319 467.816C340.88 466.853 341.266 465.342 341.559 463.719C341.864 462.03 342.105 459.995 342.289 457.835C342.319 457.476 342.349 457.111 342.377 456.74C342.638 453.248 342.761 449.463 342.755 446.199C342.75 442.978 342.619 440.142 342.34 438.613C342.26 438.175 342.321 438.056 342.344 438.009C342.378 437.94 342.438 437.841 342.575 437.655C342.607 437.611 342.659 437.543 342.72 437.462C342.837 437.307 342.99 437.106 343.109 436.941C343.183 436.838 343.244 436.726 343.291 436.609L343.618 435.782C344.08 435.37 344.373 435.193 344.541 435.116C344.677 435.054 344.733 435.059 344.784 435.064C344.816 435.066 344.846 435.07 344.885 435.076C344.914 435.08 344.947 435.086 344.991 435.093L345.086 435.108C345.235 435.131 345.464 435.165 345.727 435.167C346.322 435.172 346.921 435.014 347.563 434.623C347.873 434.434 348.107 434.141 348.222 433.796C348.428 433.183 348.508 432.628 348.485 432.105C348.462 431.587 348.34 431.174 348.246 430.887L348.187 430.708C348.31 430.68 348.412 430.678 348.516 430.678C348.536 430.678 348.559 430.678 348.583 430.679C348.624 430.68 348.672 430.683 348.725 430.685C349.136 430.703 349.893 430.738 350.735 430.514C351.312 430.36 351.666 429.958 351.814 429.777C352.001 429.547 352.157 429.287 352.283 429.052C352.537 428.577 352.782 427.99 353.003 427.428C353.137 427.084 353.262 426.751 353.378 426.438C353.715 426.837 354.206 427.312 354.915 427.59C355.771 427.926 356.709 427.885 357.696 427.532C358.102 427.387 358.419 427.081 358.586 426.701C359.134 426.414 359.476 425.815 359.404 425.167C359.364 424.807 359.202 424.489 358.964 424.25C359.099 424.215 359.237 424.177 359.377 424.129C359.569 424.063 359.747 423.96 359.899 423.825C360.117 423.633 360.33 423.463 360.563 423.277L360.588 423.257C360.818 423.075 361.086 422.86 361.333 422.627C361.522 422.448 361.709 422.246 361.88 422.016C361.917 422.222 361.996 422.424 362.119 422.607C362.522 423.207 363.287 423.447 363.961 423.184C365.029 422.765 366.348 421.844 367.473 420.94C368.625 420.014 369.76 418.954 370.453 418.125C370.808 417.7 371.099 417.311 371.319 417.017C371.38 416.936 371.437 416.86 371.487 416.794C371.601 416.644 371.679 416.548 371.731 416.488C371.799 416.504 371.888 416.53 372.005 416.57C372.224 417.033 372.661 417.363 373.175 417.439C373.746 417.522 374.316 417.279 374.652 416.81L374.931 416.419C375.342 415.845 375.31 415.064 374.854 414.526C374.45 414.048 374.4 413.796 374.358 413.578L374.35 413.535L374.338 413.468C374.269 413.079 374.139 412.344 373.463 411.622C373.42 411.576 373.373 411.534 373.325 411.493C373.931 411.257 374.613 411.019 375.328 410.798C376.208 410.526 377.062 410.301 377.798 410.142C377.813 410.452 377.882 410.762 378 411.068C378.299 411.847 379.164 412.247 379.952 411.969L380.018 411.946L380.039 411.938L380.054 411.933L380.177 411.891C380.552 411.761 380.945 411.626 381.284 411.441C381.761 411.179 382.119 410.842 382.521 410.43C383.012 409.926 383.1 409.154 382.735 408.553C382.362 407.938 381.845 407.563 381.385 407.318C381.229 407.234 381.067 407.162 380.909 407.096L380.968 407.085C381.353 407.018 381.734 406.97 382.154 406.918C382.316 406.898 382.484 406.877 382.66 406.854C383.251 406.776 383.92 406.675 384.553 406.487C385.157 406.307 385.664 406.075 386.079 405.872C386.199 405.814 386.313 405.757 386.411 405.708L386.505 405.661C386.721 405.554 386.891 405.471 387.074 405.398C387.323 405.298 387.493 405.262 387.643 405.259C387.652 405.259 387.662 405.259 387.672 405.259L387.687 405.26L387.691 405.273C387.707 405.324 387.723 405.375 387.74 405.425C387.862 405.781 388.015 406.101 388.245 406.529C388.452 406.915 388.814 407.195 389.24 407.298C389.665 407.401 390.115 407.318 390.476 407.07L390.86 406.807C391.25 406.539 391.496 406.106 391.526 405.633C391.533 405.515 391.541 405.398 391.549 405.282L391.552 405.245C391.585 404.75 391.616 404.277 391.6 403.818C391.578 403.182 391.47 402.577 391.244 401.791C391.126 401.381 390.843 401.038 390.462 400.844C389.834 400.524 389.13 400.415 388.48 400.396C387.816 400.377 387.103 400.449 386.385 400.573C384.95 400.822 383.339 401.306 381.782 401.862C378.703 402.959 375.632 404.411 374.133 405.175C371.692 406.2 369.395 407.511 367.169 408.786L367.074 408.84C364.841 410.119 362.671 411.362 360.353 412.369L360.223 412.434L358.411 413.434L355.549 414.921C354.303 415.414 353.05 416.088 351.871 416.758C351.475 416.983 351.089 417.206 350.713 417.423C349.907 417.889 349.14 418.332 348.38 418.731C346.558 419.691 345.041 420.308 343.301 421.016C342.788 421.224 342.253 421.441 341.688 421.677C341.531 421.63 341.426 421.567 341.348 421.5C341.213 421.384 341.059 421.179 340.923 420.807C340.634 420.012 340.547 418.813 340.593 417.259C340.62 416.352 340.682 415.486 340.745 414.595C340.794 413.913 340.844 413.214 340.879 412.472C340.954 410.925 340.962 409.257 340.563 407.933C340.234 406.84 340.096 405.787 340.013 404.776C339.996 404.57 339.981 404.352 339.966 404.131L339.953 403.927C339.905 403.217 339.856 402.472 339.754 401.861C339.604 400.954 339.283 399.873 338.343 399.104C337.411 398.34 336.181 398.135 334.816 398.195C334.713 398.199 334.609 398.205 334.504 398.212C333.702 398.269 332.781 398.415 331.724 398.644C329.924 398.705 328.422 399.153 327.22 399.983C325.982 400.838 325.185 402.014 324.685 403.294C323.72 405.765 323.787 408.832 323.939 411.393C324.044 413.168 324.207 414.895 324.366 416.593C324.643 419.546 324.913 422.42 324.866 425.336L324.866 425.347L324.866 425.362C324.866 425.674 324.863 426.067 324.86 426.494C324.854 427.272 324.846 428.191 324.856 429.069C324.869 430.226 324.911 431.475 325.045 432.445C324.993 432.578 324.946 432.699 324.906 432.8L324.869 432.897C324.845 432.958 324.825 433.008 324.81 433.046L324.806 433.056L324.796 433.081L324.791 433.092L324.786 433.103C324.78 433.118 324.773 433.131 324.768 433.143L324.761 433.158L324.755 433.17L324.744 433.18L324.733 433.188L324.717 433.201L324.704 433.212C324.699 433.216 324.693 433.221 324.687 433.225C324.678 433.232 324.669 433.239 324.659 433.246C324.573 433.309 324.467 433.383 324.315 433.489C324.167 433.593 323.988 433.718 323.775 433.871L323.751 433.89C321.685 435.439 318.645 437.094 315.412 438.731C314.205 439.341 312.964 439.953 311.751 440.55C309.782 441.521 307.885 442.455 306.323 443.294C305.76 443.598 305.312 443.941 304.963 444.221C304.257 439.991 303.802 435.928 303.319 431.619L303.223 430.761C303.131 429.941 303.028 428.707 302.908 427.28C302.818 426.207 302.718 425.025 302.608 423.828C302.361 421.151 302.053 418.305 301.652 416.884C301.625 416.789 301.594 416.687 301.559 416.584C301.328 415.902 300.655 415.471 299.938 415.546C299.833 415.557 299.731 415.579 299.633 415.61C299.485 414.629 299.415 413.63 299.36 412.59C299.35 412.399 299.34 412.2 299.33 412.004C299.266 410.749 299.199 409.411 298.991 408.113C298.912 407.63 298.644 407.311 298.46 407.143C298.353 407.045 298.244 406.971 298.148 406.914C298.183 406.826 298.222 406.736 298.263 406.639C298.362 406.408 298.477 406.139 298.601 405.763C298.778 405.227 298.893 404.571 298.701 403.793C298.522 403.068 298.111 402.381 297.537 401.679C297.373 401.479 297.162 401.324 296.923 401.227L296.82 401.189L296.495 401.096C295.736 400.906 294.967 400.915 294.24 401.203C293.423 401.527 292.847 402.127 292.448 402.765C291.688 403.98 291.367 405.654 291.21 407.189C291.047 408.779 291.039 410.482 291.055 411.909C291.06 412.334 291.067 412.724 291.073 413.078C291.086 413.823 291.095 414.408 291.081 414.816L291.067 415.05C290.739 419.245 290.871 424.162 291.004 429.099C291.036 430.294 291.069 431.49 291.094 432.677C291.226 438.742 291.186 444.594 290.224 449.31C289.624 450.18 288.416 450.967 286.718 451.689C285.469 452.22 284.169 452.636 282.922 453.034C282.373 453.21 281.833 453.382 281.313 453.56C280.528 453.83 279.707 454.134 278.858 454.449L278.691 454.511C276.978 455.148 275.151 455.826 273.27 456.372C270.576 457.154 268.205 457.515 266.465 457.138C266.046 456.695 265.594 456.219 265.089 455.763C265.081 455.755 265.073 455.748 265.064 455.74C265.043 455.686 265.011 455.596 264.974 455.457C264.887 455.13 264.802 454.667 264.727 454.062C264.577 452.856 264.482 451.231 264.434 449.286C264.339 445.406 264.433 440.398 264.605 435.243C264.781 429.983 265.039 424.537 265.253 420.041L265.291 419.252C265.474 415.381 265.617 412.306 265.629 410.812C265.636 410.003 265.017 409.326 264.211 409.262C263.716 409.222 263.199 409.16 262.638 409.092C262.089 409.025 261.498 408.954 260.907 408.907C259.739 408.815 258.424 408.803 257.171 409.178C256.98 409.235 256.803 409.33 256.648 409.454L256.502 409.588C256.137 409.969 255.922 410.482 255.789 410.849C255.634 411.274 255.493 411.786 255.361 412.348C255.096 413.476 254.839 414.941 254.591 416.613C254.095 419.966 253.618 424.277 253.182 428.669C252.789 432.629 252.431 436.636 252.121 440.1C251.745 444.296 251.442 447.694 251.234 449.244C251.053 449.928 250.772 450.485 250.415 451.067C250.31 451.237 250.179 451.438 250.036 451.658L249.922 451.833C249.652 452.25 249.353 452.718 249.111 453.166C248.252 454.755 247.708 456.677 248.005 459.734C244.377 461.312 241.383 461.809 237.147 461.87L237.122 461.871C236.766 461.882 236.433 461.896 236.109 461.909C235.65 461.928 235.207 461.946 234.734 461.955C234.351 461.963 233.974 461.964 233.604 461.954C233.055 461.939 232.533 461.899 232.035 461.822C232.029 461.779 232.021 461.734 232.014 461.687C231.934 461.083 231.869 460.241 231.818 459.21C231.715 457.156 231.674 454.47 231.663 451.685C231.652 449.08 231.667 446.369 231.68 444.04C231.694 441.447 231.706 439.329 231.676 438.362C231.655 437.675 231.18 437.084 230.513 436.915C230.313 436.865 230.111 436.856 229.916 436.884C229.882 434.799 229.71 432.721 229.231 430.829C229.238 430.56 229.248 430.214 229.26 429.805L229.261 429.775C229.27 429.464 229.28 429.118 229.292 428.742L229.319 427.83C229.387 425.595 229.472 422.628 229.519 419.792C229.558 417.431 229.573 415.114 229.529 413.31C229.507 412.411 229.47 411.613 229.411 410.991C229.381 410.683 229.344 410.387 229.293 410.131C229.257 409.951 229.17 409.533 228.924 409.176C228.691 408.838 228.334 408.609 227.935 408.535L227.761 408.514L226.891 408.45C226.609 408.434 226.336 408.427 226.076 408.444C225.471 408.482 224.939 408.637 224.257 408.885C223.993 408.981 223.761 409.148 223.586 409.365L223.514 409.462C223.236 409.868 223.038 410.383 222.886 410.864C222.725 411.376 222.574 411.986 222.431 412.663C222.145 414.02 221.87 415.747 221.6 417.705C221.111 421.262 220.627 425.682 220.131 430.222L219.979 431.61C219.427 436.646 218.856 441.745 218.233 445.982C217.921 448.1 217.6 449.982 217.266 451.52C216.926 453.089 216.592 454.198 216.292 454.826C216.221 454.975 216.117 455.27 216.029 455.52C215.922 455.822 215.783 456.225 215.625 456.69C215.307 457.62 214.905 458.817 214.51 459.994L213.348 463.464C212.322 463.402 211.226 463.417 210.164 463.439L209.741 463.447C208.303 463.478 206.889 463.508 205.541 463.412C202.533 463.199 200.537 462.413 199.67 460.347C199.011 458.684 198.818 456.818 198.8 454.774C198.792 453.829 198.822 452.876 198.852 451.897L198.859 451.66C198.891 450.611 198.92 449.529 198.896 448.469C198.782 443.534 198.931 438.582 199.082 433.585L199.106 432.771C199.244 428.17 199.37 423.534 199.275 418.902L199.22 416.916C199.123 414.161 198.305 412.182 196.683 410.777C195.171 409.466 193.121 408.816 191.024 408.252C190.597 408.137 190.142 408.211 189.773 408.455C189.45 408.669 189.222 408.995 189.128 409.366L189.097 409.529L189.087 409.6C187.179 423.307 186.064 431.312 185.278 445.268L185.244 445.345C185.226 445.384 185.209 445.422 185.193 445.458L185.121 445.622C185.094 445.682 185.071 445.734 185.048 445.782C184.967 445.959 184.932 446.011 184.918 446.03C184.902 446.052 184.837 446.143 184.204 446.541C182.855 447.389 182.102 448.631 181.651 449.902C181.212 451.139 181.024 452.51 180.871 453.718L180.831 454.03C180.687 455.172 180.561 456.171 180.314 457.058C180.055 457.988 179.705 458.615 179.222 459.029C179.2 459.039 179.142 459.065 179.032 459.094C178.835 459.146 178.556 459.191 178.194 459.217C177.469 459.269 176.556 459.237 175.59 459.145C173.612 458.955 171.74 458.546 171.132 458.303L170.96 458.245L170.619 458.149C170.177 458.018 169.734 457.865 169.253 457.7C168.87 457.568 168.462 457.427 168.01 457.282C167.024 456.966 165.876 456.651 164.751 456.629C163.775 456.382 163.39 456.137 162.447 455.538L162.186 455.372L162.044 455.226L162.047 455.132C162.058 454.905 162.072 454.68 162.087 454.457C162.25 452.075 162.644 450.101 163.163 447.799L163.718 445.361L163.806 445.017C164.368 442.82 164.797 441.144 164.088 438.41L163.615 436.566L163.87 435.445C165.516 427.98 166.508 420.279 167.094 412.714C167.191 411.463 166.626 410.03 165.985 408.951C165.347 407.878 164.343 406.66 163.115 406.163C162.569 405.942 161.948 406.053 161.512 406.44L161.428 406.521C160.936 407.03 160.563 407.737 160.268 408.429C159.959 409.154 159.674 410.014 159.408 410.943C158.876 412.801 158.39 415.06 157.953 417.326C157.589 419.213 157.252 421.135 156.95 422.865C156.888 423.216 156.828 423.562 156.769 423.896C156.46 425.654 156.196 427.102 155.976 428.054L155.885 428.431C155.372 430.423 154.754 432.543 154.119 434.721C152.833 439.134 151.478 443.781 150.792 448.072L150.791 448.084L150.725 448.512C150.689 448.599 150.654 448.684 150.62 448.767C150.6 448.818 150.579 448.868 150.559 448.918C150.452 449.181 150.348 449.437 150.217 449.738C150.015 450.206 149.834 450.567 149.678 450.801C149.643 450.849 149.609 450.895 149.576 450.941C149.556 450.968 149.537 450.994 149.518 451.021L149.354 451.245C148.971 451.773 148.765 452.055 148.517 452.305C148.316 452.507 148.066 452.7 147.575 452.96C147.347 452.921 147.101 452.876 146.84 452.82C146.619 452.774 146.388 452.722 146.15 452.666C145.504 452.515 144.745 452.32 143.961 452.118C143.086 451.893 142.179 451.659 141.361 451.47L140.718 451.327C140.466 451.274 140.216 451.225 139.974 451.181C139.611 451.115 139.253 451.061 138.913 451.024C138.447 450.973 137.926 450.944 137.425 451.003C136.698 450.543 135.849 450.04 134.958 449.781C133.771 449.438 132.526 449.517 131.253 450.259L131.189 450.269C131.106 450.282 131.03 450.294 130.961 450.307C130.94 450.218 130.918 450.131 130.892 450.046C130.752 449.583 130.544 449.189 130.243 448.724C130.003 448.354 129.617 448.105 129.181 448.038L128.317 447.906C127.951 447.851 127.578 447.929 127.266 448.125C127.176 447.878 127.059 447.644 126.917 447.425C126.507 446.795 125.917 446.318 125.526 446.002L125.501 445.982C124.5 445.174 124.409 444.994 124.431 444.707C124.731 440.995 125.181 437.326 125.636 433.622C125.817 432.148 125.998 430.667 126.171 429.178C126.776 423.976 127.267 418.701 127.211 413.326C127.207 413.04 127.219 412.642 127.232 412.171C127.27 410.796 127.326 408.794 127.099 407.082C126.943 405.908 126.635 404.627 125.964 403.604C125.236 402.492 124.084 401.711 122.503 401.706C122.218 401.705 121.939 401.784 121.697 401.931L121.595 401.998C120.465 402.815 119.753 404.227 119.262 405.593C118.749 407.021 118.375 408.702 118.088 410.368C117.72 412.511 117.463 414.873 117.265 416.701C117.164 417.627 117.078 418.416 117.001 418.97C116.346 423.434 115.563 427.881 114.653 432.3L114.438 433.321C114.337 433.357 114.237 433.393 114.139 433.431C113.762 433.575 113.411 433.733 113.086 433.904C113.012 433.943 112.931 433.987 112.848 434.034C112.691 434.124 112.54 434.217 112.396 434.314C110.334 435.699 109.898 437.601 109.766 439.328C109.726 439.851 109.709 440.337 109.692 440.804C109.651 441.944 109.615 442.968 109.261 444.131C109.07 444.76 109.299 445.44 109.831 445.826C110.363 446.212 111.081 446.219 111.62 445.842L112.815 445.005C112.827 445.079 112.843 445.152 112.866 445.224L113.108 445.979C113.224 446.341 113.471 446.645 113.795 446.836C113.667 447.488 113.477 448.356 113.238 449.402C112.988 449.024 112.655 448.681 112.226 448.394C111.591 447.968 110.747 448.076 110.238 448.626L110.14 448.742C109.97 448.966 109.775 449.212 109.568 449.471C109.045 450.128 108.449 450.876 108.006 451.601C107.339 452.695 106.813 454.03 107.023 455.629C107.054 455.864 107.138 456.089 107.27 456.285C107.396 456.474 107.474 456.603 107.542 456.715L107.578 456.773L107.588 456.79C107.647 456.887 107.809 457.157 108.071 457.378C108.349 457.613 108.653 457.723 108.77 457.765L108.83 457.788L108.943 457.828C109.046 457.865 109.162 457.908 109.325 457.973C109.973 458.233 110.716 458.025 111.134 457.465C111.195 457.384 111.261 457.292 111.331 457.194L111.353 457.163L111.43 457.056C111.101 458.444 110.766 459.873 110.44 461.291C109.646 464.75 108.901 468.192 108.447 470.895C108.221 472.24 108.06 473.445 108.006 474.395C107.98 474.866 107.977 475.323 108.02 475.725C108.055 476.047 108.144 476.649 108.539 477.135C108.703 477.337 108.912 477.489 109.143 477.585L109.138 477.598L109.132 477.612C108.916 478.176 108.768 478.816 108.801 479.57C108.834 480.309 109.037 481.073 109.404 481.902C109.581 482.303 109.921 482.609 110.338 482.744C111.648 483.169 112.745 482.877 113.63 482.332C114.19 481.987 114.758 481.464 115.189 481.067C115.316 480.95 115.431 480.843 115.531 480.756C115.84 480.485 116.027 480.101 116.052 479.691C116.065 479.473 116.193 478.744 116.434 477.592C116.663 476.498 116.967 475.148 117.284 473.787C117.762 471.732 118.259 469.699 118.568 468.507L119.349 468.209C120.107 467.919 120.511 467.091 120.272 466.316L120.197 466.071C120.307 465.811 120.513 465.473 120.862 465.049C121.345 464.463 121.995 463.84 122.744 463.172C123.042 462.907 123.389 462.605 123.744 462.297C124.193 461.907 124.654 461.507 125.04 461.158C125.775 460.493 126.518 459.769 127.06 459.03C127.152 458.905 127.235 458.784 127.312 458.669L127.856 458.985C127.903 459.169 127.941 459.402 127.962 459.705C127.981 459.966 127.989 460.244 127.996 460.561L127.998 460.666C128.003 460.945 128.01 461.254 128.026 461.562C128.099 462.945 128.39 464.841 130.289 466.07C130.637 466.295 131.061 466.37 131.465 466.279C131.87 466.187 132.221 465.936 132.438 465.583C132.9 464.833 132.909 463.975 132.872 463.372C132.894 463.448 132.918 463.521 132.944 463.593C133.035 463.85 133.152 464.1 133.301 464.333L133.416 464.499C133.998 465.295 134.797 465.596 135.484 465.72C135.824 465.781 136.171 465.806 136.461 465.823C136.53 465.828 136.599 465.832 136.664 465.836L136.706 465.838L136.785 465.843C136.968 465.854 137.142 465.865 137.327 465.883C137.663 465.916 137.99 465.967 138.318 466.06C139.038 466.266 139.632 466.48 140.265 466.707C140.693 466.862 141.14 467.022 141.654 467.191C142.006 467.306 142.372 467.418 142.753 467.52C143.016 467.59 143.286 467.65 143.563 467.708C144.618 468.53 144.797 468.99 144.866 469.277C144.919 469.498 144.936 469.748 144.946 470.195L144.948 470.311C144.957 470.716 144.968 471.243 145.048 471.838L145.098 472.162C145.188 472.688 145.335 473.26 145.568 473.892L145.285 474.895C144.308 478.389 143.402 481.906 142.568 485.44C142.112 486.739 141.44 489.468 140.831 491.939L140.759 492.229C140.429 493.567 140.114 494.838 139.85 495.825C139.718 496.32 139.603 496.728 139.508 497.029C139.45 497.214 139.412 497.316 139.395 497.362Z" fill="var(--fill-0, white)"/>
<path d="M73.5547 474.192C73.5499 474.299 73.545 474.405 73.5402 474.511L73.5249 474.841L73.5238 474.865L73.507 475.226C73.5291 474.749 73.5513 474.27 73.5729 473.788L73.5829 473.563C73.575 473.742 73.567 473.922 73.5588 474.101L73.5547 474.192Z" fill="var(--fill-0, white)"/>
<path d="M73.4166 477.196C73.4015 477.533 73.3868 477.869 73.3727 478.202C73.3958 477.655 73.4207 477.1 73.4462 476.542C73.4362 476.761 73.4263 476.979 73.4166 477.196Z" fill="var(--fill-0, white)"/>
<path d="M73.3727 478.202C73.3868 477.869 73.4015 477.533 73.4166 477.196C73.4263 476.979 73.4362 476.761 73.4462 476.542C73.4207 477.1 73.3958 477.655 73.3727 478.202Z" fill="var(--fill-0, white)"/>
<path d="M73.5545 474.196C73.5497 474.301 73.545 474.406 73.5402 474.511L73.5249 474.841L73.5238 474.865L73.507 475.226C73.5291 474.749 73.5513 474.27 73.5729 473.788L73.5829 473.563C73.575 473.742 73.567 473.922 73.5588 474.101L73.5545 474.196Z" fill="var(--fill-0, white)"/>
<path d="M73.4166 477.196C73.4015 477.533 73.3868 477.869 73.3727 478.202C73.3958 477.655 73.4207 477.1 73.4462 476.542C73.4362 476.761 73.4263 476.979 73.4166 477.196Z" fill="var(--fill-0, white)"/>
<path d="M73.3727 478.202C73.3868 477.869 73.4015 477.533 73.4166 477.196C73.4263 476.979 73.4362 476.761 73.4462 476.542C73.4207 477.1 73.3958 477.655 73.3727 478.202Z" fill="var(--fill-0, white)"/>
<path d="M73.5545 474.196C73.5497 474.301 73.545 474.406 73.5402 474.511L73.5249 474.841L73.5238 474.865L73.507 475.226C73.5291 474.749 73.5513 474.27 73.5729 473.788L73.5829 473.563C73.575 473.742 73.567 473.922 73.5588 474.101L73.5545 474.196Z" fill="var(--fill-0, white)"/>
<path d="M73.4166 477.196C73.4015 477.533 73.3868 477.869 73.3727 478.202C73.3958 477.655 73.4207 477.1 73.4462 476.542C73.4362 476.761 73.4263 476.979 73.4166 477.196Z" fill="var(--fill-0, white)"/>
<path d="M73.3727 478.202C73.3868 477.869 73.4015 477.533 73.4166 477.196C73.4263 476.979 73.4362 476.761 73.4462 476.542C73.4207 477.1 73.3958 477.655 73.3727 478.202Z" fill="var(--fill-0, white)"/>
<path d="M84.8252 404.711C85.5256 404.683 86.082 404.679 86.6748 404.742C87.2329 404.801 87.7695 404.915 88.3701 405.039L88.3994 405.045L89.0273 405.175L89.5244 405.581C93.9726 409.199 95.1424 414.706 95.1445 419.86C95.1467 425.007 93.983 430.439 93.0928 434.609L93.083 434.661L93.0723 434.71L93.0625 434.755L93.0596 434.767C93.0608 434.761 93.0618 434.756 93.0625 434.752V434.749C93.0618 434.753 93.0608 434.759 93.0596 434.765V434.767L93.0518 434.8L93.0527 434.801C93.0511 434.809 93.0498 434.818 93.0479 434.828C93.0459 434.837 93.0433 434.844 93.042 434.85C93.041 434.855 93.0397 434.859 93.0391 434.862C93.0385 434.864 93.0391 434.868 93.0391 434.868L93.0342 434.89L93.0332 434.889C92.9379 435.336 92.8471 435.767 92.7598 436.184C92.763 436.275 92.767 436.363 92.7695 436.443L92.7852 436.871C92.7909 436.997 92.7971 437.111 92.8066 437.22C92.8127 437.289 92.8212 437.35 92.8281 437.403L97.0117 438.331L97.1777 440.372L97.1787 440.387L97.1797 440.403L97.1826 440.451L97.1973 440.618L97.2178 440.848V440.852C97.2975 441.766 97.4246 443.057 97.2041 444.393L96.915 446.145L95.1807 446.53C95.1152 446.544 95.0605 446.557 94.9814 446.575L94.9805 446.574L94.7305 446.63L94.7314 446.631C93.889 446.823 93.1375 446.993 92.1533 447.048C92.1371 447.296 92.119 447.544 92.1035 447.792L92.0166 449.18L89.9854 450.383L89.9766 450.388C89.6197 451.187 89.4087 451.805 89.2578 452.413C89.0285 453.336 88.9107 454.325 88.7236 456.064L88.7139 456.155L88.6973 456.246L87.8594 460.923L87.8477 460.992L87.8311 461.06L87.7393 461.452V461.455C86.7943 465.463 86.1121 468.357 84.3154 472.383C84.0925 474.997 83.7667 477.268 81.9912 479.877C81.9209 481.163 81.763 482.617 81.1436 483.916C80.2831 485.721 78.7556 486.874 76.6777 487.629L75.4863 488.062L74.4062 487.398L73.9443 487.112C73.3741 486.753 72.6389 486.272 71.957 485.727C71.3311 485.227 70.4976 484.479 69.9785 483.539L69.7305 483.062C69.6518 482.902 69.5767 482.741 69.5059 482.58C69.4592 482.473 69.413 482.365 69.3682 482.254L69.3623 482.241L69.3574 482.226L69.2549 481.964L69.2393 481.925C69.1995 481.819 69.1596 481.707 69.1201 481.592C68.0357 478.433 68.0879 474.748 68.4893 471.347C68.8956 467.904 69.7059 464.424 70.3623 461.595L70.3682 461.57L70.3701 461.561C70.3756 461.537 70.3812 461.513 70.3838 461.502L70.3955 461.456C70.3981 461.444 70.4014 461.427 70.4053 461.411C70.4063 461.406 70.4071 461.401 70.4082 461.396C70.4391 461.263 70.4193 461.35 70.4463 461.234C70.5031 460.988 70.559 460.747 70.6133 460.511C70.6546 460.332 70.6946 460.156 70.7334 459.985C70.7445 459.936 70.7552 459.887 70.7666 459.836C70.8225 459.588 70.8764 459.347 70.9268 459.116L70.9629 458.948L71.0215 458.786L71.1758 458.356C71.3439 457.854 71.5197 457.211 71.627 456.61C71.6806 456.309 71.7114 456.051 71.7217 455.848C71.7328 455.628 71.7153 455.561 71.7236 455.601L71.6934 455.455L71.6797 455.306C71.5626 454.027 71.6836 452.875 71.7734 451.976C71.8151 451.559 71.8486 451.192 71.8701 450.841C70.5776 450.594 69.4275 450.172 68.3311 449.551C66.862 448.719 65.5913 447.581 64.3018 446.346C63.1596 445.844 61.6843 445.315 60.2217 444.793C59.9795 444.707 59.7409 444.622 59.5098 444.539C59.4282 444.509 59.3476 444.479 59.2676 444.45C58.4979 444.502 57.6822 444.614 56.7686 444.741C56.5464 444.772 56.3019 444.806 56.0645 444.838L55.9336 444.855L55.8008 445.001L55.2617 444.945L54.1885 445.089L54.0566 444.821L53.623 444.777L46.2764 444.022L50.2754 441.396L49.8467 441.036C49.5111 440.766 49.4332 440.741 49.4229 440.737H49.4199C49.4199 440.737 49.4132 440.735 49.4043 440.733C49.3866 440.729 49.3473 440.723 49.2773 440.718C49.1247 440.708 48.8827 440.71 48.4658 440.742L43.002 441.15L43.7041 440.127C43.6841 440.124 43.6643 440.121 43.6445 440.118C43.5024 440.275 43.3587 440.429 43.2148 440.581L43.1357 440.668L42.2949 441.57L41.0645 441.499C39.4509 441.408 38.5246 440.31 38.1133 439.697C37.7917 439.217 37.5415 438.67 37.3672 438.261C37.0015 438.379 36.5026 438.479 35.8955 438.419C35.1574 438.347 34.4055 438.054 33.7041 437.755L32.0342 437.044L32.0498 436.66L31.623 437.098L29.793 435.808L29.3926 435.527C29.2178 435.405 29.0437 435.284 28.8662 435.161L28.8652 435.16C26.9043 433.795 24.7642 432.323 22.9512 430.12C22.4525 430.128 21.9067 430.126 21.3652 430.103C20.779 430.078 20.143 430.028 19.5518 429.931C19.0423 429.847 18.2466 429.682 17.5566 429.264L13.7793 426.978L17.0576 425.06C16.6698 424.954 16.5207 424.95 16.5576 424.949L16.373 424.955L16.1895 424.934C15.433 424.851 14.7548 424.705 14.1084 424.433L14.1621 425.092L11.7744 427.334L10.7314 427.331C9.3403 427.329 7.54306 426.849 6.0625 426.324C4.56317 425.792 2.88094 425.033 1.77344 424.189C1.3564 423.872 0.740728 423.357 0.375977 422.534C0.0343038 421.762 0.0579427 420.977 0.0546875 420.818C0.0516173 420.667 0.048903 420.546 0.0390625 420.404L0 419.838L0.197266 419.308C0.895965 417.426 2.26273 416.127 3.14746 415.25L3.71191 414.684L4.45508 413.921L5.51855 413.891C9.57809 413.774 12.4985 414.268 16.2529 415.068C18.4745 415.514 20.3369 415.985 22.3115 416.529L24.3418 417.099L24.585 417.168L26.0596 417.915L27.2285 417.958L27.6709 418.145C29.2327 418.801 30.7904 419.231 32.3643 419.661C33.5713 419.99 34.8919 420.347 36.0566 420.824C36.3546 420.922 36.6805 421.027 37.0332 421.141C38.3532 421.567 40.1406 422.139 41.5576 422.77L41.5723 422.741L43.6602 423.233C43.8429 423.276 44.0831 423.33 44.3643 423.393C45.0503 423.546 46.1747 423.794 46.9609 424.037L47.209 423.79L47.4424 424.204L47.4805 424.221C48.3581 424.609 49.7882 425.09 51.2539 425.58L51.2549 425.581L51.5049 425.664C52.1235 425.87 52.7361 426.077 53.251 426.262C53.5615 426.374 53.9153 426.507 54.2402 426.65C56.6756 427.112 61.5901 428.578 63.5713 429.339L64.0537 429.525L64.2871 429.745C65.2201 429.719 66.0602 429.788 66.9082 429.964C68.007 430.193 69.0358 430.588 70.1074 431.006C70.2559 431.05 70.4235 431.1 70.6006 431.153L70.6182 431.159C71.0863 431.299 71.6095 431.456 72.0869 431.584C72.3244 431.648 72.532 431.7 72.7012 431.737C72.8701 431.774 72.9463 431.784 72.9531 431.785L73.0547 431.794L73.1543 431.811C74.3801 432.018 75.3662 432.428 76.2051 432.875C76.3049 432.676 76.4126 432.453 76.5205 432.204C77.1037 430.852 77.6745 429.024 78.2197 426.893C79.3071 422.643 80.1986 417.575 80.9092 413.533C81.2294 411.711 81.5174 410.072 81.7656 408.857C81.8887 408.255 82.0134 407.699 82.1396 407.253C82.2014 407.035 82.2809 406.782 82.3818 406.539C82.4246 406.435 82.6657 405.811 83.2412 405.327L83.9277 404.747L84.8252 404.711ZM70.3838 461.514C70.3832 461.517 70.3828 461.52 70.3828 461.52C70.3828 461.52 70.3839 461.516 70.3848 461.511L70.3838 461.514Z" fill="var(--fill-0, white)"/>
</g>
</g>
</svg>
