<svg width="253" height="253" viewBox="0 0 253 253" fill="none" xmlns="http://www.w3.org/2000/svg">
<rect width="253" height="253" fill="black"/>
<path d="M68.7883 51.4489C69.4788 49.0377 70.7302 46.7383 72.9219 45.376C75.2127 43.9521 78.5075 42.8756 81.1986 43.4888C82.0777 43.7242 83.6284 44.0974 84.3633 44.5922C85.2025 45.0209 86.1252 45.5305 86.8517 46.1365C87.4332 46.434 88.5478 46.9442 88.9138 47.4176L89.0059 47.8917C90.6979 49.2463 91.3166 51.0386 91.7951 53.1145C91.9355 53.8609 92.266 55.393 92.2501 56.07C92.2548 57.1403 92.3264 58.3383 91.9838 59.3498C91.9459 60.1667 91.3005 61.9464 90.775 62.554C90.374 63.361 90.0242 63.7602 89.4694 64.4553L88.6238 65.1974C87.5284 66.1517 86.2548 66.8969 84.8534 67.3005C84.4078 67.4617 83.9001 67.6598 83.4554 67.8023L82.9594 67.8488C82.6336 68.0822 79.7718 67.8948 79.3349 67.7606C78.6036 67.5531 77.7652 67.3442 77.0788 67.0377L76.8792 66.9825C75.9996 66.629 75.6185 66.4813 74.8053 65.9569L74.5177 65.7377C73.2071 64.8502 72.5972 64.4361 71.5725 63.2166C71.1598 62.8482 70.9796 62.5055 70.6885 62.038C70.1572 61.5108 69.4592 59.7676 69.1543 59.0395C69.0244 58.8144 68.853 58.2581 68.7591 57.9866C68.318 55.9588 68.3167 54.98 68.4759 52.9525C68.5133 52.5985 68.7047 51.8296 68.7883 51.4489Z" fill="white"/>
<path d="M177.269 44.4615C179.825 43.3362 183.871 43.0354 186.484 44.0684C190.105 45.4992 191.868 47.9729 192.806 51.6615C193.037 52.3723 193.041 54.4519 192.904 55.1662C192.825 55.7716 192.726 56.7552 192.587 57.3198C192.423 57.81 192.146 58.725 191.918 59.1433C191.75 59.4832 191.553 59.9612 191.297 60.2172C190.916 61.3436 190.391 61.9025 189.619 62.793C187.844 64.7643 185.902 66.4347 183.144 66.8273C178.348 68.1669 173.677 66.0921 171.093 61.9083C168.325 57.4263 169.562 49.4196 174.222 46.6761C174.876 45.7017 176.245 44.982 177.269 44.4615Z" fill="white"/>
<path d="M80.3825 201.494C80.3809 201.529 80.3793 201.565 80.3777 201.6L80.3726 201.71L80.3722 201.718L80.3666 201.839C80.374 201.68 80.3814 201.52 80.3886 201.359L80.392 201.284C80.3893 201.344 80.3866 201.404 80.3839 201.463L80.3825 201.494Z" fill="white"/>
<path d="M80.3365 202.496C80.3314 202.608 80.3265 202.72 80.3219 202.831C80.3295 202.649 80.3378 202.464 80.3464 202.278C80.343 202.351 80.3397 202.423 80.3365 202.496Z" fill="white"/>
<path d="M80.3219 202.831C80.3265 202.72 80.3314 202.608 80.3365 202.496C80.3397 202.423 80.343 202.351 80.3464 202.278C80.3378 202.464 80.3295 202.649 80.3219 202.831Z" fill="white"/>
<path d="M80.3825 201.495C80.3809 201.53 80.3793 201.565 80.3777 201.6L80.3726 201.71L80.3722 201.718L80.3666 201.839C80.374 201.68 80.3814 201.52 80.3886 201.359L80.392 201.284C80.3893 201.344 80.3866 201.404 80.3839 201.463L80.3825 201.495Z" fill="white"/>
<path d="M80.3365 202.496C80.3314 202.608 80.3265 202.72 80.3219 202.831C80.3295 202.649 80.3378 202.464 80.3464 202.278C80.343 202.351 80.3397 202.423 80.3365 202.496Z" fill="white"/>
<path d="M80.3219 202.831C80.3265 202.72 80.3314 202.608 80.3365 202.496C80.3397 202.423 80.343 202.351 80.3464 202.278C80.3378 202.464 80.3295 202.649 80.3219 202.831Z" fill="white"/>
<path d="M80.3825 201.494C80.3809 201.529 80.3793 201.565 80.3777 201.6L80.3726 201.71L80.3722 201.718L80.3666 201.839C80.374 201.68 80.3814 201.52 80.3886 201.359L80.392 201.284C80.3893 201.344 80.3866 201.404 80.3839 201.463L80.3825 201.494Z" fill="white"/>
<path d="M80.3365 202.496C80.3314 202.608 80.3265 202.72 80.3219 202.831C80.3295 202.649 80.3378 202.464 80.3464 202.278C80.343 202.351 80.3397 202.423 80.3365 202.496Z" fill="white"/>
<path d="M80.3219 202.831C80.3265 202.72 80.3314 202.608 80.3365 202.496C80.3397 202.423 80.343 202.351 80.3464 202.278C80.3378 202.464 80.3295 202.649 80.3219 202.831Z" fill="white"/>
<path d="M130.368 140.94C129.952 138.586 131.365 137.82 131.181 135.577C131.139 135.076 131.213 134.776 131.542 134.445L131.747 134.474C131.947 135.221 131.514 135.885 131.724 136.364C132.524 135.807 132.245 136.115 132.681 135.097C133.908 134.984 134.718 133.583 135.515 133.61C135.971 134.712 137.007 134.862 137.773 135.655C138.067 135.96 138.533 136.862 138.726 137.269C139.134 138.618 139.566 138.796 138.927 140.095C139.081 140.617 139.244 141.284 139.522 141.733C136.165 145.32 132.775 145.674 130.368 140.94Z" fill="white"/>
<path d="M115.328 140.328C114.506 138.549 116.749 135.914 118.255 135.132C119.323 134.578 119.473 134.903 120.456 135.254C121.291 135.907 121.731 136.266 122.459 137.074C121.179 141.571 119.418 144.468 114.347 142.267C114.672 141.538 114.938 141.024 115.328 140.328Z" fill="white"/>
<path d="M80.3825 201.494C80.3809 201.529 80.3793 201.565 80.3777 201.6L80.3726 201.71L80.3722 201.718L80.3666 201.839C80.374 201.68 80.3814 201.52 80.3886 201.359L80.392 201.284C80.3893 201.344 80.3866 201.404 80.3839 201.463L80.3825 201.494Z" fill="white"/>
<path d="M80.3365 202.496C80.3314 202.608 80.3265 202.72 80.3219 202.831C80.3295 202.649 80.3378 202.464 80.3464 202.278C80.343 202.351 80.3397 202.423 80.3365 202.496Z" fill="white"/>
<path d="M80.3219 202.831C80.3265 202.72 80.3314 202.608 80.3365 202.496C80.3397 202.423 80.343 202.351 80.3464 202.278C80.3378 202.464 80.3295 202.649 80.3219 202.831Z" fill="white"/>
<path d="M80.3825 201.494C80.3809 201.529 80.3793 201.565 80.3777 201.6L80.3726 201.71L80.3722 201.718L80.3666 201.839C80.374 201.68 80.3814 201.52 80.3886 201.359L80.392 201.284C80.3893 201.344 80.3866 201.404 80.3839 201.463L80.3825 201.494Z" fill="white"/>
<path d="M80.3365 202.496C80.3314 202.608 80.3265 202.72 80.3219 202.831C80.3295 202.649 80.3378 202.464 80.3464 202.278C80.343 202.351 80.3397 202.423 80.3365 202.496Z" fill="white"/>
<path d="M80.3219 202.831C80.3265 202.72 80.3314 202.608 80.3365 202.496C80.3397 202.423 80.343 202.351 80.3464 202.278C80.3378 202.464 80.3295 202.649 80.3219 202.831Z" fill="white"/>
<path fill-rule="evenodd" clip-rule="evenodd" d="M102.346 209.223C102.347 209.221 102.35 209.22 102.351 209.218C102.35 209.22 102.347 209.221 102.346 209.223Z" fill="white"/>
<path fill-rule="evenodd" clip-rule="evenodd" d="M102.346 209.223C102.345 209.224 102.345 209.227 102.345 209.228C102.346 209.227 102.345 209.224 102.346 209.223C102.347 209.221 102.35 209.22 102.351 209.218C102.35 209.219 102.347 209.222 102.346 209.223ZM102.337 209.242C102.336 209.245 102.334 209.248 102.332 209.251L102.328 209.26C102.329 209.258 102.331 209.254 102.332 209.251C102.334 209.247 102.336 209.245 102.337 209.242ZM128.545 215.621C128.545 215.619 128.546 215.616 128.547 215.614C128.546 215.616 128.545 215.619 128.545 215.621ZM164.908 193.482C164.914 193.508 164.919 193.532 164.924 193.554C164.919 193.533 164.913 193.507 164.908 193.482Z" fill="white"/>
<path fill-rule="evenodd" clip-rule="evenodd" d="M102.345 209.228C102.347 209.225 102.349 209.222 102.351 209.218C102.35 209.22 102.347 209.222 102.346 209.223C102.345 209.224 102.345 209.227 102.345 209.228ZM170.878 188.443C170.873 188.443 170.868 188.442 170.864 188.442C170.868 188.442 170.873 188.443 170.878 188.443ZM102.332 209.251C102.333 209.249 102.334 209.249 102.335 209.247C102.336 209.245 102.337 209.243 102.337 209.242C102.336 209.245 102.334 209.247 102.332 209.251Z" fill="white"/>
<path fill-rule="evenodd" clip-rule="evenodd" d="M102.346 209.223C102.347 209.221 102.35 209.22 102.351 209.218C102.349 209.222 102.347 209.225 102.345 209.228C102.345 209.229 102.343 209.231 102.343 209.231L102.337 209.242C102.336 209.245 102.334 209.247 102.332 209.251C102.331 209.254 102.329 209.258 102.328 209.26L102.326 209.264L102.305 209.312C102.269 209.411 102.227 209.522 102.182 209.64C102.035 210.023 101.856 210.493 101.723 210.957C101.553 211.551 101.42 212.255 101.583 212.857C101.595 212.901 101.613 212.942 101.636 212.982C101.637 212.983 101.638 212.987 101.64 212.992L101.643 213L101.646 213.008L101.648 213.014C101.661 213.052 101.676 213.105 101.693 213.175C101.728 213.313 101.764 213.488 101.8 213.675C101.847 213.929 101.888 214.175 101.92 214.369C101.936 214.468 101.95 214.553 101.962 214.618C101.996 214.812 102.138 214.97 102.327 215.024C102.517 215.078 102.72 215.018 102.851 214.872C104.212 213.349 104.492 212.199 104.917 210.452C104.934 210.384 104.951 210.315 104.968 210.245C105.011 210.067 104.956 209.881 104.828 209.756C104.898 209.609 104.966 209.419 105.03 209.225C105.112 208.973 105.201 208.668 105.29 208.345C105.469 207.698 105.655 206.957 105.8 206.369L106.02 205.481L106.207 204.921L106.208 204.918C106.603 203.715 106.883 202.675 107.087 201.398C107.341 201.35 107.511 201.209 107.63 201.061C107.686 200.992 107.734 200.917 107.77 200.86C107.775 200.853 107.779 200.846 107.784 200.839L107.791 200.828L107.797 200.819C107.859 200.801 107.91 200.793 107.954 200.791C107.991 200.789 108.029 200.79 108.068 200.794L108.132 200.804C108.196 200.814 108.259 200.829 108.343 200.849L108.382 200.858C108.515 200.889 108.683 200.926 108.883 200.94C108.983 200.947 109.089 200.948 109.204 200.941C109.491 200.924 109.752 200.847 109.959 200.669C110.162 200.495 110.253 200.277 110.305 200.116L110.306 200.111L110.308 200.104C110.309 200.102 110.31 200.1 110.31 200.098C110.311 200.095 110.312 200.093 110.312 200.091L110.316 200.079L110.319 200.067L110.322 200.058C110.357 200.099 110.397 200.145 110.444 200.197C110.503 200.263 110.579 200.312 110.664 200.34L110.782 200.379C111.133 200.497 111.421 200.612 111.67 200.722C111.713 200.742 111.757 200.761 111.799 200.781L112.012 200.881C112.13 200.938 112.24 200.993 112.349 201.048C112.427 201.087 112.504 201.126 112.583 201.165C112.831 201.287 113.085 201.404 113.381 201.5C113.473 201.53 113.568 201.558 113.669 201.583L113.784 201.611C113.9 201.637 114.023 201.661 114.154 201.681C114.445 201.726 114.773 201.754 115.157 201.764C115.234 201.766 115.314 201.767 115.395 201.768C115.526 201.769 115.664 201.768 115.809 201.766L115.97 201.829C116.079 201.872 116.188 201.913 116.294 201.954C116.305 201.958 116.317 201.962 116.328 201.967C116.337 201.97 116.346 201.973 116.355 201.977L116.402 201.994C116.428 202.003 116.454 202.013 116.479 202.022C116.601 202.692 116.64 203.467 116.662 204.295C116.667 204.47 116.671 204.647 116.675 204.825C116.692 205.579 116.71 206.36 116.785 207.079L116.793 207.696C116.794 207.772 116.812 207.845 116.844 207.911C116.754 208.017 116.685 208.135 116.621 208.257C116.584 208.327 116.545 208.405 116.504 208.49C116.491 208.518 116.478 208.545 116.467 208.571C116.457 208.594 116.445 208.622 116.434 208.652C116.423 208.68 116.414 208.708 116.405 208.733L116.381 208.815C116.33 209.007 116.318 209.205 116.363 209.398C116.376 209.451 116.393 209.505 116.416 209.558L116.418 209.564L116.42 209.568L116.422 209.573L116.426 209.582L116.43 209.589C116.432 209.594 116.434 209.599 116.437 209.604C116.441 209.614 116.446 209.624 116.451 209.632C116.477 209.683 116.507 209.728 116.537 209.769C116.562 209.802 116.589 209.833 116.617 209.863C116.611 209.866 116.605 209.87 116.599 209.873L116.517 209.927C116.167 210.182 116.039 210.59 115.977 210.881C115.943 211.038 115.921 211.197 115.903 211.337L115.894 211.412C115.881 211.516 115.87 211.605 115.857 211.688C115.691 212.279 115.513 212.869 115.325 213.453C115.317 213.479 115.31 213.505 115.306 213.532C115.296 213.596 115.282 213.677 115.266 213.771C115.208 214.112 115.12 214.623 115.089 215.103C115.07 215.41 115.07 215.741 115.126 216.036C115.178 216.315 115.302 216.672 115.625 216.884C115.731 216.953 115.858 216.981 115.984 216.962C116.382 216.902 116.766 216.672 117.082 216.4C117.407 216.122 117.708 215.76 117.935 215.366C118.306 214.72 118.569 213.796 118.115 213.046C118.265 212.736 118.33 212.462 118.4 212.168L118.41 212.127C118.46 212.071 118.517 212.003 118.552 211.951C118.566 211.931 118.592 211.89 118.613 211.84C118.631 211.797 118.641 211.772 118.651 211.747L118.662 211.72C118.669 211.703 118.677 211.683 118.689 211.656L118.769 211.461C118.866 211.229 118.967 210.984 119.068 210.737C119.226 210.349 119.388 209.944 119.547 209.526C119.587 209.422 119.627 209.317 119.667 209.21C119.786 208.892 119.903 208.567 120.015 208.238L120.18 207.741C120.342 207.241 120.49 206.732 120.617 206.222C120.674 205.996 120.726 205.768 120.773 205.541C120.915 204.862 121.012 204.18 121.041 203.517C121.046 203.406 121.049 203.295 121.05 203.186C121.051 203.13 121.051 203.075 121.05 203.021C121.049 202.932 121.047 202.845 121.043 202.762L121.043 202.758C121.043 202.745 121.041 202.71 121.041 202.694C121.037 202.614 121.032 202.534 121.025 202.454L121.05 202.485C121.053 202.489 121.055 202.492 121.058 202.496C121.109 202.558 121.142 202.606 121.162 202.637C121.157 202.674 121.155 202.722 121.161 202.775C121.175 202.895 121.224 202.994 121.283 203.07C121.374 203.185 121.503 203.26 121.579 203.303C121.612 203.322 121.65 203.343 121.69 203.364C121.731 203.385 121.776 203.408 121.826 203.433C121.902 203.472 121.987 203.491 122.072 203.488C122.163 203.486 122.249 203.48 122.331 203.47L122.414 203.457C122.438 203.452 122.467 203.447 122.496 203.439C122.581 203.418 122.659 203.39 122.732 203.354C122.754 203.343 122.778 203.33 122.801 203.317C122.906 203.258 123.019 203.172 123.125 203.091C123.138 203.081 123.152 203.07 123.165 203.06C123.181 203.048 123.197 203.036 123.212 203.025C123.3 202.959 123.364 202.867 123.396 202.763L123.398 202.758C123.507 202.759 123.614 202.724 123.703 202.66C123.807 202.584 123.933 202.458 124.024 202.365C124.074 202.314 124.133 202.252 124.184 202.198L124.221 202.159L124.29 202.125L124.512 202.24C124.664 202.319 124.847 202.316 124.997 202.233L125.087 202.183C125.149 202.217 125.205 202.263 125.278 202.325L125.287 202.332C125.341 202.377 125.462 202.479 125.614 202.532C125.831 202.608 126.047 202.572 126.234 202.462C126.465 202.326 126.639 202.244 126.768 202.199C126.816 202.182 126.853 202.173 126.881 202.167C126.885 202.185 126.891 202.208 126.896 202.237C126.936 202.46 126.932 202.798 126.916 203.289L126.911 203.43C126.896 203.866 126.879 204.38 126.897 204.929C126.899 205.131 126.894 205.434 126.889 205.804C126.877 206.688 126.86 207.954 126.904 209.149C126.936 210.003 126.999 210.854 127.123 211.546C127.182 211.872 127.257 212.179 127.356 212.44C127.183 212.507 127.061 212.661 127.032 212.841L127.028 212.878C126.965 213.639 126.951 214.367 126.939 215.067L126.938 215.091C126.926 215.788 126.914 216.456 126.858 217.131C126.837 217.383 127.004 217.613 127.25 217.673C127.496 217.732 127.75 217.603 127.846 217.369C127.895 217.249 127.95 217.12 128.007 216.984C128.191 216.548 128.401 216.05 128.542 215.631C128.542 215.629 128.543 215.627 128.543 215.625C128.544 215.624 128.544 215.623 128.545 215.621L128.547 215.614L128.711 215.062C128.757 214.908 128.729 214.742 128.634 214.612L128.557 214.506C128.59 214.483 128.631 214.461 128.681 214.434L128.702 214.424C128.777 214.385 128.922 214.31 129.037 214.197C129.198 214.04 129.291 213.834 129.298 213.585C129.305 213.355 129.159 213.149 128.941 213.08C128.921 213.073 128.903 213.068 128.885 213.062L128.806 213.038C128.875 212.953 128.918 212.846 128.922 212.73C128.924 212.678 128.925 212.629 128.926 212.581L128.927 212.543C128.984 212.552 129.042 212.552 129.099 212.542C129.193 212.533 129.286 212.498 129.365 212.437L129.434 212.383C129.566 212.281 129.634 212.128 129.633 211.972C129.675 211.861 129.707 211.754 129.73 211.64C129.764 211.47 129.776 211.3 129.785 211.115C129.787 211.11 129.788 211.104 129.79 211.099C129.792 211.093 129.793 211.087 129.795 211.081L129.817 210.986C129.902 210.577 129.881 210.109 129.863 209.729C129.86 209.661 129.857 209.595 129.855 209.533C129.836 209.022 129.865 208.719 129.977 208.544C130.219 208.164 130.369 207.774 130.499 207.424C130.511 207.39 130.524 207.355 130.536 207.322C130.654 207.003 130.759 206.719 130.911 206.438C130.997 206.28 131.083 206.188 131.204 206.059L131.239 206.022C131.386 205.865 131.563 205.664 131.683 205.328C131.768 205.09 131.669 204.826 131.448 204.704L131.26 204.6C131.17 204.55 131.069 204.53 130.971 204.538C131.013 204.329 131.058 204.115 131.108 203.904C131.212 203.473 131.329 203.083 131.46 202.784C131.542 202.78 131.63 202.777 131.724 202.775C131.933 202.77 132.16 202.77 132.394 202.772L132.412 202.772C132.474 202.772 132.534 202.772 132.592 202.773C132.633 202.773 132.674 202.774 132.715 202.774L132.757 202.774L132.922 202.776L133.013 202.777L133.094 202.777C133.207 202.778 133.319 202.778 133.427 202.778H133.432L133.732 202.774C133.808 202.773 133.882 202.755 133.95 202.722C133.989 202.703 134.03 202.684 134.072 202.665C134.445 202.5 134.864 202.382 135.331 202.283C135.434 202.261 135.54 202.24 135.647 202.22C135.9 202.172 136.167 202.128 136.445 202.082L136.529 202.068C136.618 202.053 136.708 202.038 136.799 202.023C137.553 201.895 138.368 201.742 139.163 201.468C139.17 201.636 139.178 201.811 139.184 201.989L139.197 202.347C139.219 202.965 139.241 203.565 139.271 203.905C139.276 203.953 139.281 204 139.287 204.043L139.296 204.473C139.321 205.916 139.297 207.433 139.274 208.934L139.27 209.183C139.259 209.933 139.248 210.678 139.244 211.406C139.24 211.423 139.236 211.44 139.233 211.458C139.225 211.497 139.217 211.536 139.211 211.574C139.177 211.769 139.157 211.975 139.151 212.184C139.146 212.352 139.151 212.524 139.164 212.697C139.233 213.566 139.551 214.585 140.302 215.141C140.374 215.195 140.46 215.228 140.55 215.239C140.707 215.257 140.86 215.257 141.007 215.239C141.105 215.227 141.2 215.207 141.29 215.179C141.887 214.995 142.223 214.508 142.454 214.121C142.514 214.02 142.572 213.917 142.626 213.82C142.681 213.721 142.733 213.629 142.786 213.539C142.893 213.358 142.993 213.211 143.102 213.095C143.11 213.086 143.119 213.077 143.127 213.069C143.131 213.065 143.134 213.062 143.137 213.059C143.142 213.054 143.146 213.05 143.151 213.045C143.253 212.947 143.311 212.81 143.309 212.668L143.307 212.509C143.308 212.475 143.307 212.37 143.269 212.266C143.223 212.14 143.138 212.056 143.116 212.034C143.256 211.757 143.317 211.491 143.344 211.239L143.344 211.233C143.344 211.23 143.345 211.227 143.345 211.224C143.483 211.197 143.608 211.114 143.685 210.988C143.701 210.962 143.715 210.938 143.726 210.917C143.93 210.548 144.01 210.122 144.033 209.708C144.055 209.291 144.02 208.85 143.967 208.429C143.939 208.211 143.906 207.993 143.872 207.785C143.85 207.648 143.827 207.514 143.806 207.388C143.739 206.991 143.682 206.651 143.66 206.373L143.651 206.223L143.648 206.08L143.646 205.92C143.647 205.506 143.675 204.969 143.705 204.41L143.714 204.241C143.739 203.788 143.763 203.33 143.774 202.941C143.808 202.877 143.856 202.795 143.919 202.691L143.922 202.686C143.961 202.622 144.005 202.549 144.042 202.481C144.077 202.417 144.124 202.323 144.153 202.225C144.196 202.074 144.239 201.928 144.281 201.784C144.396 201.389 144.51 201.013 144.643 200.616C144.725 200.54 144.826 200.463 144.946 200.386C145.025 200.336 145.11 200.287 145.202 200.239C145.814 199.919 146.649 199.677 147.517 199.465C147.782 199.401 148.054 199.338 148.321 199.276C148.893 199.144 149.443 199.018 149.862 198.886C150.221 198.772 150.536 198.665 150.832 198.565C151.451 198.355 151.986 198.173 152.662 198.02C152.823 198.309 152.986 198.572 153.158 198.838C153.207 198.914 153.259 198.994 153.31 199.073L153.329 199.102C153.351 199.456 153.387 199.939 153.425 200.462L153.426 200.465C153.503 201.512 153.594 202.729 153.612 203.464L153.615 203.678L153.612 203.851C153.583 204.4 153.709 204.828 153.804 205.153L153.815 205.189C153.916 205.533 153.958 205.719 153.91 205.931C153.909 205.938 153.907 205.945 153.905 205.954C153.903 205.96 153.901 205.967 153.899 205.975C153.842 206.182 153.919 206.402 154.093 206.529C154.127 206.554 154.164 206.577 154.201 206.597C154.505 206.761 154.821 206.727 155.064 206.646C155.305 206.567 155.528 206.425 155.714 206.282C156.085 205.995 156.412 205.617 156.573 205.38C157.07 204.65 156.916 203.944 156.794 203.388C156.775 203.299 156.756 203.214 156.741 203.132L156.65 202.521C156.681 202.468 156.716 202.409 156.748 202.35C156.787 202.28 156.828 202.202 156.86 202.128C156.877 202.092 156.895 202.049 156.909 202.005C156.92 201.973 156.946 201.89 156.946 201.792C156.944 200.962 157.172 200.15 157.422 199.259L157.431 199.229C157.645 198.465 157.875 197.639 157.904 196.781C157.994 196.783 158.085 196.762 158.167 196.717C158.594 196.478 158.909 196.394 159.194 196.344C159.282 196.328 159.368 196.316 159.461 196.303L159.499 196.297C159.946 196.234 160.431 196.157 161.075 195.722L161.079 195.72L161.199 195.637L161.206 195.632C161.209 195.63 161.213 195.627 161.216 195.625C161.223 195.62 161.229 195.615 161.236 195.609C161.33 195.531 161.509 195.425 161.781 195.286C161.924 195.213 162.07 195.141 162.225 195.065L162.251 195.053C162.385 194.987 162.528 194.918 162.68 194.841C163.302 194.53 164.052 194.125 164.484 193.621C164.606 193.478 164.641 193.281 164.574 193.105C164.551 193.043 164.516 192.988 164.473 192.941C164.529 192.9 164.583 192.863 164.635 192.83L164.894 193.423L164.908 193.482C164.919 193.533 164.93 193.577 164.938 193.616C164.97 193.766 164.977 193.829 164.968 194.105V194.109C164.947 194.969 164.994 195.997 165.196 196.99C165.396 197.977 165.758 198.974 166.398 199.732C166.567 199.931 166.793 200.046 166.998 200.113C167.208 200.182 167.435 200.213 167.649 200.219C168.048 200.229 168.531 200.153 168.855 199.933L169.017 199.826C169.069 199.792 169.114 199.748 169.15 199.698C169.22 199.601 169.298 199.49 169.37 199.367C169.557 199.046 169.686 198.542 169.783 198C169.885 197.437 169.966 196.758 170.027 196.037C170.037 195.918 170.047 195.796 170.056 195.672C170.143 194.507 170.184 193.245 170.182 192.156C170.181 191.081 170.137 190.135 170.044 189.625C170.017 189.479 170.037 189.439 170.045 189.424C170.056 189.401 170.076 189.368 170.122 189.306C170.133 189.291 170.15 189.268 170.171 189.241C170.21 189.19 170.261 189.123 170.3 189.067C170.325 189.033 170.345 188.996 170.361 188.957L170.47 188.681C170.624 188.544 170.722 188.484 170.778 188.459C170.823 188.438 170.842 188.44 170.859 188.441C170.87 188.442 170.88 188.443 170.893 188.445C170.902 188.447 170.914 188.449 170.928 188.451L170.96 188.456C171.01 188.464 171.086 188.475 171.174 188.476C171.372 188.477 171.572 188.425 171.786 188.294C171.89 188.231 171.968 188.133 172.006 188.018C172.075 187.814 172.101 187.629 172.094 187.454C172.086 187.281 172.045 187.144 172.014 187.048L171.994 186.988C172.035 186.979 172.069 186.978 172.104 186.978C172.111 186.978 172.118 186.978 172.126 186.979C172.14 186.979 172.156 186.98 172.174 186.981C172.311 186.987 172.563 186.998 172.844 186.924C173.037 186.872 173.155 186.738 173.204 186.678C173.267 186.601 173.319 186.514 173.361 186.436C173.445 186.278 173.527 186.082 173.601 185.894C173.646 185.779 173.687 185.668 173.726 185.564C173.838 185.697 174.002 185.856 174.239 185.948C174.524 186.06 174.837 186.047 175.166 185.929C175.302 185.88 175.408 185.779 175.463 185.652C175.646 185.556 175.76 185.356 175.736 185.14C175.723 185.02 175.669 184.914 175.589 184.834C175.634 184.822 175.68 184.81 175.727 184.794C175.791 184.772 175.85 184.737 175.901 184.692C175.974 184.628 176.045 184.572 176.123 184.51L176.131 184.503C176.208 184.442 176.297 184.371 176.379 184.293C176.443 184.233 176.505 184.166 176.562 184.089C176.574 184.158 176.601 184.225 176.642 184.286C176.776 184.486 177.032 184.566 177.256 184.478C177.612 184.339 178.053 184.031 178.428 183.73C178.812 183.421 179.191 183.067 179.422 182.791C179.54 182.649 179.637 182.519 179.711 182.421C179.731 182.394 179.75 182.369 179.767 182.347C179.805 182.297 179.831 182.265 179.848 182.245C179.871 182.25 179.901 182.259 179.94 182.272C180.013 182.427 180.158 182.537 180.33 182.562C180.52 182.59 180.71 182.509 180.822 182.352L180.916 182.222C181.053 182.03 181.042 181.77 180.89 181.59C180.755 181.431 180.739 181.347 180.724 181.274L180.722 181.26L180.718 181.238C180.695 181.108 180.651 180.863 180.426 180.622C180.412 180.606 180.396 180.592 180.38 180.579C180.582 180.5 180.809 180.421 181.048 180.347C181.342 180.256 181.626 180.181 181.872 180.128C181.877 180.231 181.9 180.335 181.939 180.437C182.039 180.697 182.328 180.83 182.59 180.737L182.613 180.73L182.619 180.727L182.625 180.725L182.666 180.711C182.791 180.668 182.922 180.623 183.035 180.561C183.194 180.474 183.313 180.361 183.447 180.224C183.611 180.056 183.641 179.798 183.519 179.598C183.394 179.393 183.222 179.268 183.069 179.186C183.017 179.158 182.962 179.134 182.91 179.112L182.93 179.108C183.058 179.086 183.185 179.07 183.325 179.052C183.379 179.046 183.435 179.039 183.494 179.031C183.691 179.005 183.914 178.971 184.125 178.909C184.327 178.848 184.496 178.771 184.634 178.704C184.674 178.684 184.713 178.665 184.745 178.649L184.776 178.633C184.848 178.597 184.905 178.57 184.966 178.545C185.049 178.512 185.106 178.5 185.156 178.499C185.159 178.499 185.162 178.499 185.166 178.499L185.171 178.499L185.172 178.504C185.177 178.521 185.183 178.538 185.188 178.554C185.229 178.673 185.28 178.78 185.357 178.923C185.426 179.051 185.547 179.145 185.689 179.179C185.831 179.214 185.981 179.186 186.101 179.103L186.229 179.015C186.359 178.926 186.441 178.781 186.451 178.624C186.454 178.584 186.456 178.545 186.459 178.507L186.46 178.495C186.471 178.329 186.482 178.172 186.476 178.018C186.469 177.806 186.433 177.604 186.357 177.342C186.318 177.205 186.223 177.091 186.097 177.026C185.887 176.919 185.652 176.883 185.435 176.877C185.214 176.87 184.976 176.895 184.737 176.936C184.258 177.019 183.72 177.18 183.201 177.366C182.174 177.732 181.149 178.216 180.65 178.471C179.835 178.813 179.069 179.25 178.326 179.676L178.295 179.694C177.55 180.12 176.826 180.535 176.053 180.871L176.009 180.892L175.405 181.226L174.45 181.722C174.034 181.887 173.617 182.112 173.223 182.335C173.091 182.41 172.962 182.484 172.837 182.557C172.568 182.712 172.312 182.86 172.059 182.993C171.451 183.313 170.945 183.519 170.364 183.755C170.193 183.825 170.015 183.897 169.826 183.976C169.774 183.96 169.739 183.939 169.713 183.917C169.668 183.878 169.617 183.81 169.571 183.685C169.475 183.42 169.446 183.02 169.461 182.502C169.47 182.199 169.491 181.911 169.512 181.613C169.528 181.386 169.545 181.153 169.557 180.905C169.582 180.389 169.584 179.833 169.451 179.391C169.341 179.026 169.295 178.675 169.268 178.338C169.262 178.269 169.257 178.196 169.252 178.123L169.248 178.055C169.232 177.818 169.215 177.569 169.181 177.365C169.131 177.063 169.024 176.703 168.711 176.446C168.4 176.191 167.989 176.123 167.534 176.142C167.5 176.144 167.465 176.146 167.43 176.148C167.163 176.167 166.855 176.216 166.503 176.292C165.902 176.313 165.401 176.462 165 176.739C164.587 177.024 164.321 177.417 164.155 177.844C163.833 178.668 163.855 179.691 163.906 180.545C163.941 181.137 163.995 181.713 164.048 182.28C164.141 183.265 164.231 184.224 164.215 185.196L164.215 185.2L164.215 185.205C164.215 185.309 164.214 185.44 164.213 185.583C164.211 185.842 164.208 186.149 164.212 186.441C164.216 186.828 164.23 187.244 164.275 187.568C164.257 187.612 164.242 187.652 164.228 187.686L164.216 187.719C164.208 187.739 164.201 187.756 164.196 187.768L164.195 187.771L164.192 187.78L164.19 187.784L164.188 187.787C164.186 187.792 164.184 187.797 164.182 187.801L164.18 187.805L164.178 187.81L164.174 187.813L164.165 187.82L164.161 187.823C164.159 187.825 164.157 187.826 164.155 187.828C164.152 187.83 164.149 187.833 164.146 187.835C164.117 187.856 164.082 187.881 164.031 187.916C163.982 187.951 163.922 187.992 163.851 188.044L163.843 188.05C163.154 188.567 162.14 189.119 161.061 189.665C160.659 189.868 160.245 190.072 159.84 190.272C159.183 190.595 158.55 190.907 158.029 191.187C157.842 191.288 157.692 191.403 157.576 191.496C157.34 190.085 157.188 188.73 157.027 187.292L156.995 187.006C156.965 186.732 156.93 186.321 156.89 185.845C156.86 185.487 156.827 185.093 156.79 184.693C156.708 183.8 156.605 182.851 156.471 182.377C156.462 182.345 156.452 182.311 156.44 182.277C156.363 182.049 156.139 181.905 155.899 181.931C155.864 181.934 155.83 181.941 155.798 181.952C155.748 181.625 155.725 181.291 155.707 180.945C155.703 180.881 155.7 180.814 155.697 180.749C155.675 180.33 155.653 179.884 155.583 179.451C155.557 179.29 155.468 179.184 155.406 179.127C155.371 179.095 155.334 179.07 155.302 179.051C155.314 179.022 155.327 178.992 155.341 178.959C155.374 178.882 155.412 178.793 155.453 178.667C155.512 178.488 155.551 178.27 155.487 178.01C155.427 177.768 155.29 177.539 155.098 177.305C155.044 177.238 154.973 177.186 154.894 177.154L154.859 177.141L154.751 177.11C154.498 177.047 154.241 177.05 153.999 177.146C153.726 177.254 153.534 177.454 153.401 177.667C153.147 178.072 153.04 178.631 152.988 179.143C152.933 179.673 152.931 180.241 152.936 180.717C152.938 180.859 152.94 180.989 152.942 181.107C152.946 181.356 152.95 181.551 152.945 181.687L152.94 181.765C152.831 183.164 152.875 184.805 152.919 186.451C152.93 186.85 152.941 187.249 152.949 187.645C152.993 189.668 152.98 191.62 152.659 193.193C152.459 193.484 152.056 193.746 151.49 193.987C151.073 194.164 150.639 194.303 150.223 194.436C150.04 194.494 149.86 194.552 149.687 194.611C149.425 194.701 149.151 194.803 148.868 194.908L148.812 194.929C148.24 195.141 147.631 195.367 147.004 195.549C146.105 195.81 145.314 195.931 144.734 195.805C144.594 195.657 144.443 195.498 144.275 195.346C144.272 195.344 144.269 195.341 144.266 195.339C144.259 195.321 144.249 195.29 144.236 195.244C144.207 195.135 144.179 194.98 144.154 194.779C144.104 194.376 144.072 193.834 144.056 193.186C144.024 191.891 144.056 190.221 144.113 188.501C144.172 186.746 144.258 184.93 144.329 183.43L144.342 183.167C144.403 181.876 144.451 180.85 144.455 180.351C144.457 180.082 144.25 179.856 143.981 179.834C143.816 179.821 143.644 179.8 143.457 179.778C143.274 179.755 143.077 179.732 142.879 179.716C142.49 179.685 142.051 179.681 141.633 179.806C141.57 179.825 141.51 179.857 141.459 179.899L141.41 179.943C141.288 180.07 141.217 180.241 141.172 180.364C141.121 180.506 141.073 180.676 141.029 180.864C140.941 181.24 140.855 181.729 140.773 182.287C140.607 183.405 140.448 184.843 140.303 186.308C140.172 187.629 140.052 188.966 139.949 190.121C139.823 191.521 139.722 192.655 139.653 193.172C139.592 193.4 139.499 193.586 139.379 193.78C139.345 193.836 139.301 193.903 139.253 193.977L139.215 194.035C139.125 194.174 139.025 194.331 138.945 194.48C138.658 195.01 138.477 195.651 138.576 196.671C137.366 197.197 136.367 197.363 134.954 197.383L134.945 197.384C134.826 197.387 134.716 197.392 134.607 197.396C134.454 197.403 134.307 197.409 134.149 197.412C134.021 197.414 133.895 197.415 133.772 197.411C133.589 197.406 133.415 197.393 133.248 197.367C133.246 197.353 133.244 197.338 133.241 197.322C133.215 197.121 133.193 196.84 133.176 196.496C133.142 195.811 133.128 194.915 133.124 193.986C133.121 193.117 133.126 192.212 133.13 191.436C133.135 190.571 133.139 189.864 133.129 189.542C133.122 189.312 132.963 189.115 132.741 189.059C132.674 189.042 132.606 189.039 132.541 189.049C132.53 188.353 132.473 187.66 132.313 187.029C132.315 186.939 132.319 186.823 132.323 186.687L132.323 186.677C132.326 186.573 132.329 186.458 132.333 186.332L132.343 186.028C132.365 185.283 132.393 184.293 132.409 183.347C132.422 182.559 132.427 181.786 132.412 181.185C132.405 180.885 132.393 180.619 132.373 180.411C132.363 180.308 132.351 180.21 132.334 180.124C132.322 180.064 132.293 179.925 132.211 179.806C132.133 179.693 132.014 179.617 131.881 179.592L131.823 179.585L131.532 179.564C131.438 179.558 131.347 179.556 131.26 179.561C131.059 179.574 130.881 179.626 130.654 179.709C130.566 179.741 130.488 179.796 130.43 179.869L130.406 179.901C130.313 180.036 130.247 180.208 130.197 180.369C130.143 180.54 130.092 180.743 130.045 180.969C129.949 181.422 129.857 181.998 129.768 182.651C129.604 183.837 129.443 185.312 129.277 186.826L129.227 187.289C129.043 188.969 128.852 190.67 128.644 192.083C128.54 192.79 128.433 193.418 128.322 193.931C128.208 194.454 128.097 194.824 127.997 195.034C127.973 195.083 127.938 195.182 127.909 195.265C127.874 195.366 127.827 195.5 127.774 195.655C127.668 195.966 127.534 196.365 127.402 196.758L127.015 197.915C126.672 197.894 126.307 197.899 125.953 197.907L125.811 197.91C125.332 197.92 124.86 197.93 124.41 197.898C123.407 197.827 122.741 197.564 122.452 196.875C122.232 196.32 122.168 195.698 122.162 195.016C122.159 194.701 122.169 194.383 122.179 194.056L122.182 193.978C122.192 193.627 122.202 193.267 122.194 192.913C122.156 191.267 122.206 189.615 122.256 187.948L122.264 187.676C122.31 186.142 122.352 184.595 122.32 183.05L122.302 182.388C122.27 181.469 121.997 180.808 121.456 180.34C120.951 179.902 120.268 179.686 119.568 179.498C119.426 179.459 119.274 179.484 119.151 179.565C119.043 179.637 118.967 179.745 118.936 179.869L118.925 179.923L118.922 179.947C118.285 184.52 117.913 187.19 117.651 191.845L117.64 191.871C117.634 191.884 117.628 191.897 117.623 191.909L117.599 191.963C117.59 191.983 117.582 192.001 117.575 192.017C117.547 192.076 117.536 192.093 117.531 192.099C117.526 192.107 117.504 192.137 117.293 192.27C116.843 192.553 116.592 192.967 116.441 193.391C116.295 193.804 116.232 194.261 116.181 194.664L116.168 194.768C116.12 195.149 116.078 195.482 115.995 195.778C115.909 196.088 115.792 196.298 115.631 196.435C115.624 196.439 115.604 196.448 115.568 196.457C115.502 196.475 115.409 196.49 115.288 196.498C115.046 196.516 114.742 196.505 114.42 196.474C113.76 196.411 113.135 196.274 112.932 196.193L112.875 196.174L112.761 196.142C112.614 196.098 112.466 196.048 112.306 195.992C112.178 195.948 112.042 195.901 111.891 195.853C111.562 195.748 111.179 195.642 110.804 195.635C110.478 195.553 110.35 195.471 110.035 195.271L109.948 195.216L109.901 195.167L109.902 195.136C109.906 195.06 109.91 194.985 109.915 194.911C109.969 194.116 110.101 193.457 110.274 192.69L110.459 191.876L110.489 191.761C110.676 191.029 110.819 190.47 110.583 189.558L110.425 188.942L110.51 188.569C111.059 186.078 111.39 183.509 111.585 180.986C111.618 180.569 111.429 180.091 111.215 179.731C111.003 179.373 110.668 178.967 110.258 178.801C110.076 178.727 109.869 178.764 109.723 178.893L109.695 178.92C109.531 179.09 109.407 179.326 109.308 179.556C109.205 179.798 109.11 180.085 109.021 180.395C108.844 181.015 108.682 181.768 108.536 182.524C108.415 183.154 108.302 183.795 108.201 184.372C108.181 184.489 108.161 184.605 108.141 184.716C108.038 185.302 107.95 185.785 107.877 186.103L107.846 186.229C107.675 186.893 107.469 187.601 107.257 188.327C106.828 189.799 106.376 191.349 106.147 192.781L106.147 192.785L106.125 192.927C106.113 192.956 106.101 192.985 106.09 193.012C106.083 193.029 106.076 193.046 106.07 193.063C106.034 193.15 105.999 193.236 105.956 193.336C105.888 193.492 105.828 193.613 105.776 193.691C105.764 193.707 105.753 193.722 105.742 193.738C105.735 193.747 105.729 193.755 105.722 193.764L105.668 193.839C105.54 194.015 105.471 194.109 105.389 194.193C105.321 194.26 105.238 194.325 105.074 194.411C104.998 194.398 104.916 194.383 104.829 194.365C104.755 194.349 104.678 194.332 104.599 194.313C104.383 194.263 104.13 194.198 103.869 194.13C103.577 194.055 103.274 193.977 103.001 193.914L102.787 193.867C102.703 193.849 102.62 193.832 102.539 193.818C102.418 193.796 102.298 193.778 102.185 193.765C102.029 193.748 101.855 193.739 101.689 193.758C101.446 193.605 101.163 193.437 100.865 193.351C100.47 193.236 100.054 193.263 99.6294 193.51L99.6082 193.514C99.5806 193.518 99.5553 193.522 99.5323 193.526C99.5252 193.497 99.5177 193.467 99.5092 193.439C99.4623 193.285 99.393 193.153 99.2925 192.998C99.2126 192.875 99.0837 192.792 98.9384 192.769L98.6501 192.725C98.528 192.707 98.4038 192.733 98.2996 192.798C98.2696 192.716 98.2303 192.638 98.183 192.565C98.0465 192.355 97.8496 192.196 97.7192 192.09L97.7106 192.083C97.377 191.814 97.3464 191.754 97.3539 191.658C97.4539 190.42 97.6041 189.196 97.7558 187.96C97.8161 187.469 97.8767 186.975 97.9344 186.478C98.136 184.743 98.3 182.983 98.281 181.19C98.28 181.094 98.2837 180.962 98.2881 180.805C98.301 180.346 98.3196 179.678 98.2439 179.107C98.1919 178.715 98.0892 178.288 97.8654 177.947C97.6222 177.576 97.2382 177.315 96.7106 177.314C96.6155 177.314 96.5225 177.34 96.4418 177.389L96.4079 177.411C96.0309 177.684 95.7933 178.155 95.6297 178.61C95.4585 179.087 95.3338 179.647 95.2381 180.203C95.1151 180.918 95.0295 181.706 94.9633 182.316C94.9298 182.625 94.9012 182.888 94.8752 183.073C94.6568 184.562 94.3955 186.045 94.0921 187.519L94.0204 187.86C93.9866 187.872 93.9534 187.884 93.9207 187.897C93.795 187.945 93.6777 187.997 93.5696 188.054C93.5449 188.067 93.5177 188.082 93.4901 188.098C93.4378 188.128 93.3872 188.159 93.3392 188.191C92.6513 188.653 92.5061 189.288 92.462 189.864C92.4486 190.038 92.4428 190.2 92.4373 190.356C92.4237 190.737 92.4114 191.078 92.2936 191.466C92.2299 191.676 92.3061 191.903 92.4835 192.032C92.6609 192.16 92.9006 192.162 93.0803 192.037L93.479 191.758C93.4831 191.782 93.4882 191.807 93.4959 191.831L93.5767 192.082C93.6156 192.203 93.6977 192.305 93.8061 192.368C93.7631 192.586 93.6998 192.875 93.6201 193.224C93.5368 193.098 93.4256 192.984 93.2826 192.888C93.0706 192.746 92.7893 192.782 92.6193 192.965L92.5867 193.004C92.53 193.079 92.4648 193.161 92.3958 193.247C92.2213 193.466 92.0225 193.716 91.8749 193.958C91.6521 194.323 91.4768 194.768 91.5469 195.302C91.5572 195.38 91.5854 195.455 91.6293 195.52C91.6715 195.583 91.6975 195.626 91.7202 195.664L91.7319 195.683L91.7355 195.689C91.755 195.721 91.8091 195.811 91.8964 195.885C91.9894 195.963 92.0908 196 92.1295 196.014L92.1498 196.022L92.1872 196.035C92.2216 196.047 92.2606 196.062 92.3147 196.083C92.5311 196.17 92.7788 196.101 92.9184 195.914C92.9385 195.887 92.9607 195.856 92.984 195.823L92.9913 195.813L93.0171 195.777C92.9074 196.241 92.7954 196.717 92.6867 197.19C92.4219 198.344 92.1733 199.492 92.0219 200.394C91.9465 200.843 91.8927 201.245 91.8749 201.561C91.8661 201.718 91.8652 201.871 91.8795 202.005C91.891 202.113 91.9208 202.313 92.0525 202.475C92.1073 202.543 92.1771 202.594 92.2541 202.626L92.2524 202.63L92.2506 202.634C92.1785 202.823 92.1291 203.036 92.1401 203.288C92.151 203.534 92.2188 203.789 92.3411 204.065C92.4003 204.199 92.5137 204.301 92.6529 204.347C93.0896 204.488 93.4558 204.391 93.751 204.209C93.9378 204.094 94.1272 203.919 94.271 203.787C94.3133 203.748 94.3517 203.712 94.3849 203.683C94.488 203.593 94.5506 203.465 94.5589 203.328C94.5633 203.256 94.6058 203.012 94.6863 202.628C94.7627 202.263 94.864 201.813 94.9697 201.359C95.1293 200.673 95.295 199.995 95.3981 199.597L95.6587 199.498C95.9115 199.401 96.0461 199.125 95.9665 198.866L95.9414 198.785C95.9782 198.698 96.0468 198.585 96.1633 198.444C96.3246 198.248 96.5411 198.04 96.791 197.818C96.8904 197.729 97.0063 197.628 97.1247 197.526C97.2746 197.396 97.4283 197.262 97.5569 197.146C97.8023 196.924 98.0501 196.683 98.2309 196.436C98.2616 196.394 98.2892 196.354 98.3149 196.316L98.4964 196.421C98.5119 196.482 98.5246 196.56 98.5319 196.661C98.5382 196.748 98.5407 196.841 98.543 196.947L98.5437 196.982C98.5456 197.075 98.5477 197.178 98.5531 197.28C98.5773 197.742 98.6746 198.375 99.3078 198.784C99.424 198.859 99.5655 198.884 99.7004 198.854C99.8353 198.823 99.9523 198.74 100.025 198.622C100.179 198.372 100.182 198.085 100.169 197.884C100.177 197.91 100.185 197.934 100.194 197.958C100.224 198.044 100.263 198.127 100.313 198.205L100.351 198.26C100.545 198.526 100.812 198.626 101.041 198.668C101.154 198.688 101.27 198.696 101.367 198.702C101.39 198.704 101.413 198.705 101.435 198.706L101.449 198.707L101.475 198.709C101.536 198.712 101.594 198.716 101.656 198.722C101.768 198.733 101.877 198.75 101.986 198.781C102.226 198.85 102.425 198.921 102.636 198.997C102.779 199.048 102.927 199.102 103.099 199.158C103.216 199.197 103.339 199.234 103.466 199.268C103.553 199.291 103.644 199.312 103.736 199.331C104.088 199.605 104.148 199.759 104.17 199.854C104.188 199.928 104.194 200.011 104.197 200.161L104.198 200.199C104.201 200.334 104.205 200.51 104.231 200.708L104.248 200.817C104.278 200.992 104.327 201.183 104.405 201.394L104.31 201.728C103.985 202.894 103.682 204.067 103.404 205.246C103.252 205.679 103.028 206.59 102.824 207.414L102.801 207.51C102.691 207.957 102.585 208.381 102.497 208.71C102.453 208.875 102.415 209.011 102.383 209.112C102.364 209.173 102.351 209.207 102.346 209.223Z" fill="white"/>
<path d="M80.3825 201.494C80.3809 201.529 80.3793 201.565 80.3777 201.6L80.3726 201.71L80.3722 201.718L80.3666 201.839C80.374 201.68 80.3814 201.52 80.3886 201.359L80.392 201.284C80.3893 201.344 80.3866 201.404 80.3839 201.463L80.3825 201.494Z" fill="white"/>
<path d="M80.3365 202.496C80.3314 202.608 80.3265 202.72 80.3219 202.831C80.3295 202.649 80.3378 202.464 80.3464 202.278C80.343 202.351 80.3397 202.423 80.3365 202.496Z" fill="white"/>
<path d="M80.3219 202.831C80.3265 202.72 80.3314 202.608 80.3365 202.496C80.3397 202.423 80.343 202.351 80.3464 202.278C80.3378 202.464 80.3295 202.649 80.3219 202.831Z" fill="white"/>
<path d="M80.3825 201.495C80.3809 201.53 80.3793 201.565 80.3777 201.6L80.3726 201.71L80.3722 201.718L80.3666 201.839C80.374 201.68 80.3814 201.52 80.3886 201.359L80.392 201.284C80.3893 201.344 80.3866 201.404 80.3839 201.463L80.3825 201.495Z" fill="white"/>
<path d="M80.3365 202.496C80.3314 202.608 80.3265 202.72 80.3219 202.831C80.3295 202.649 80.3378 202.464 80.3464 202.278C80.343 202.351 80.3397 202.423 80.3365 202.496Z" fill="white"/>
<path d="M80.3219 202.831C80.3265 202.72 80.3314 202.608 80.3365 202.496C80.3397 202.423 80.343 202.351 80.3464 202.278C80.3378 202.464 80.3295 202.649 80.3219 202.831Z" fill="white"/>
<path d="M80.3825 201.495C80.3809 201.53 80.3793 201.565 80.3777 201.6L80.3726 201.71L80.3722 201.718L80.3666 201.839C80.374 201.68 80.3814 201.52 80.3886 201.359L80.392 201.284C80.3893 201.344 80.3866 201.404 80.3839 201.463L80.3825 201.495Z" fill="white"/>
<path d="M80.3365 202.496C80.3314 202.608 80.3265 202.72 80.3219 202.831C80.3295 202.649 80.3378 202.464 80.3464 202.278C80.343 202.351 80.3397 202.423 80.3365 202.496Z" fill="white"/>
<path d="M80.3219 202.831C80.3265 202.72 80.3314 202.608 80.3365 202.496C80.3397 202.423 80.343 202.351 80.3464 202.278C80.3378 202.464 80.3295 202.649 80.3219 202.831Z" fill="white"/>
<path d="M84.1422 178.316C84.3758 178.307 84.5614 178.306 84.7592 178.326C84.9453 178.346 85.1243 178.384 85.3247 178.426L85.3344 178.428L85.5439 178.471L85.7097 178.606C87.1935 179.813 87.5838 181.65 87.5845 183.37C87.5852 185.087 87.197 186.899 86.9001 188.29L86.8968 188.307L86.8932 188.323L86.89 188.338L86.889 188.342C86.8894 188.34 86.8897 188.339 86.89 188.337V188.336C86.8897 188.338 86.8894 188.34 86.889 188.342V188.342L86.8864 188.353L86.8867 188.354C86.8862 188.356 86.8857 188.359 86.8851 188.363C86.8844 188.366 86.8835 188.368 86.8831 188.37C86.8828 188.372 86.8824 188.373 86.8821 188.374C86.882 188.375 86.8821 188.376 86.8821 188.376L86.8805 188.383L86.8802 188.383C86.8484 188.532 86.8181 188.676 86.789 188.815C86.79 188.846 86.7914 188.875 86.7922 188.901L86.7974 189.044C86.7993 189.086 86.8014 189.124 86.8046 189.161C86.8066 189.184 86.8095 189.204 86.8118 189.222L88.2073 189.531L88.2627 190.212L88.263 190.217L88.2634 190.222L88.2643 190.238L88.2692 190.294L88.2761 190.371V190.372C88.3027 190.677 88.3451 191.108 88.2715 191.553L88.1751 192.138L87.5965 192.266C87.5747 192.271 87.5565 192.275 87.5301 192.281L87.5298 192.281L87.4464 192.3L87.4467 192.3C87.1657 192.364 86.915 192.421 86.5867 192.439C86.5813 192.522 86.5752 192.605 86.5701 192.687L86.5411 193.15L85.8635 193.552L85.8606 193.553C85.7415 193.82 85.6711 194.026 85.6208 194.229C85.5443 194.537 85.505 194.867 85.4426 195.447L85.4393 195.477L85.4338 195.507L85.1543 197.068L85.1504 197.09L85.1449 197.113L85.1142 197.244V197.245C84.799 198.582 84.5715 199.547 83.9721 200.89C83.8978 201.762 83.7891 202.52 83.1968 203.39C83.1734 203.819 83.1207 204.304 82.914 204.738C82.627 205.34 82.1175 205.724 81.4243 205.976L81.0269 206.12L80.6666 205.899L80.5125 205.803C80.3223 205.684 80.0771 205.523 79.8496 205.342C79.6408 205.175 79.3628 204.925 79.1896 204.612L79.1069 204.453C79.0806 204.399 79.0556 204.345 79.0319 204.292C79.0164 204.256 79.001 204.22 78.986 204.183L78.9841 204.179L78.9824 204.174L78.9482 204.086L78.943 204.073C78.9297 204.038 78.9164 204.001 78.9033 203.962C78.5415 202.908 78.5589 201.679 78.6928 200.545C78.8284 199.396 79.0987 198.235 79.3176 197.292L79.3196 197.283L79.3202 197.28C79.3221 197.272 79.3239 197.264 79.3248 197.261L79.3287 197.245C79.3296 197.241 79.3307 197.236 79.332 197.23C79.3323 197.229 79.3326 197.227 79.3329 197.225C79.3432 197.181 79.3366 197.21 79.3457 197.171C79.3646 197.089 79.3832 197.009 79.4014 196.93C79.4151 196.87 79.4285 196.812 79.4414 196.754C79.4451 196.738 79.4487 196.722 79.4525 196.705C79.4712 196.622 79.4891 196.542 79.5059 196.465L79.518 196.409L79.5375 196.354L79.589 196.211C79.6451 196.044 79.7037 195.829 79.7395 195.629C79.7574 195.528 79.7677 195.442 79.7711 195.375C79.7748 195.301 79.769 195.279 79.7717 195.292L79.7616 195.243L79.7571 195.194C79.718 194.767 79.7584 194.383 79.7884 194.083C79.8023 193.944 79.8134 193.821 79.8206 193.704C79.3895 193.622 79.0058 193.481 78.64 193.274C78.15 192.996 77.7261 192.617 77.296 192.205C76.915 192.037 76.4228 191.861 75.9349 191.687C75.8542 191.658 75.7746 191.63 75.6974 191.602C75.6703 191.592 75.6434 191.582 75.6167 191.572C75.3599 191.59 75.0878 191.627 74.783 191.669C74.7089 191.68 74.6274 191.691 74.5482 191.702L74.5045 191.707L74.4602 191.756L74.2804 191.737L73.9224 191.786L73.8784 191.696L73.7338 191.681L71.2831 191.43L72.617 190.554L72.474 190.433C72.3621 190.343 72.3361 190.335 72.3327 190.334H72.3317C72.3317 190.334 72.3294 190.333 72.3265 190.332C72.3206 190.331 72.3074 190.329 72.2841 190.328C72.2332 190.324 72.1525 190.325 72.0134 190.335L70.1908 190.472L70.425 190.13C70.4183 190.129 70.4117 190.128 70.4051 190.127C70.3577 190.18 70.3098 190.231 70.2618 190.282L70.2354 190.311L69.9549 190.612L69.5445 190.588C69.0062 190.557 68.6972 190.191 68.56 189.987C68.4527 189.827 68.3693 189.644 68.3111 189.508C68.1891 189.547 68.0227 189.58 67.8202 189.561C67.574 189.537 67.3232 189.439 67.0892 189.339L66.5321 189.102L66.5374 188.974L66.395 189.12L65.7845 188.69L65.651 188.596C65.5927 188.555 65.5346 188.515 65.4754 188.473L65.4751 188.473C64.8209 188.018 64.107 187.527 63.5022 186.792C63.3359 186.795 63.1538 186.794 62.9732 186.786C62.7776 186.778 62.5655 186.762 62.3683 186.729C62.1983 186.701 61.9329 186.646 61.7027 186.507L60.4427 185.744L61.5363 185.104C61.4069 185.069 61.3572 185.068 61.3695 185.067L61.3079 185.069L61.2467 185.062C60.9943 185.035 60.7681 184.986 60.5525 184.895L60.5704 185.115L59.7739 185.863L59.426 185.862C58.9619 185.861 58.3624 185.701 57.8685 185.526C57.3684 185.348 56.8072 185.095 56.4378 184.814C56.2987 184.708 56.0933 184.536 55.9716 184.262C55.8576 184.004 55.8655 183.742 55.8644 183.689C55.8634 183.639 55.8625 183.599 55.8592 183.551L55.8462 183.362L55.912 183.186C56.1451 182.558 56.601 182.124 56.8961 181.832L57.0844 181.643L57.3323 181.389L57.6871 181.379C59.0412 181.34 60.0154 181.504 61.2678 181.771C62.0089 181.92 62.6302 182.077 63.2889 182.258L63.9661 182.449L64.0472 182.472L64.5391 182.721L64.9291 182.735L65.0766 182.798C65.5976 183.016 66.1172 183.16 66.6423 183.303C67.0449 183.413 67.4854 183.532 67.874 183.691C67.9734 183.724 68.0821 183.759 68.1997 183.797C68.64 183.939 69.2363 184.13 69.709 184.34L69.7139 184.331L70.4103 184.495C70.4713 184.509 70.5514 184.527 70.6452 184.548C70.874 184.599 71.2491 184.682 71.5114 184.763L71.5942 184.681L71.672 184.819L71.6847 184.824C71.9775 184.954 72.4545 185.114 72.9435 185.278L72.9438 185.278L73.0272 185.306C73.2335 185.375 73.4379 185.443 73.6096 185.505C73.7132 185.543 73.8313 185.587 73.9396 185.635C74.752 185.789 76.3914 186.278 77.0523 186.532L77.2132 186.594L77.2911 186.667C77.6023 186.659 77.8825 186.681 78.1654 186.74C78.5319 186.816 78.8752 186.948 79.2326 187.088C79.2822 187.102 79.3381 187.119 79.3971 187.137L79.403 187.139C79.5591 187.186 79.7337 187.238 79.8929 187.281C79.9721 187.302 80.0414 187.319 80.0978 187.331C80.1542 187.344 80.1796 187.347 80.1819 187.347L80.2158 187.351L80.249 187.356C80.6579 187.425 80.9868 187.562 81.2667 187.711C81.3 187.645 81.3359 187.571 81.3719 187.487C81.5664 187.036 81.7568 186.427 81.9387 185.716C82.3015 184.298 82.5988 182.608 82.8359 181.259C82.9427 180.651 83.0387 180.104 83.1216 179.699C83.1626 179.498 83.2042 179.313 83.2463 179.164C83.2669 179.092 83.2934 179.007 83.3271 178.926C83.3414 178.892 83.4218 178.683 83.6138 178.522L83.8428 178.328L84.1422 178.316ZM79.3248 197.265C79.3246 197.266 79.3245 197.267 79.3245 197.267C79.3245 197.267 79.3248 197.265 79.3251 197.264L79.3248 197.265Z" fill="white"/>
</svg>
